<?xml version="1.0" encoding="utf-8"?>
<svg width="1975px" height="512px" viewBox="0 0 1975 512" version="1.1" xmlns:xlink="http://www.w3.org/1999/xlink" xmlns="http://www.w3.org/2000/svg">
  <path d="M1819.46 512C1782.69 512 1749.69 506.342 1720.46 495.027C1691.23 483.713 1666.47 467.094 1646.2 445.171C1625.93 423.249 1610.37 396.493 1599.53 364.906C1588.68 333.319 1583.26 297.017 1583.26 256C1583.26 214.983 1589.51 178.681 1602 147.094C1614.5 115.506 1631.59 88.7514 1653.27 66.8287C1674.96 44.9061 1700.42 28.2873 1729.65 16.9724C1758.88 5.65749 1790.23 2.81009e-05 1823.7 0C1843.98 0 1862.36 1.53224 1878.86 4.59671C1895.37 7.66118 1909.75 11.0792 1922 14.8508C1934.26 18.6225 1944.4 22.6299 1952.41 26.873C1960.43 31.116 1966.08 34.1805 1969.38 36.0663L1943.22 108.906C1931.9 101.834 1915.76 95.116 1894.78 88.7514C1873.8 82.3868 1851.05 79.2044 1826.53 79.2044C1805.32 79.2044 1785.52 82.8582 1767.13 90.1657C1748.74 97.4733 1732.83 108.435 1719.4 123.05C1705.96 137.665 1695.47 156.052 1687.93 178.21C1680.38 200.368 1676.61 226.063 1676.61 255.293C1676.61 281.223 1679.56 305.031 1685.45 326.718C1691.34 348.405 1700.42 367.145 1712.68 382.939C1724.93 398.733 1740.49 410.991 1759.35 419.713C1778.21 428.435 1800.84 432.795 1827.24 432.795C1858.83 432.795 1884.52 429.613 1904.32 423.249C1924.12 416.884 1939.45 410.873 1950.29 405.215L1974.33 478.055C1968.68 481.827 1961.02 485.598 1951.35 489.37C1941.69 493.142 1930.25 496.795 1917.05 500.331C1903.85 503.867 1889 506.696 1872.5 508.818C1856 510.939 1838.32 512 1819.46 512L1819.46 512ZM1344.75 501.392C1328.72 474.519 1310.8 445.643 1291 414.762C1271.2 383.882 1250.69 352.766 1229.48 321.414C1208.26 290.063 1186.69 259.654 1164.77 230.188C1142.85 200.722 1121.98 174.203 1102.18 150.63L1102.18 501.392L1014.49 501.392L1014.49 11.3151L1087.33 11.3151C1106.19 31.1162 1126.46 54.5711 1148.15 81.6797C1169.84 108.788 1191.64 136.958 1213.56 166.188C1235.49 195.418 1256.7 224.766 1277.21 254.232C1297.72 283.698 1315.99 311.16 1332.02 336.619L1332.02 11.3151L1420.41 11.3151L1420.41 501.392L1344.75 501.392ZM642.318 512C608.844 512 580.086 507.168 556.042 497.503C531.997 487.838 512.078 474.284 496.285 456.84C480.491 439.396 468.822 418.888 461.279 395.315C453.736 371.742 449.964 345.812 449.964 317.525L449.964 11.3151L539.776 11.3151L539.776 309.039C539.776 331.197 542.251 350.173 547.202 365.967C552.152 381.761 559.224 394.608 568.417 404.508C577.611 414.409 588.454 421.716 600.948 426.431C613.441 431.145 627.467 433.503 643.025 433.503C658.583 433.503 672.727 431.145 685.456 426.431C698.185 421.716 709.146 414.409 718.34 404.508C727.533 394.608 734.605 381.761 739.555 365.967C744.505 350.173 746.981 331.197 746.981 309.039L746.981 11.3151L836.793 11.3151L836.793 317.525C836.793 345.812 832.903 371.742 825.124 395.315C817.345 418.888 805.559 439.396 789.765 456.84C773.971 474.284 753.817 487.838 729.301 497.503C704.785 507.168 675.791 512 642.318 512L642.318 512ZM0 501.392L0 11.3151L309.746 11.3151L309.746 86.9835L89.1049 86.9835L89.1049 212.155L284.994 212.155L284.994 287.823L89.1049 287.823L89.1049 501.392L0 501.392Z" id="FUNC" fill="#000000" stroke="none" />
</svg>