<?xml version="1.0" encoding="utf-8"?>
<svg width="512px" height="512px" viewBox="0 0 512 512" version="1.1" xmlns:xlink="http://www.w3.org/1999/xlink" xmlns="http://www.w3.org/2000/svg">
  <desc>Created with Lunacy</desc>
  <defs>
    <path d="M0 0L176.771 0L176.771 406.906L0 406.906L0 0Z" transform="translate(1.5258789E-05 6.1035156E-05)" id="path_1" />
    <clipPath id="mask_1">
      <use xlink:href="#path_1" />
    </clipPath>
  </defs>
  <g id="paladin-news-square-logo-color">
    <path d="M0 0L512 0L512 512L0 512L0 0Z" id="Rectangle" fill="#E1DBF3" fill-rule="evenodd" stroke="none" />
    <g id="The-Paladin-tower" transform="matrix(0.99939084 -0.034899496 0.034899496 0.99939084 160.60098 56.55713)">
      <path d="M0 0L176.771 0L176.771 406.906L0 406.906L0 0Z" transform="translate(1.5258789E-05 6.1035156E-05)" id="Background" fill="none" fill-rule="evenodd" stroke="none" />
      <g clip-path="url(#mask_1)">
        <g id="Group" transform="translate(8.0690155 3.8234863)">
          <path d="M74.231 0.435441C74.0642 0.727259 73.8141 3.68735 73.7307 7.02264C73.5639 13.7349 73.1887 15.0274 70.4371 17.8206C69.6866 18.6128 68.9362 19.7385 68.7694 20.2804C68.5193 21.281 68.8111 24.3662 69.3114 26.0755C69.6866 27.493 68.4359 27.5764 60.4729 26.8676C43.5462 25.2834 38.0847 24.9081 37.8345 25.2834C37.7095 25.4918 36.5421 26.284 35.2914 27.0761C34.0406 27.8265 31.8727 29.244 30.4969 30.1613C26.2027 33.1213 12.8615 42.1266 6.19091 46.5876C-0.604754 51.1319 -1.18843 51.8824 1.47981 52.5911C2.27194 52.7996 3.3976 53.2999 3.93959 53.7585C4.52327 54.1754 5.19032 54.5506 5.39878 54.5506C5.64893 54.5506 8.1504 55.6763 10.902 57.0104C13.6953 58.3862 16.447 59.6369 17.0723 59.762L18.198 60.0538L18.198 66.8078C18.1563 70.4766 17.9895 76.5219 17.7811 80.1907C17.4475 86.486 17.0723 93.3234 16.1134 113.335C15.905 118.046 15.5297 125.551 15.2796 130.012C15.0711 134.473 14.5292 146.313 14.0289 156.277C13.5703 166.241 12.9032 179.291 12.528 185.252C12.1944 191.214 11.7358 200.386 11.5274 205.681C11.1105 216.396 10.1933 235.657 9.19268 253.084C8.85915 259.421 8.40055 269.093 8.19209 274.555C7.98364 280.017 7.60842 287.479 7.35827 291.148C7.10812 294.817 6.7329 302.238 6.52444 307.616C6.31599 312.994 5.94077 319.957 5.69062 323.042C5.48216 326.127 5.10694 333.465 4.85679 339.301C4.64834 345.138 4.18973 354.435 3.85621 359.939C3.52268 365.442 3.02238 373.989 2.77223 378.908C2.52209 383.828 2.23025 388.664 2.14687 389.623L1.93841 391.415L3.64775 391.415C5.23202 391.415 5.35709 391.332 5.14863 390.498C4.98187 389.998 5.06525 387.788 5.27371 385.579C5.48216 383.369 5.85738 376.907 6.10753 371.195C6.31599 365.442 6.7329 357.562 6.94135 353.685C7.31658 347.556 7.6918 340.26 8.90084 315.621C9.15099 310.868 9.19268 310.535 9.98481 310.535C10.4434 310.535 12.3612 310.159 14.1956 309.701C21.9502 307.7 24.0764 307.241 28.7042 306.324C31.3724 305.782 33.7071 305.448 33.8322 305.573C34.0823 305.865 33.2902 328.67 32.9984 329.587C32.8733 329.921 32.1228 330.129 31.2056 330.129C30.2884 330.129 28.7459 330.254 27.7036 330.38L25.8275 330.63L25.5773 340.51C25.4523 345.93 25.0353 352.768 24.7018 355.769C24.3266 358.73 24.0348 364.566 24.0348 368.652L24.0348 376.115L27.5785 375.823L31.1223 375.573L31.1223 380.576L31.1223 385.579L32.4981 385.579L33.9156 385.579L34.1657 378.408C34.3325 374.447 34.7077 364.983 35.0412 357.437C35.3748 349.849 35.8751 335.049 36.1669 324.501C36.417 313.953 36.7923 305.198 36.9173 305.031C37.0424 304.865 41.6701 304.906 47.1734 305.115C60.8481 305.657 79.5258 306.282 95.7436 306.782C103.206 306.991 111.795 307.324 114.838 307.449L120.383 307.7L120.258 316.955L120.133 326.169L121.509 326.294C122.843 326.419 122.843 326.419 122.843 324.626C122.843 323.626 123.01 317.122 123.26 310.118C123.969 288.647 124.927 256.002 125.553 231.53C125.886 218.689 126.345 201.512 126.595 193.382C126.845 185.252 127.304 168.993 127.637 157.319C127.971 145.604 128.555 124.967 128.888 111.459C129.222 97.9094 129.68 81.0245 129.93 73.937C130.139 66.8078 130.389 59.0532 130.472 56.7186C130.556 52.466 130.556 52.3827 131.848 51.2987C132.974 50.2981 145.356 41.2928 150.776 37.4572C153.569 35.4977 153.486 34.9557 150.443 34.9557C149.108 34.9557 146.565 34.789 144.731 34.5388C141.062 34.1219 127.054 32.7878 115.964 31.8289C112.087 31.4954 105.041 30.8283 100.33 30.3697C95.6186 29.9111 89.3649 29.3274 86.3631 29.0773C83.403 28.7854 80.7348 28.4102 80.4846 28.2018C79.9427 27.8265 80.2762 25.7837 81.0683 24.2411C81.9438 22.6568 81.652 20.3638 80.4846 18.7796C79.8593 17.9874 78.817 16.2364 78.1916 14.9023C77.1494 12.776 76.9826 11.9005 76.9409 8.56522C76.8992 6.48066 76.7741 3.68735 76.6491 2.43661C76.3989 0.518803 76.2321 0.143598 75.44 0.0185293C74.9814 -0.0648582 74.3977 0.143598 74.231 0.435441L74.231 0.435441ZM76.8162 18.9884C78.2754 20.1974 78.6507 20.8228 78.6507 21.8234C78.6507 23.5327 76.1909 25.784 74.3565 25.784C73.2308 25.784 71.8967 24.1998 71.6882 22.4904C71.4798 21.0729 71.6465 20.6143 72.8556 19.1551C73.6477 18.2379 74.4398 17.4458 74.6066 17.4458C74.8151 17.4458 75.774 18.1546 76.8162 18.9884L76.8162 18.9884ZM75.4405 26.8685C75.9408 27.3688 75.1903 28.286 74.2731 28.286C73.064 28.286 72.4804 27.4939 73.2725 26.9936C73.9396 26.5767 75.0652 26.4933 75.4405 26.8685L75.4405 26.8685ZM49.6749 28.9106C52.8851 29.2441 58.2216 29.7444 61.5569 29.9529C64.8922 30.1614 70.1453 30.6199 73.2305 30.9952C83.4865 32.1208 95.4936 33.2465 99.7044 33.4966C103.832 33.7468 106.083 33.9552 125.344 35.9564C130.723 36.5401 137.268 37.1238 139.853 37.2905C142.396 37.4573 144.522 37.7075 144.522 37.9159C144.522 38.1244 144.105 38.5413 143.564 38.8748C142.771 39.4168 141.562 39.4585 135.35 39.125C131.348 38.9165 124.969 38.4579 121.175 38.1244C117.381 37.7908 111.378 37.3322 107.834 37.0404C104.29 36.7902 99.7044 36.415 97.6198 36.2066C95.5769 35.9981 90.9492 35.6229 87.4055 35.3728C83.8617 35.1226 78.6086 34.7474 75.7319 34.4972C72.8552 34.2888 67.1019 33.8302 62.9327 33.4966C58.7219 33.1631 54.7196 32.7879 53.9691 32.6628C53.2187 32.5378 50.3837 32.2876 47.6321 32.0791C44.9221 31.8707 42.5457 31.5372 42.379 31.3287C42.2122 31.1619 41.9204 30.3698 41.7536 29.6194C41.4201 27.9934 41.2116 28.0351 49.6749 28.9106L49.6749 28.9106ZM38.8354 29.7438C38.9605 30.3274 39.1273 31.2446 39.2524 31.7866C39.4191 32.6204 39.1273 32.9957 37.4596 33.9546C35.9171 34.8718 21.1167 44.5441 10.6105 51.5482C9.35977 52.3404 8.7344 52.5071 7.56705 52.2987C6.77492 52.1319 6.06616 51.8401 6.06616 51.6316C6.02447 51.3815 5.98278 51.0479 5.94109 50.8395C5.8994 50.631 11.8195 46.5453 19.0321 41.7091C26.2447 36.8729 33.499 31.9951 35.0832 30.8277C36.7092 29.702 38.1267 28.7432 38.2935 28.7015C38.4602 28.7015 38.7104 29.1601 38.8354 29.7438L38.8354 29.7438ZM50.9256 35.373C53.2186 35.5814 58.0131 35.9566 61.5568 36.2068C65.1006 36.4569 71.9796 37.0406 76.7741 37.4575C86.8217 38.3747 100.079 39.4587 108.251 39.959C111.336 40.1674 116.881 40.626 120.55 40.9596C124.219 41.2931 129.805 41.71 132.974 41.8768C137.893 42.1269 138.602 42.252 138.185 42.7523C137.476 43.5861 131.598 47.4634 131.014 47.4634C130.597 47.4634 126.428 47.0465 113.671 45.7957C111.503 45.5873 105.124 44.9619 99.4958 44.3782C93.8675 43.7946 87.0301 43.1275 84.2785 42.8774C81.5269 42.6272 76.4823 42.1686 73.0219 41.8351C69.6032 41.5016 64.6003 41.0429 61.9738 40.7928C50.2169 39.7505 47.5069 39.417 46.2145 38.9167C44.8804 38.333 44.0466 36.9572 44.0466 35.3313C44.0466 34.6225 44.255 34.5391 45.4224 34.7059C46.1311 34.831 48.6326 35.1228 50.9256 35.373L50.9256 35.373ZM41.17 36.6653C41.3367 37.2073 41.4618 38.2913 41.5035 39C41.5452 40.2508 41.3367 40.4592 39.1688 41.6266C37.8347 42.3353 35.6251 43.6277 34.2492 44.5033C32.8734 45.3788 30.7055 46.6712 29.4548 47.3383C26.0778 49.2144 20.3661 52.633 18.1147 54.0922C16.0302 55.4263 14.5293 55.6765 13.1535 54.9677C11.9861 54.3007 12.1529 53.8421 13.9039 52.9249C16.1553 51.7992 36.9175 37.9995 38.5434 36.5403C40.1277 35.1645 40.7531 35.2061 41.17 36.6653L41.17 36.6653ZM50.9253 42.501L53.0099 42.5427L51.3423 42.9179C48.5489 43.5016 46.9647 43.3766 46.9647 42.6261C46.9647 42.1258 47.2148 42.0008 47.9236 42.2092C48.4239 42.3343 49.7997 42.4594 50.9253 42.501L50.9253 42.501ZM42.7952 43.6703C42.5868 44.1289 41.9614 44.6292 41.4611 44.796C40.9191 44.9627 39.6684 45.6715 38.6261 46.3802C36.5832 47.756 28.2033 52.884 27.9532 52.884C27.8698 52.884 26.1604 53.8846 24.1176 55.0937C19.6566 57.7619 19.0312 58.0537 19.0312 57.3033C19.0312 56.9698 22.3665 54.8018 26.4523 52.4671C30.4963 50.1324 34.3319 47.8394 34.9573 47.4225C35.5826 46.9639 36.208 46.6304 36.3748 46.6304C36.5415 46.6304 37.0001 46.3385 37.3754 46.005C38.1675 45.2963 42.42 42.8782 42.9203 42.8782C43.0871 42.8782 43.0454 43.2534 42.7952 43.6703L42.7952 43.6703ZM69.478 44.5452C68.7275 45.0455 62.5155 45.0455 61.3482 44.5452C60.8062 44.3368 62.2654 44.17 65.3088 44.17C68.5608 44.1283 69.8949 44.2534 69.478 44.5452L69.478 44.5452ZM86.9889 46.2537C86.9889 46.5872 85.9883 46.6289 83.8204 46.5039C79.5262 46.1703 79.4011 45.7951 83.5702 45.7951C85.7799 45.7951 86.9889 45.9619 86.9889 46.2537L86.9889 46.2537ZM55.3448 46.8793C59.764 47.2128 63.5162 47.588 63.683 47.6714C63.8081 47.7965 67.0183 48.0466 70.7705 48.2968C74.5227 48.5469 78.7752 48.9221 80.2344 49.1723C81.6519 49.3807 85.6959 49.756 89.198 49.9644C92.7001 50.1729 98.6202 50.6315 102.414 51.0067C116.756 52.2991 118.715 52.4659 123.051 52.7577L127.554 53.0079L127.304 60.9709C127.137 65.3485 126.845 78.9815 126.595 91.2387C126.345 103.496 126.095 114.211 126.053 115.003L125.928 116.462L122.801 116.337C119.299 116.212 109.502 115.461 106.375 115.044C104.374 114.794 104.29 114.753 104.415 113.543C104.624 111.376 105.374 109.624 106.125 109.374C107.125 109.083 107.25 107.707 108.084 85.0684C108.918 62.9304 108.751 61.3461 105.249 57.9274C103.165 55.8846 101.705 55.2592 98.6619 55.2175C94.4928 55.1758 91.6578 57.177 89.5732 61.638L88.4893 63.931L88.1974 85.6104C87.989 97.5341 87.989 107.415 88.1557 107.582C88.3225 107.707 88.8228 107.915 89.2814 107.999C89.9484 108.124 90.1986 108.624 90.4904 110.75C90.6989 112.168 90.7406 113.46 90.6155 113.585C90.4904 113.71 87.6971 113.669 84.4035 113.46L78.4417 113.127L78.4417 110.667C78.4834 108.29 78.9003 107.498 80.4429 106.956C81.0265 106.79 81.4434 100.494 81.9854 83.7343C82.6108 64.056 82.5274 61.1793 81.0265 58.6362C76.3154 50.5898 65.5591 52.0073 63.0159 61.0126C62.599 62.5135 62.2655 68.0167 61.932 80.1905C61.6401 89.5711 61.3483 99.1183 61.2649 101.328C61.0981 105.122 61.1398 105.414 61.8486 105.414C63.3495 105.414 64.0165 106.373 64.3084 109.041L64.6002 111.667L61.5151 111.667C59.8057 111.667 55.3031 111.459 51.4675 111.167L44.4634 110.667L44.4634 106.248C44.4634 103.829 44.6718 98.0344 44.8803 93.3649C45.3806 83.6092 46.5479 51.6738 46.5479 48.3802C46.5479 47.2128 46.7147 46.2122 46.9231 46.2122C47.1316 46.2122 50.9255 46.5041 55.3448 46.8793L55.3448 46.8793ZM43.2545 59.4288C42.6708 68.6009 42.0454 71.1441 42.0038 64.265C41.9621 59.6373 41.9621 59.5539 40.6696 58.0947C39.8775 57.2192 39.002 56.6355 38.4183 56.6355C37.0425 56.6355 35.0413 58.4699 34.6661 60.0542C34.1241 62.4723 33.7906 99.5774 34.2909 99.5774C35.1664 99.5774 35.625 107.749 34.8746 109.208C34.4576 109.917 34.5827 110 35.6667 110C36.3754 110 37.4177 109.542 38.1265 108.958C38.8352 108.374 39.5857 107.916 39.8358 107.916C40.6696 107.916 41.1282 105.915 41.1282 102.454L41.1282 99.0771L39.2521 99.2439C37.0008 99.4107 36.709 98.6602 38.9186 98.2016C39.7524 98.0349 40.6279 97.6596 40.7947 97.3678C40.9615 97.1176 41.1699 94.6996 41.2116 92.073C41.2533 88.029 41.3367 88.5293 41.5868 95.4083C41.7536 99.9943 41.7119 104.789 41.5035 106.456C41.295 108.041 41.0865 109.792 41.0449 110.334C40.9198 111.126 39.1271 112.126 29.7882 116.754C23.6596 119.756 18.5316 122.174 18.4482 122.049C18.3648 121.966 18.4482 120.381 18.615 118.547C18.8234 116.712 19.1987 109.583 19.4071 102.704C19.6573 95.8252 20.0742 87.5704 20.2826 84.3602C20.5328 81.1499 20.8663 74.521 21.0748 69.6015C21.3666 60.8046 21.4083 60.6796 22.4089 59.8874C22.9509 59.4288 26.7865 57.0941 30.9139 54.676C35.0413 52.2996 39.002 49.8815 39.669 49.3813C40.3778 48.8393 41.5035 48.1305 42.1705 47.7553L43.4213 47.1299L43.5463 49.4646C43.6297 50.7988 43.5046 55.2597 43.2545 59.4288L43.2545 59.4288ZM75.7316 57.3444C77.6077 58.6368 78.6083 60.1377 79.1086 62.389C79.6089 64.8488 79.1086 91.7397 78.5249 92.3233C78.2748 92.5735 73.1051 92.1566 66.8097 91.3644L64.7668 91.1143L65.1003 77.4396C65.2671 69.9351 65.559 63.0978 65.7257 62.264C66.1426 60.3879 67.6018 58.1782 69.0193 57.3027C70.4785 56.4272 74.3975 56.4272 75.7316 57.3444L75.7316 57.3444ZM101.122 58.511C103.165 59.5533 105.207 62.2632 105.499 64.3895C105.749 66.1822 105.041 94.1986 104.707 94.4904C104.54 94.6572 93.5756 93.7817 92.1164 93.4898L91.1575 93.3231L91.1575 80.2738C91.1575 72.6443 91.3659 66.1822 91.6161 64.723C92.1581 61.7212 93.5756 59.7201 95.9103 58.6778C97.9949 57.7189 99.5791 57.6772 101.122 58.511L101.122 58.511ZM39.0437 77.0649C39.0437 92.1153 38.9603 94.992 38.46 94.992C38.1265 94.992 37.7513 94.7002 37.6262 94.325C37.2927 93.4495 37.2927 59.7631 37.6679 59.4295C37.793 59.2628 38.1682 59.1377 38.5017 59.1377C38.9603 59.1377 39.0437 62.3896 39.0437 77.0649L39.0437 77.0649ZM74.1889 98.7027C76.2317 98.9112 78.0661 99.2447 78.3163 99.4949C78.5664 99.745 78.6081 100.704 78.358 102.121C78.0244 104.248 77.9411 104.373 76.6486 104.498C75.3145 104.623 75.3145 104.665 75.3145 106.916L75.3145 109.167L71.3955 109.167L67.4766 109.167L67.143 106.416C66.8929 103.872 66.7678 103.581 65.7255 103.205C64.5165 102.747 64.0579 101.621 64.0579 99.0363L64.0579 97.7855L67.3098 98.0773C69.0608 98.2441 72.1877 98.4943 74.1889 98.7027L74.1889 98.7027ZM99.0371 100.828C102.331 101.036 104.332 101.37 104.54 101.703C104.874 102.245 104.582 104.58 104.04 106.122C103.832 106.706 103.331 107.081 102.873 107.081C102.164 107.081 101.955 107.456 101.747 109.166C101.58 110.333 101.372 111.334 101.205 111.417C101.08 111.5 99.3706 111.459 97.4111 111.292L93.8674 111.042L93.6589 108.124C93.4505 105.33 93.4088 105.205 92.3248 105.08C91.3659 104.955 91.1992 104.747 91.0741 102.996C90.949 101.912 90.949 100.911 91.0324 100.703C91.2409 100.327 92.575 100.327 99.0371 100.828L99.0371 100.828ZM59.6804 114.794C64.5166 115.128 71.2706 115.587 74.6893 115.837C78.1496 116.087 83.0275 116.462 85.529 116.671C88.0722 116.921 93.4503 117.296 97.4944 117.504C101.58 117.754 105.124 118.005 105.416 118.13C105.708 118.213 110.335 118.588 115.713 118.964C121.092 119.297 125.553 119.672 125.636 119.714C125.678 119.797 125.553 125.384 125.344 132.138C125.136 138.892 124.844 151.483 124.677 160.154C124.469 171.953 124.302 175.997 123.885 176.122C123.635 176.247 120.675 176.122 117.381 175.872C114.087 175.622 107.709 175.247 103.248 175.038C98.7868 174.83 92.4914 174.454 89.2812 174.204C86.071 173.996 79.6088 173.579 74.8977 173.37C66.5595 172.953 55.3862 172.328 46.5477 171.786L42.1701 171.494L42.2952 163.99C42.4619 155.693 43.4625 126.885 43.8794 118.838L44.1713 113.71L47.5483 113.961C49.4244 114.086 54.8859 114.461 59.6804 114.794L59.6804 114.794ZM40.7106 132.306C40.4605 140.56 40.0019 149.774 39.6683 152.734C39.2931 155.736 39.0013 161.281 38.9596 165.116L38.9179 172.037L35.124 173.496C30.6214 175.247 24.4094 177.707 19.2814 179.792L15.5708 181.293L15.8627 178.041C16.1128 174.705 16.6548 161.448 17.3636 139.643C17.8222 125.76 17.8639 125.552 20.3653 124.593C23.4088 123.384 37.5004 116.546 38.9596 115.587L40.5022 114.545L40.794 115.921C40.9608 116.671 40.9191 124.051 40.7106 132.306L40.7106 132.306ZM57.1789 175.456C62.0151 175.706 69.7696 176.165 74.4807 176.498C79.1918 176.79 85.3622 177.165 88.2388 177.332C95.1596 177.624 120.049 179.208 122.384 179.5L124.177 179.709L123.927 184.128C123.801 186.588 123.468 198.053 123.218 209.643C122.968 221.233 122.634 230.822 122.509 230.947C122.217 231.239 114.296 230.905 101.788 230.113C97.9112 229.905 93.0333 229.613 90.9488 229.53C86.6963 229.363 87.1549 229.863 87.3216 225.277C87.405 223.234 87.2383 223.359 91.2406 221.942C94.0756 220.941 96.7022 218.773 98.745 215.646L100.538 212.937L104.29 213.187C110.585 213.604 109.918 212.603 109.793 221.441L109.71 229.029L110.961 229.029L112.211 229.029L112.503 222.359C112.67 218.69 113.087 209.476 113.462 201.93C114.338 183.503 114.296 182.71 113.254 182.419C111.586 182.002 111.294 182.961 111.002 189.923C110.835 193.55 110.627 197.594 110.502 198.97L110.252 201.43L107.458 201.138C105.958 201.013 103.706 200.888 102.497 200.888C100.788 200.888 100.246 200.721 100.037 200.137C99.1619 197.511 97.5777 194.592 96.2436 193.217C94.6176 191.507 91.1572 189.631 89.6147 189.631C89.0727 189.631 88.6141 189.506 88.6141 189.298C88.5724 189.131 88.4473 187.046 88.2805 184.628L88.0304 180.251L86.7796 180.251L85.5289 180.251L85.5289 185.67L85.5289 191.049L88.6141 192.216C93.2001 193.884 96.994 198.053 96.994 201.43C96.994 203.056 96.5354 202.806 95.243 200.513C93.7838 197.969 91.6158 196.052 88.9059 194.843C83.4444 192.466 80.8178 192.466 75.8982 194.843C72.4796 196.51 69.8947 199.053 69.1443 201.638C68.3521 204.306 68.5189 208.559 69.5195 210.685C70.6451 213.062 73.4801 215.688 76.4819 217.064C78.4831 217.981 79.442 218.148 82.4021 218.148C87.9887 218.148 92.0744 216.105 95.0762 211.769C95.9934 210.477 96.2852 209.434 96.4937 207.1L96.7855 204.056L103.248 204.181C106.791 204.223 109.835 204.39 110.002 204.473C110.419 204.723 110.419 207.392 110.043 209.226L109.793 210.602L107.042 210.31C105.541 210.185 102.956 209.935 101.372 209.81L98.4532 209.518L97.2441 212.103C95.3263 216.272 91.1572 219.315 86.0292 220.274L84.4866 220.566L84.4866 224.985L84.4866 229.363L81.9435 229.071C80.526 228.946 78.9417 228.821 78.3997 228.821C77.4408 228.821 77.4408 228.696 77.3157 224.527L77.1907 220.274L75.7315 219.565C71.5207 217.439 68.5189 214.187 66.9346 209.935L66.0174 207.558L62.2235 207.558C60.139 207.558 57.429 207.433 56.2617 207.308C54.0937 207.016 54.052 206.975 54.052 205.682C54.052 203.639 54.5106 201.805 55.0526 201.596C55.3028 201.513 57.4707 201.555 59.8888 201.722C62.3069 201.847 64.5165 201.888 64.8084 201.805C65.1002 201.68 65.8923 200.554 66.5594 199.262C67.7685 196.802 70.5201 193.925 72.7714 192.8C73.4801 192.424 75.0227 191.882 76.2318 191.549C78.4414 191.007 78.4414 190.965 78.7749 189.006C78.9417 187.922 79.0251 185.504 78.9834 183.669L78.8583 180.251L77.6076 180.251L76.3568 180.251L76.065 184.17C75.9399 186.296 75.6481 188.214 75.4396 188.38C75.2729 188.547 74.1889 189.006 73.0215 189.381C70.0198 190.34 66.6011 193.217 64.8918 196.218L63.4326 198.72L59.2634 198.511C56.9704 198.386 55.0109 198.219 54.9276 198.136C54.7191 197.969 54.8025 191.841 55.136 184.17C55.3862 178.291 55.3862 178.083 54.5523 177.874C52.8847 177.416 52.6762 178.041 52.301 184.295C52.0092 189.589 50.7167 222.067 50.7167 223.943C50.7167 224.443 51.0503 224.652 51.9258 224.652C53.1348 224.652 53.1765 224.61 53.385 222.025C53.5101 220.608 53.7185 217.439 53.8853 214.938L54.1354 210.477L59.055 210.477L63.9745 210.477L64.5999 212.353C65.4754 214.896 67.7685 217.564 71.2705 220.191C74.439 222.567 74.8976 223.318 74.8976 226.361L74.8976 228.404L72.9382 228.404C71.8125 228.404 64.9334 228.112 57.5958 227.779C50.2581 227.445 43.254 227.153 42.0033 227.153L39.752 227.153L40.0438 222.651C40.2106 220.191 40.5024 211.978 40.7108 204.39C41.2945 184.42 41.5447 177.499 41.7948 175.956L42.0033 174.581L45.2135 174.789C46.9645 174.956 52.3844 175.248 57.1789 175.456L57.1789 175.456ZM38.7095 175.956C38.8763 176.54 38.376 191.299 37.9591 197.886C37.7506 201.388 37.6672 201.721 37.1252 200.971C36.7917 200.512 36.1663 198.97 35.7494 197.552C35.2908 196.135 34.4153 194.217 33.7483 193.3C32.6643 191.715 32.5809 191.215 32.4558 187.046C32.2891 182.001 32.0389 181.626 29.9127 182.71C29.2456 183.085 28.0782 183.377 27.3695 183.377C26.6607 183.377 26.1188 183.586 26.0771 183.877C26.0771 184.169 26.0354 186.296 25.9937 188.589C25.9103 192.591 25.8686 192.841 24.5345 194.592C23.784 195.634 22.8668 197.469 22.5333 198.678C22.1581 199.929 21.6161 201.429 21.2826 202.055C20.949 202.68 20.6989 203.514 20.6989 203.889C20.6989 204.848 20.2403 205.89 19.8651 205.89C19.6566 205.89 19.5732 205.474 19.6566 204.932C20.6155 199.303 21.0324 187.88 20.3237 186.796C19.74 185.837 18.4893 186.421 18.114 187.755C17.8222 188.755 17.0301 217.564 16.9467 228.529L16.9467 231.364L18.3225 231.239L19.6566 231.114L19.7817 224.109C19.8651 217.731 19.9485 217.105 20.6155 217.23C21.0324 217.314 22.033 218.773 23.0753 220.899C24.5762 223.984 24.8263 224.902 25.0348 228.028L25.2432 231.572L23.2838 232.239C22.1998 232.573 19.4898 233.49 17.2385 234.24C14.9872 234.991 13.1111 235.533 13.0277 235.449C12.8609 235.283 13.0694 230.572 14.1951 207.767C14.5703 200.179 14.9872 191.882 15.1123 189.297L15.3624 184.586L16.6965 184.003C17.4053 183.669 21.1992 182.168 25.0765 180.667C28.9955 179.125 33.4981 177.374 35.0824 176.707C38.5427 175.289 38.5011 175.331 38.7095 175.956L38.7095 175.956ZM29.038 186.086C29.038 186.628 28.8712 187.212 28.621 187.337C28.3709 187.504 28.2041 187.004 28.2041 186.086C28.2041 185.169 28.3709 184.669 28.621 184.836C28.8712 184.961 29.038 185.544 29.038 186.086L29.038 186.086ZM30.914 194.884C32.665 197.427 33.8324 200.429 33.5405 201.388C33.4155 201.679 32.9152 201.221 32.3732 200.429C31.0391 198.553 29.4131 197.135 28.5376 197.135C28.1624 197.135 27.3285 197.344 26.7032 197.552L25.5775 198.011L26.3696 196.843C27.8705 194.592 28.621 192.758 28.6627 191.298C28.746 190.006 28.746 189.964 28.9128 191.048C29.0379 191.674 29.9134 193.425 30.914 194.884L30.914 194.884ZM87.6554 197.342C89.4898 198.093 92.1998 200.511 93.0753 202.22C93.4088 202.845 93.659 204.471 93.659 205.889C93.659 209.516 92.033 211.809 87.8222 214.019C85.6125 215.228 80.4011 215.144 77.2743 213.894C74.6477 212.81 72.6465 211.225 72.8967 210.391C73.1885 209.558 81.2349 207.14 82.1105 207.64C83.8615 208.557 86.1545 206.639 86.1545 204.221C86.1545 203.554 85.9044 203.387 84.6953 203.387C83.528 203.387 82.8192 203.012 81.36 201.678C79.9842 200.427 79.3171 200.052 78.6501 200.261C77.6495 200.594 77.5661 201.803 78.4833 203.179C79.3171 204.471 78.9836 205.472 77.7329 205.472C76.899 205.514 74.0223 206.389 71.8127 207.348C71.104 207.64 71.0623 207.515 71.3541 205.43C72.1045 199.635 76.9407 196.008 83.2778 196.467C84.8204 196.592 86.7799 196.967 87.6554 197.342L87.6554 197.342ZM29.1213 200.762C31.7479 203.847 30.8724 216.73 27.9957 216.73C25.8694 216.73 25.3274 207.599 27.1619 202.096C27.9123 199.845 28.1624 199.678 29.1213 200.762L29.1213 200.762ZM37.7091 206.182L37.584 209.434L35.6245 209.559C33.2898 209.726 32.9563 209.142 33.4149 205.765C33.7484 203.263 34.0819 202.971 36.2499 202.971L37.8341 202.971L37.7091 206.182L37.7091 206.182ZM22.7838 210.226C22.7838 212.686 22.1167 213.812 20.6159 213.812C19.8237 213.812 19.782 213.603 19.9488 211.56C20.1573 209.059 20.7826 207.975 21.9917 207.975C22.6587 207.975 22.7838 208.308 22.7838 210.226L22.7838 210.226ZM37.2926 219.315L37.1675 227.361L34.8745 228.111C33.6237 228.487 32.2479 228.945 31.8727 229.07C31.2057 229.279 31.1223 228.987 31.1223 226.611C31.1223 224.318 31.3307 223.525 32.7482 220.857C33.6237 219.148 34.5826 216.73 34.8328 215.479C35.3331 213.103 36.2503 211.31 36.959 211.31C37.2509 211.31 37.3342 214.187 37.2926 219.315L37.2926 219.315ZM26.2861 219.024C27.245 219.733 28.871 219.858 29.2462 219.232C29.3713 218.982 29.6631 218.815 29.8716 218.815C30.08 218.815 29.8716 219.691 29.3713 220.733C28.6625 222.359 28.5374 223.318 28.6625 226.695C28.7876 229.989 28.7042 230.697 28.2039 230.822C27.6619 230.906 27.5785 230.197 27.5368 226.653C27.4952 222.276 27.2033 221.108 25.5774 219.316C24.6185 218.273 25.0771 218.107 26.2861 219.024L26.2861 219.024ZM53.4266 230.697C67.2264 231.364 77.6909 231.948 92.6164 232.782C98.3698 233.115 107.25 233.616 112.42 233.866C117.589 234.116 121.925 234.449 122.134 234.616C122.301 234.783 122.259 242.037 122.05 250.751C121.258 280.56 120.716 300.738 120.633 302.614L120.55 304.49L117.881 304.407C116.38 304.365 109.335 304.115 102.247 303.865C80.5676 303.115 61.9733 302.573 49.2575 302.281L37.1671 301.989L37.2921 295.11C37.3338 291.316 37.584 284.395 37.7924 279.684C38.6679 261.549 39.0432 251.584 39.2933 241.537C39.4184 235.783 39.5851 230.864 39.7102 230.572C39.877 229.947 38.7096 229.947 53.4266 230.697L53.4266 230.697ZM36.6256 236.409C36.5839 239.452 36.4588 242.495 36.3338 243.204L36.1253 244.455L32.9985 244.497C31.2891 244.497 29.7882 244.622 29.6632 244.747C29.5381 244.872 29.2463 248.916 29.0378 253.669C28.7876 258.463 28.329 266.384 27.9955 271.304C27.3285 280.726 27.1617 293.442 27.7037 293.442C27.8704 293.442 29.1212 293.15 30.497 292.817C34.7912 291.774 34.4993 291.482 34.3743 297.278L34.2492 302.406L32.3731 302.739C28.9544 303.323 22.2004 304.74 19.0319 305.574C13.9039 306.825 9.81816 307.659 9.52632 307.45C9.35955 307.367 9.35955 305.241 9.52632 302.739C9.69308 300.279 10.11 291.858 10.4852 284.061C12.0278 250.917 12.7782 239.535 13.3202 238.952C13.6121 238.66 16.0718 237.701 18.8235 236.784C21.5751 235.867 26.5363 234.157 29.8716 233.032C33.2069 231.906 36.1253 230.947 36.3338 230.947C36.5839 230.905 36.709 232.948 36.6256 236.409L36.6256 236.409ZM35.3332 262.465C35.2082 271.678 34.9163 279.35 34.7495 279.558C34.3743 279.933 34.6245 250.416 34.9997 249.04C35.1248 248.582 35.2499 247.581 35.2499 246.789C35.2915 245.997 35.3749 245.455 35.4166 245.538C35.5 245.621 35.4583 253.251 35.3332 262.465L35.3332 262.465ZM32.0811 259.131C32.2896 282.687 31.9561 290.233 30.7053 289.482C30.5802 289.399 30.6219 284.98 30.747 279.601C30.9138 274.265 31.0388 264.885 31.0805 258.714C31.1222 251.627 31.289 247.583 31.5391 247.583C31.7893 247.583 31.9977 251.794 32.0811 259.131L32.0811 259.131ZM28.8294 365.776C28.5792 371.654 28.4542 372.238 27.7037 372.488C27.2451 372.613 26.8282 372.655 26.7448 372.572C26.6615 372.53 26.7865 371.488 26.9533 370.32C27.1618 369.153 27.4119 361.94 27.537 354.269C27.7037 346.598 27.9539 338.927 28.1206 337.217C28.5376 332.423 29.2046 357.896 28.8294 365.776L28.8294 365.776ZM31.5501 354.186C31.3985 355.062 31.2469 354.436 31.2469 352.852C31.2469 351.226 31.3985 350.559 31.5501 351.268C31.7017 352.018 31.7017 353.352 31.5501 354.186L31.5501 354.186ZM31.5449 370.236C31.4002 370.778 31.2554 370.444 31.2554 369.527C31.183 368.61 31.3278 368.193 31.5449 368.568C31.6897 368.985 31.6897 369.736 31.5449 370.236L31.5449 370.236Z" id="Shape" fill="#000000" fill-rule="evenodd" stroke="none" />
          <path d="M1.76033 5.50323C1.63525 8.54668 1.34341 17.135 1.09326 24.5978C0.843109 32.0605 0.467877 42.8168 0.259417 48.5285C-0.199191 59.6183 -0.240885 59.6183 1.76033 59.6183C2.63586 59.6183 2.67755 59.4099 2.92771 52.1973C3.09447 48.1532 3.38632 41.5244 3.63647 37.522C3.84493 33.5196 4.17847 23.4304 4.30354 15.0922L4.55369 0L3.30293 0L2.01048 0L1.76033 5.50323L1.76033 5.50323Z" transform="translate(54.62648 48.711548)" id="Shape" fill="#000000" fill-rule="evenodd" stroke="none" />
          <path d="M1.67019 0.500299C1.12821 1.3758 -0.372688 55.6577 0.0859198 57.4087C0.336071 58.3259 1.87865 58.993 2.42064 58.451C2.92093 57.9507 4.38013 7.58779 4.0883 2.33469C3.92153 0.208456 3.83815 0 2.96262 0C2.42064 0 1.83696 0.250137 1.67019 0.500299L1.67019 0.500299Z" transform="translate(113.000916 53.296997)" id="Shape" fill="#000000" fill-rule="evenodd" stroke="none" />
          <path d="M2.94022 0.338926C2.14809 0.714132 1.39765 1.42289 1.1475 2.08996C0.313679 4.29959 -0.103232 16.6402 0.0218424 35.2345C0.105223 45.5322 0.271989 53.9122 0.480444 53.9122C1.1475 53.9122 6.02537 51.4941 6.8175 50.7436C7.56794 50.0349 7.65132 49.5346 7.52625 46.241C7.40117 43.0307 7.2761 42.5305 6.56735 42.3637C5.56676 42.0718 5.56676 41.9885 6.60904 40.9045C7.40117 40.0707 7.44286 39.3619 7.52625 29.1476C7.7347 0.13047 7.85978 1.63134 5.44169 0.380607C4.48279 -0.119693 4.10757 -0.119693 2.94022 0.338926L2.94022 0.338926ZM4.85807 20.3497C4.94145 38.2769 4.89976 38.8606 3.60734 38.9023C3.19042 38.9023 3.14873 2.88104 3.56564 2.46413C4.60792 1.42185 4.733 3.25627 4.85807 20.3497L4.85807 20.3497ZM4.10799 43.0724C4.10799 43.2808 3.85784 43.4893 3.52431 43.4893C3.19079 43.4893 2.77387 43.2808 2.6488 43.0724C2.52373 42.8222 2.77387 42.6555 3.23248 42.6555C3.73277 42.6555 4.10799 42.8222 4.10799 43.0724L4.10799 43.0724ZM4.6916 46.0748C4.81667 46.6167 4.94174 47.5756 4.94174 48.201C4.94174 49.1182 4.77498 49.3684 4.233 49.2433C3.39917 49.0765 3.06564 47.7007 3.44086 46.1581C3.77439 44.9074 4.35807 44.8657 4.6916 46.0748L4.6916 46.0748Z" transform="translate(25.76361 60.67456)" id="Shape" fill="#000000" fill-rule="evenodd" stroke="none" />
          <path d="M0.250146 1.22387C0.125075 1.93263 0 13.8563 0 27.6978L0 52.8794L1.16735 52.8794L2.29301 52.8794L2.25132 26.4888C2.25132 0.264979 2.25132 0.13991 1.37581 0.0148416C0.708751 -0.0685461 0.458602 0.181591 0.250146 1.22387L0.250146 1.22387Z" transform="translate(21.949432 61.705444)" id="Shape" fill="#000000" fill-rule="evenodd" stroke="none" />
          <path d="M2.41807 0.0416938C1.54256 0.166762 1.50086 0.375218 1.25072 10.4645C1.08396 16.1345 0.792122 26.1821 0.583668 32.8527C0.375214 39.4816 0.16676 46.7359 0.0833802 48.9038L0 52.8645L1.20903 52.8645C2.33468 52.8645 2.45975 52.6977 2.75159 51.1968C3.46033 47.2778 4.29415 0.708743 3.66879 0.166762C3.46033 1.27232e-05 2.87666 -0.0416938 2.41807 0.0416938L2.41807 0.0416938Z" transform="translate(53.051407 116.96051)" id="Shape" fill="#000000" fill-rule="evenodd" stroke="none" />
          <path d="M0.375217 9.46391C0.166762 14.717 0 26.2655 0 35.2291L0 51.4887L1.29243 51.6137L2.58485 51.7388L2.87668 36.8134C3.00176 28.6002 3.25191 16.9683 3.41867 10.9231L3.66882 0L2.20964 0L0.708754 0L0.375217 9.46391L0.375217 9.46391Z" transform="translate(112.21164 121.25513)" id="Shape" fill="#000000" fill-rule="evenodd" stroke="none" />
          <path d="M7.04579 0.210074C5.04462 0.668693 2.91837 1.96111 2.12625 3.21185C0.833821 5.17134 0.583678 8.17311 0.291842 23.5989L0 39.2747L5.5866 39.5249C8.67173 39.6917 12.2155 39.8584 13.4662 39.9001L15.7592 39.9835L16.0094 33.7298C16.1761 30.2695 16.2595 22.5983 16.2178 16.6364C16.1761 4.12906 16.0094 3.37862 12.5907 1.37742C10.3394 0.00161842 9.13034 -0.248519 7.04579 0.210074L7.04579 0.210074ZM11.4232 4.29792C12.8824 5.50697 12.924 5.63204 13.2159 9.42596C13.3409 11.5522 13.3409 18.598 13.1742 25.0602L12.924 36.7754L7.92112 36.7337L2.9182 36.692L3.21004 22.7254C3.50188 8.7172 3.75202 6.04895 5.04444 4.58976C6.71208 2.71366 9.3803 2.63027 11.4232 4.29792L11.4232 4.29792Z" transform="translate(62.266205 127.34131)" id="Shape" fill="#000000" fill-rule="evenodd" stroke="none" />
          <path d="M6.59796 0.396668C4.01309 1.31388 2.26206 2.60631 1.21978 4.48241L0.177498 6.27512L0.0524232 22.4096C-0.0726454 35.6256 0.0107358 38.5857 0.469336 38.5857C1.72007 38.5857 13.5604 39.8781 14.2275 40.0865C14.7694 40.2533 14.9779 39.9615 15.1447 38.9192C15.5199 36.5845 16.2286 18.699 16.2286 12.1953C16.2286 5.10778 15.77 3.69027 13.0184 1.81417C11.6009 0.855285 10.8505 0.521762 8.72421 0.0214639C8.39067 -0.0619233 7.43178 0.104851 6.59796 0.396668L6.59796 0.396668ZM11.267 4.27686C13.7685 6.40309 13.8101 6.73662 13.1014 20.3279C12.7679 27.0402 12.476 33.4606 12.476 34.5446L12.476 36.5874L8.43198 36.2956C6.18066 36.1288 4.01271 35.9204 3.5958 35.7953C2.84536 35.5868 2.80367 34.8781 2.97043 21.3702C3.1372 5.65266 3.17888 5.52759 5.72205 4.0684C7.8483 2.81767 9.59933 2.90103 11.267 4.27686L11.267 4.27686Z" transform="translate(88.27098 129.78119)" id="Shape" fill="#000000" fill-rule="evenodd" stroke="none" />
          <path d="M0.801111 5.92013C0.676039 9.21371 0.467583 20.0951 0.342508 30.1843C0.217436 40.2319 0.05067 48.6535 0.00897938 48.9036C-0.116096 49.5706 1.09295 49.6957 1.92678 49.1121C2.71891 48.5284 2.67722 49.529 3.42766 17.8021C3.67781 8.67173 3.7612 0.958889 3.63612 0.625366C3.46935 0.291842 2.84399 0 2.21862 0L1.05126 0L0.801111 5.92013L0.801111 5.92013Z" transform="translate(18.896927 126.67499)" id="Shape" fill="#000000" fill-rule="evenodd" stroke="none" />
          <path d="M5.04462 0.341451C4.2108 0.549906 3.04345 1.13357 2.41809 1.63387C0.792132 2.92628 0.583676 5.01084 0.250146 23.9803L0 39.9897L1.79272 39.6979C2.7933 39.5311 4.12742 39.0725 4.83617 38.6556C6.00352 37.9885 6.0869 37.7384 6.37874 34.82C7.33763 23.5217 7.71285 0.216357 6.92072 0.00790106C6.71227 -0.0337799 5.83675 0.0912884 5.04462 0.341451L5.04462 0.341451ZM4.12717 20.0199C4.04379 28.8168 3.87702 36.1961 3.71026 36.3629C3.5018 36.5296 3.25166 36.5713 3.12658 36.4046C2.75136 36.0293 2.66798 5.6365 3.0432 4.71931C3.20997 4.34408 3.5435 4.01056 3.79364 4.01056C4.08548 4.01056 4.21055 8.88842 4.12717 20.0199L4.12717 20.0199Z" transform="translate(31.497528 129.75641)" id="Shape" fill="#000000" fill-rule="evenodd" stroke="none" />
          <path d="M4.00498 0.40302C2.00381 0.861614 1.46182 1.61205 1.00322 4.61384C0.669686 6.82347 -0.205829 39.0926 0.0443179 39.5095C0.169393 39.718 5.04727 38.7174 5.58925 38.3422C6.17293 38.0086 6.21462 36.6745 6.67322 14.0361C7.00676 -1.72325 7.29859 -0.347419 4.00498 0.40302L4.00498 0.40302ZM3.54664 25.2061C3.37988 31.1679 3.21312 34.6283 3.17142 32.919C3.08804 31.2096 3.00466 28.2912 2.92127 26.4568C2.83789 24.6224 2.92127 18.7022 3.04635 13.3241C3.33819 3.65165 3.33819 3.60997 3.58833 8.94646C3.71341 11.9065 3.71341 19.2442 3.54664 25.2061L3.54664 25.2061Z" transform="translate(23.406921 133.77814)" id="Shape" fill="#000000" fill-rule="evenodd" stroke="none" />
          <path d="M2.12623 2.79329C2.12623 4.37758 1.91778 10.8814 1.70932 17.3019C1.50087 23.7223 1.12565 36.2714 0.875504 45.235C0.66705 54.1569 0.375215 62.2867 0.208454 63.2456L0 65.0383L1.41749 65.0383L2.83497 65.0383L3.08512 61.9948C3.25188 60.3689 3.54372 53.0729 3.79386 45.8603C4.04401 38.6477 4.41923 27.9331 4.62768 22.0963C4.87783 16.2596 5.04459 8.88022 5.04459 5.71168L5.04459 0L3.58541 0L2.12623 0L2.12623 2.79329L2.12623 2.79329Z" transform="translate(48.17328 233.82214)" id="Shape" fill="#000000" fill-rule="evenodd" stroke="none" />
          <path d="M2.00118 0.318103C1.58427 0.568265 1.29243 6.53006 0.750449 24.2071C0.375218 37.1313 0.0416937 51.0979 0 55.2253L0 62.7297L1.12567 62.8547C2.12625 62.9798 2.25132 62.8131 2.45978 61.604C2.87669 58.8941 4.83618 0.818402 4.50266 0.276397C4.25251 -0.0988077 2.62655 -0.0988077 2.00118 0.318103L2.00118 0.318103Z" transform="translate(107.625595 237.58966)" id="Shape" fill="#000000" fill-rule="evenodd" stroke="none" />
          <path d="M2.16793 3.37697C2.16793 5.21139 2.00116 10.3394 1.75101 14.717C1.54256 19.1362 1.16734 27.6829 0.91719 33.7698C0.667047 39.8567 0.375203 45.5684 0.250135 46.4856L-1.52588e-05 48.1949L6.29536 48.7786L12.549 49.4039L12.7575 46.9025C12.8826 45.5267 13.2578 41.1908 13.633 37.3135C13.9665 33.3946 14.4252 27.8914 14.6753 25.0147C14.9254 22.138 15.3007 17.7187 15.5091 15.2172C15.7176 12.6741 16.0094 8.54667 16.1762 5.96182L16.468 1.29241L15.4674 1.08396C14.4252 0.875503 4.2108 0 2.91837 0C2.25131 0 2.16793 0.458592 2.16793 3.37697L2.16793 3.37697ZM12.5073 3.95831C13.1744 4.20844 13.1744 8.91956 12.3822 17.2995C12.0487 20.9683 11.5067 27.8056 11.1315 32.5167C10.798 37.2278 10.381 42.1474 10.256 43.4398L9.96414 45.8579L6.87899 45.8579C4.58598 45.8579 3.75215 45.6911 3.58539 45.2742C3.46031 44.9407 3.66877 38.2284 4.04399 30.3488C4.37752 22.4692 4.83612 13.172 4.96119 9.66997L5.21134 3.29126L8.58833 3.5414C10.4644 3.70817 12.2155 3.87492 12.5073 3.95831L12.5073 3.95831Z" transform="translate(57.721664 242.99634)" id="Shape" fill="#000000" fill-rule="evenodd" stroke="none" />
          <path d="M0.833812 1.13129C0.708743 1.84004 0.458592 12.8465 0.291829 25.5623L-1.52588e-05 48.7425L4.7528 48.7008C7.37936 48.7008 10.4645 48.534 11.5902 48.4089L13.6748 48.1171L13.9666 42.9057C14.1334 40.029 14.5503 31.6075 14.9255 24.1447C15.3007 16.682 15.7176 8.51061 15.8427 5.96746L16.0929 1.29804L14.4669 1.08958C13.5914 0.922832 11.1733 0.714376 9.0887 0.589308C7.04583 0.464215 4.37758 0.25576 3.21022 0.130717C1.12566 -0.119444 1.08396 -0.119444 0.833812 1.13129L0.833812 1.13129ZM12.5073 10.0932C12.1321 19.2236 10.8814 45.1971 10.8397 45.2805C10.798 45.2805 8.96358 45.4056 6.79563 45.489L2.83495 45.6141L2.83495 40.6111C2.87664 30.4385 3.58539 5.13202 3.87723 4.33988C4.16907 3.54774 4.5026 3.50606 8.46328 3.63112L12.7575 3.75619L12.5073 10.0932L12.5073 10.0932Z" transform="translate(85.19641 244.69983)" id="Shape" fill="#000000" fill-rule="evenodd" stroke="none" />
          <path d="M2.64232 0.38022C2.51724 0.54697 2.2254 5.96685 1.97526 12.3456C1.51665 24.6029 1.05805 35.6928 0.265918 51.3688C0.0157703 56.6219 -0.0676107 61.333 0.0574624 61.9167C0.265918 62.6671 0.599447 62.959 1.3082 62.959C2.64232 62.959 2.68401 62.5837 3.01753 51.4939C3.14261 46.4492 3.43445 40.2372 3.6429 37.7357C3.85136 35.1925 4.1432 27.5213 4.26827 20.6422C4.43503 13.7631 4.72687 6.55051 4.93533 4.59104C5.14378 2.63154 5.31055 0.797134 5.31055 0.505264C5.31055 -0.0784004 2.97584 -0.203469 2.64232 0.38022L2.64232 0.38022Z" transform="translate(14.9713745 240.90338)" id="Shape" fill="#000000" fill-rule="evenodd" stroke="none" />
          <path d="M3.7522 0.458594C2.7933 0.625369 1.83441 0.917188 1.58426 1.04228C1.3758 1.16735 1.20904 6.29537 1.20904 13.1328C1.20904 19.6366 1.04228 28.6836 0.792128 33.2279C0.541982 37.7723 0.250146 43.0254 0.166762 44.9432L0 48.3619L1.54257 48.1117C2.37639 47.9866 3.7105 47.6948 4.54433 47.4864L6.0869 47.1111L6.29535 41.5662C6.42043 38.5644 6.75396 30.8099 7.04579 24.3894C7.33763 17.9689 7.62947 9.83913 7.71285 6.33705L7.87961 0L6.71227 0.0416811C6.0869 0.0833622 4.75278 0.250137 3.7522 0.458594L3.7522 0.458594ZM4.12687 23.8496C4.08518 36.1485 3.91841 44.1115 3.66827 44.3617C3.37643 44.6535 3.25136 37.7745 3.25136 25.0169C3.25136 6.71444 3.37643 2.92054 4.0018 3.54591C4.12687 3.67098 4.16856 12.8014 4.12687 23.8496L4.12687 23.8496Z" transform="translate(19.532196 246.75)" id="Shape" fill="#000000" fill-rule="evenodd" stroke="none" />
          <path d="M2.12623 1.54258C2.12623 4.91957 0.917198 35.7711 0.708743 37.9391C0.583669 39.1898 0.375215 42.7336 0.250141 45.7354L0 51.2803L1.45918 51.2803L2.87667 51.2803L3.12681 47.8199C3.54372 42.4834 4.83614 9.71407 5.04459 0.708757C5.04459 0.166775 4.71106 0 3.58541 0C2.16792 0 2.12623 0.0416811 2.12623 1.54258L2.12623 1.54258Z" transform="translate(46.088943 309.69946)" id="Shape" fill="#000000" fill-rule="evenodd" stroke="none" />
          <path d="M0.583686 0.435438C0.416911 0.727281 0.208456 5.60514 0.125081 11.2752L0 21.6146L1.66764 21.6146L3.37698 21.6146L3.33529 12.109C3.25192 1.31094 3.12683 0.185275 1.83442 0.0185249C1.37581 -0.0648627 0.792141 0.143594 0.583686 0.435438L0.583686 0.435438Z" transform="translate(106.958145 312.2661)" id="Shape" fill="#000000" fill-rule="evenodd" stroke="none" />
          <path d="M3.8773 0.435436C3.71053 0.935735 3.29362 7.93984 2.37641 26.6175C2.12626 31.0784 1.58427 40.9175 1.12567 48.5053C0.667063 56.0514 0.250149 64.1812 0.166766 66.5576L0 70.8518L1.29243 70.7267L2.58486 70.6016L2.66825 66.641C2.79332 62.3468 3.377 53.2581 4.08575 46.0039C4.29421 43.4607 4.66943 36.0814 4.91958 29.5359C5.12804 22.9903 5.50326 15.5693 5.71172 13.0679C5.96186 10.5247 6.08694 6.60572 6.04525 4.31271C5.92017 0.352049 5.87848 0.143593 4.96127 0.0185249C4.46098 -0.0648625 3.96068 0.143593 3.8773 0.435436L3.8773 0.435436Z" transform="translate(11.234726 312.68274)" id="Shape" fill="#000000" fill-rule="evenodd" stroke="none" />
          <path d="M1.70934 6.08689C1.25074 11.5067 0.0416937 28.475 0 29.8092C0 30.1427 0.541987 30.3511 1.4175 30.3511L2.835 30.3511L3.08515 27.7246C3.21022 26.3071 3.54375 22.138 3.7939 18.4692C4.41927 8.71343 4.91956 4.00234 5.29478 3.71049C5.46155 3.54375 7.46273 3.50204 9.71405 3.58543L13.7581 3.7522L13.7581 10.6729C13.7581 14.5085 13.8832 20.0117 14.0499 22.9301L14.3001 28.2666L15.7176 28.2666L17.0934 28.2666L17.0517 20.0117C17.01 15.5091 16.8849 9.3388 16.7182 6.37874L16.468 0.958891L12.0904 0.667048C9.67236 0.54198 6.50383 0.291843 5.00294 0.208456L2.25133 0L1.70934 6.08689L1.70934 6.08689Z" transform="translate(54.885742 329.37787)" id="Shape" fill="#000000" fill-rule="evenodd" stroke="none" />
          <path d="M0 10.5478L0 21.0538L0.958898 20.8037C1.45919 20.6786 2.12625 20.5535 2.41809 20.5535C2.79331 20.5535 2.91838 18.5524 2.91838 12.0069L2.91838 3.46033L7.50441 3.46033L12.0487 3.46033L12.1738 7.92124L12.2989 12.4238L13.7581 12.4238L15.2173 12.4238L15.3423 6.83727C15.384 3.75217 15.3006 1.08395 15.1339 0.917202C14.9671 0.750428 11.4651 0.458588 7.42102 0.333521L0 0L0 10.5478L0 10.5478Z" transform="translate(83.235794 330.42157)" id="Shape" fill="#000000" fill-rule="evenodd" stroke="none" />
          <path d="M1.62594 0.66705C1.50087 1.0006 1.37579 5.37819 1.37579 10.3394C1.37579 15.3007 1.16734 22.013 0.958883 25.2232C0.750426 28.4335 0.416897 34.2702 0.291824 38.1892L-1.52588e-05 45.3184L1.62594 45.5686C2.50146 45.7353 3.91896 45.8604 4.75278 45.8604L6.29536 45.8604L6.54551 39.6901C6.67058 36.3131 7.00411 31.1017 7.21257 28.1416C8.0047 18.5109 8.58838 3.16853 8.29654 1.54258L8.0047 0L4.96124 0C2.54315 0 1.8344 0.125069 1.62594 0.66705L1.62594 0.66705ZM5.62835 3.75073C5.67004 3.87579 5.46158 7.12771 5.21144 11.0467C4.96129 14.924 4.62776 23.3873 4.46099 29.8078C4.33592 36.2283 4.04408 41.6481 3.83562 41.8983C3.0018 42.7738 3.62717 6.87757 4.54437 4.04257C4.75283 3.37549 5.54496 3.20874 5.62835 3.75073L5.62835 3.75073Z" transform="translate(15.988342 331.3836)" id="Shape" fill="#000000" fill-rule="evenodd" stroke="none" />
        </g>
      </g>
    </g>
  </g>
</svg>