<?xml version="1.0" encoding="utf-8"?>
<svg width="4995px" height="512px" viewBox="0 0 4995 512" version="1.1" xmlns:xlink="http://www.w3.org/1999/xlink" xmlns="http://www.w3.org/2000/svg">
  <path d="M4994.05 19.1317L4812.75 19.1317L4812.75 42.8186C4866.5 44.6406 4882.9 56.4841 4887.46 90.1922C4889.28 111.146 4892.92 145.765 4892.92 213.182L4892.92 367.146L4891.1 367.146L4591.37 19.1317L4465.65 19.1317L4465.65 42.8186C4498.45 45.5517 4514.85 51.9289 4529.42 69.2385C4544 87.4591 4544.91 96.5695 4544.91 148.498L4544.91 307.018C4544.91 374.434 4541.27 408.142 4538.53 432.74C4534.89 466.448 4516.67 477.381 4474.76 481.025L4474.76 504.712L4656.06 504.712L4656.06 481.025C4602.31 477.381 4587.73 465.537 4584.08 430.918C4582.26 408.142 4578.62 374.434 4578.62 307.018L4579.53 131.189L4580.44 131.189L4895.66 512L4926.63 512L4926.63 213.182C4926.63 145.765 4929.37 111.146 4933.01 88.3702C4936.65 54.662 4953.05 44.6406 4994.05 42.8186L4994.05 19.1317ZM4413.34 504.712L4413.34 481.025C4355.04 476.47 4347.75 471.004 4347.75 407.231L4347.75 115.701C4347.75 52.8399 4355.04 47.3737 4413.34 42.8186L4413.34 19.1317L4199.25 19.1317L4199.25 42.8186C4257.56 47.3737 4263.93 52.8399 4263.93 115.701L4263.93 407.231C4263.93 471.004 4256.64 476.47 4199.25 481.025L4199.25 504.712L4413.34 504.712ZM3629.48 19.1317L3629.48 42.8186C3684.14 48.2847 3691.43 51.9289 3691.43 115.701L3691.43 407.231C3691.43 471.004 3684.14 476.47 3623.1 481.025L3623.1 504.712L3808.95 504.712C3901.87 504.712 3979.31 485.58 4034.88 442.762C4092.28 399.032 4128.72 332.527 4128.72 243.246C4128.72 172.185 4100.48 118.434 4063.13 82.904C4015.75 37.3524 3943.78 19.1317 3849.03 19.1317L3629.48 19.1317ZM3775.24 98.3915C3775.24 73.7936 3777.97 62.8612 3784.35 56.484C3790.73 51.9288 3808.04 47.3737 3837.19 47.3737C3888.21 47.3737 3930.12 60.1281 3962 86.548C4007.55 121.167 4033.06 182.206 4033.06 256C4033.06 382.633 3964.74 474.648 3846.3 474.648C3793.46 474.648 3775.24 457.338 3775.24 402.676L3775.24 98.3915ZM3574.43 504.712L3574.43 481.025C3527.06 475.559 3517.04 466.448 3492.44 401.765C3444.16 272.399 3395.87 137.566 3349.41 7.28833L3316.61 15.4876L3162.65 402.676C3137.14 467.359 3128.03 474.648 3078.83 481.025L3078.83 504.712L3244.64 504.712L3244.64 481.025C3189.07 474.648 3185.42 465.537 3198.18 424.541C3208.2 394.477 3217.31 365.324 3228.24 337.082L3378.56 337.082C3392.23 374.434 3404.98 409.964 3413.18 435.473C3425.02 466.448 3419.56 473.737 3374.01 481.025L3374.01 504.712L3574.43 504.712ZM3366.72 301.552L3240.09 301.552C3261.04 244.157 3281.99 185.851 3303.86 127.545L3305.68 127.545L3366.72 301.552ZM3024.7 375.345C3011.04 411.786 2998.28 436.384 2983.71 450.961C2966.4 470.093 2939.98 475.559 2904.45 475.559C2877.11 475.559 2855.25 473.737 2840.67 467.359C2827.01 460.982 2823.36 446.406 2823.36 409.053L2823.36 115.701C2823.36 51.9289 2830.65 47.3737 2888.05 42.8186L2888.05 19.1317L2673.04 19.1317L2673.04 42.8186C2732.26 47.3737 2738.64 51.9289 2738.64 115.701L2738.64 407.231C2738.64 471.004 2731.35 476.47 2668.49 481.025L2668.49 504.712L3021.97 504.712C3028.35 482.847 3043.83 409.964 3049.3 381.722L3024.7 375.345ZM2621.65 504.712L2621.65 481.025C2574.27 475.559 2564.25 466.448 2539.65 401.765C2491.37 272.399 2443.08 137.566 2396.62 7.28833L2363.82 15.4876L2209.86 402.676C2184.35 467.359 2175.24 474.648 2126.04 481.025L2126.04 504.712L2291.85 504.712L2291.85 481.025C2236.28 474.648 2232.64 465.537 2245.39 424.541C2255.41 394.477 2264.52 365.324 2275.45 337.082L2425.77 337.082C2439.44 374.434 2452.19 409.964 2460.39 435.473C2472.24 466.448 2466.77 473.737 2421.22 481.025L2421.22 504.712L2621.65 504.712ZM2413.93 301.552L2287.3 301.552C2308.25 244.157 2329.21 185.851 2351.07 127.545L2352.89 127.545L2413.93 301.552ZM1697.48 19.1317L1697.48 42.8186C1751.23 47.3737 1757.61 51.9289 1757.61 115.701L1757.61 408.142C1757.61 471.004 1751.23 476.47 1692.93 481.936L1692.93 504.712L1913.4 504.712L1913.4 481.936C1847.8 476.47 1841.42 471.915 1841.42 408.142L1841.42 298.819L1894.26 312.484C1902.46 312.484 1915.22 312.484 1926.15 310.662C2002.68 302.463 2076.47 256 2076.47 156.698C2076.47 107.502 2057.34 71.9716 2024.54 48.2847C1994.48 27.331 1951.66 19.1317 1896.09 19.1317L1697.48 19.1317ZM1841.42 81.9928C1841.42 66.5052 1843.25 58.306 1848.71 53.7508C1853.27 49.1957 1865.11 45.5515 1882.42 45.5515C1935.26 45.5515 1984.46 76.5266 1984.46 159.431C1984.46 256.911 1925.24 279.687 1887.89 279.687C1867.84 279.687 1850.53 275.132 1841.42 271.487L1841.42 81.9928ZM1448.39 378.078C1435.63 409.964 1421.97 435.473 1409.21 450.961C1391.91 469.182 1367.31 474.648 1320.84 474.648C1288.05 474.648 1262.54 473.737 1247.96 466.448C1234.3 459.16 1229.74 440.94 1229.74 405.409L1229.74 271.488L1289.87 271.488C1354.55 271.488 1361.84 275.132 1371.86 328.883L1396.46 328.883L1396.46 181.295L1371.86 181.295C1361.84 232.313 1355.46 237.779 1289.87 237.779L1229.74 237.779L1229.74 73.7937C1229.74 50.1068 1232.47 48.2847 1258.89 48.2847L1304.45 48.2847C1350.91 48.2847 1370.95 53.7509 1382.79 69.2385C1394.64 82.904 1403.75 103.858 1410.13 132.1L1435.63 129.367C1432.9 85.6371 1429.26 34.6193 1428.35 19.1317L1083.98 19.1317L1083.98 42.8186C1138.64 47.3737 1145.93 51.0178 1145.93 116.612L1145.93 408.142C1145.93 470.093 1138.64 475.559 1073.04 481.025L1073.04 504.712L1446.57 504.712C1452.94 481.936 1468.43 412.698 1472.99 382.633L1448.39 378.078ZM1016.18 19.1317L802.999 19.1317L802.999 42.8186C860.394 48.2847 866.771 52.8399 866.771 114.79L866.771 229.58L639.013 229.58L639.013 114.79C639.013 52.8399 645.391 48.2847 700.963 42.8186L700.963 19.1317L488.693 19.1317L488.693 42.8186C547.91 48.2847 555.198 51.9289 555.198 114.79L555.198 408.142C555.198 471.915 547.91 475.559 490.515 481.025L490.515 504.712L702.786 504.712L702.786 481.025C645.391 475.559 639.013 471.004 639.013 408.142L639.013 265.11L866.771 265.11L866.771 408.142C866.771 471.004 860.394 475.559 798.444 481.025L798.444 504.712L1015.27 504.712L1015.27 481.025C956.963 475.559 950.586 471.915 950.586 409.053L950.586 114.79C950.586 52.8399 956.052 48.2847 1016.18 42.8186L1016.18 19.1317ZM433.651 140.299C430.007 93.8363 426.363 32.7971 425.452 0L408.142 0C396.299 14.5765 388.1 19.1316 368.057 19.1316L68.3274 19.1316C47.3737 19.1316 37.3523 17.3096 26.4199 0L9.11032 0C7.28826 40.0853 2.73309 91.1032 0 142.121L25.5089 142.121C34.6192 106.591 42.8185 82.9039 52.8398 70.1494C63.7722 56.484 77.4377 48.2847 139.388 48.2847L174.918 48.2847L174.918 408.142C174.918 470.092 167.63 476.47 102.036 481.025L102.036 504.712L334.349 504.712L334.349 481.025C266.021 476.47 259.644 469.181 259.644 408.142L259.644 48.2847L301.552 48.2847C351.658 48.2847 367.146 52.8398 379.9 69.2384C390.833 81.9929 400.854 103.858 409.053 141.21L433.651 140.299Z" id="THE-PALADIN" fill="#000000" stroke="none" />
</svg>