<?xml version="1.0" encoding="utf-8"?>
<svg width="4957.948px" height="512px" viewBox="0 0 4957.948 512" version="1.1" xmlns:xlink="http://www.w3.org/1999/xlink" xmlns="http://www.w3.org/2000/svg">
  <path d="M4626.68 51.8918L4552.65 460.108L4493.84 477.405C4491.07 485.708 4489.69 496.086 4491.07 505.081L4713.17 505.081C4715.94 496.778 4717.32 487.092 4715.94 477.405L4657.12 460.108L4684.8 307.892L4715.24 307.892L4816.95 505.081L4954.64 505.081C4957.41 496.778 4958.79 487.092 4957.41 477.405L4906.9 460.108L4819.03 291.287C4895.14 269.838 4947.03 215.87 4947.03 134.919C4947.03 19.373 4830.1 6.91895 4724.93 6.91895L4570.64 6.91895C4567.87 15.2217 4566.49 24.9082 4567.87 34.5945L4626.68 51.8918ZM4730.47 55.3513L4747.07 55.3513C4802.42 55.3513 4839.09 83.719 4839.09 139.07C4839.09 222.789 4770.59 260.843 4693.1 260.843L4730.47 55.3513ZM4020.58 505.081L4433.64 505.081L4450.25 386.076C4437.1 383.308 4423.96 383.308 4410.81 386.076L4378.98 455.265L4187.33 455.265L4221.23 267.762L4336.09 267.762L4345.08 325.189C4356.15 327.265 4366.53 327.265 4377.6 325.189L4399.05 174.357C4387.98 172.281 4377.6 172.281 4366.53 174.357L4345.77 217.946L4230.23 217.946L4259.29 56.7351L4422.57 56.7351L4432.26 122.465C4445.41 125.232 4458.55 125.232 4471.7 122.465L4487.61 6.91895L4100.15 6.91895C4097.38 15.2217 4096 24.9082 4097.38 34.5945L4156.19 51.8918L4082.16 460.108L4023.35 477.405C4020.58 485.708 4019.2 496.086 4020.58 505.081L4020.58 505.081ZM3877.36 51.8918L3846.92 217.254L3662.18 217.254L3692.63 51.8918L3751.44 34.5945C3754.21 26.2917 3755.59 16.6055 3754.21 6.91895L3532.11 6.91895C3529.34 15.2217 3527.96 24.9082 3529.34 34.5945L3588.15 51.8918L3514.12 460.108L3455.31 477.405C3452.54 485.708 3451.16 496.086 3452.54 505.081L3674.64 505.081C3677.41 496.778 3678.79 487.092 3677.41 477.405L3618.59 460.108L3653.19 267.07L3837.92 267.07L3803.33 460.108L3744.52 477.405C3741.75 485.708 3740.37 496.086 3741.75 505.081L3963.85 505.081C3966.62 496.778 3968 487.092 3966.62 477.405L3907.81 460.108L3981.84 51.8918L4040.65 34.5945C4043.42 26.2917 4044.8 16.6055 4043.42 6.91895L3821.32 6.91895C3818.55 15.2217 3817.17 24.9082 3818.55 34.5945L3877.36 51.8918ZM3442.16 42.2053C3398.57 15.2217 3343.91 0 3285.1 0C3176.48 0 3084.45 50.5081 3084.45 152.908C3084.45 302.357 3305.17 286.443 3305.17 376.389C3305.17 438.66 3247.74 460.8 3189.62 460.8C3157.1 460.8 3124.58 453.881 3102.44 442.811L3087.91 348.713C3074.77 345.946 3061.62 345.946 3048.48 348.713L3031.87 456.648C3074.77 494.011 3138.42 512 3203.46 512C3303.09 512 3414.49 466.335 3414.49 353.557C3414.49 204.8 3192.39 226.94 3192.39 129.384C3192.39 69.1892 3242.21 49.8162 3293.41 49.8162C3322.47 49.8162 3352.22 56.0432 3374.36 64.3459L3387.5 145.297C3399.96 148.065 3413.79 148.065 3426.94 145.297L3442.16 42.2053ZM2991.05 51.8918L3046.4 34.5945C3049.17 26.2917 3050.55 16.6055 3049.17 6.91895L2883.81 6.91895C2881.04 14.5298 2879.65 24.9082 2881.04 34.5945L2939.85 51.8918L2892.8 303.049C2876.19 390.227 2847.14 449.038 2758.57 449.038C2691.46 449.038 2674.16 398.53 2674.16 343.87C2674.16 321.038 2676.93 295.438 2681.77 270.53L2721.9 51.8918L2780.71 34.5945C2783.48 26.2917 2784.86 16.6055 2783.48 6.91895L2561.38 6.91895C2558.62 15.2217 2557.23 24.9082 2558.62 34.5945L2617.43 51.8918L2578.68 265.687C2573.84 293.362 2570.38 321.729 2570.38 346.638C2570.38 442.811 2612.58 511.308 2732.97 511.308C2868.58 511.308 2919.09 435.892 2944.69 299.589L2991.05 51.8918ZM2191.91 51.8918L2117.19 460.8L2061.15 477.405C2058.38 485.708 2056.99 496.086 2058.38 505.081L2440.3 505.081L2457.6 379.157C2450.68 377.773 2443.76 377.081 2436.84 377.081C2429.92 377.081 2423.7 377.773 2416.78 379.157L2384.26 455.265L2223.05 455.265L2296.39 51.8918L2355.2 34.5945C2357.97 26.2917 2359.35 16.6055 2357.97 6.91895L2135.87 6.91895C2133.1 15.2217 2131.72 24.9082 2133.1 34.5945L2191.91 51.8918ZM1752.56 51.8918L1678.53 460.108L1619.72 477.405C1616.95 485.708 1615.57 496.086 1616.95 505.081L1839.05 505.081C1841.82 496.778 1843.2 487.092 1841.82 477.405L1783.01 460.108L1814.14 288.519L1932.45 288.519L1941.45 345.946C1952.52 348.021 1962.9 348.021 1973.97 345.946L1995.42 195.113C1984.35 193.038 1973.97 193.038 1962.9 195.113L1942.14 238.703L1823.14 238.703L1855.65 56.7351L2015.48 56.7351L2025.17 122.465C2038.31 125.232 2051.46 125.232 2064.61 122.465L2080.52 6.91895L1696.52 6.91895C1693.75 15.2217 1692.37 24.9082 1693.75 34.5945L1752.56 51.8918ZM963.114 505.081L1376.17 505.081L1392.78 386.076C1379.63 383.308 1366.49 383.308 1353.34 386.076L1321.51 455.265L1129.86 455.265L1163.76 267.762L1278.62 267.762L1287.61 325.189C1298.68 327.265 1309.06 327.265 1320.13 325.189L1341.58 174.357C1330.51 172.281 1320.13 172.281 1309.06 174.357L1288.3 217.946L1172.76 217.946L1201.82 56.7351L1365.1 56.7351L1374.79 122.465C1387.94 125.232 1401.08 125.232 1414.23 122.465L1430.14 6.91895L1042.68 6.91895C1039.91 15.2217 1038.53 24.9082 1039.91 34.5945L1098.72 51.8918L1024.69 460.108L965.881 477.405C963.114 485.708 961.73 496.086 963.114 505.081L963.114 505.081ZM819.892 51.8918L789.449 217.254L604.714 217.254L635.157 51.8918L693.968 34.5945C696.735 26.2917 698.119 16.6055 696.735 6.91895L474.638 6.91895C471.87 15.2217 470.486 24.9082 471.87 34.5945L530.681 51.8918L456.649 460.108L397.838 477.405C395.07 485.708 393.687 496.086 395.07 505.081L617.168 505.081C619.935 496.778 621.319 487.092 619.935 477.405L561.124 460.108L595.719 267.07L780.454 267.07L745.859 460.108L687.049 477.405C684.281 485.708 682.897 496.086 684.281 505.081L906.378 505.081C909.146 496.778 910.53 487.092 909.146 477.405L850.335 460.108L924.368 51.8918L983.178 34.5945C985.946 26.2917 987.33 16.6055 985.946 6.91895L763.849 6.91895C761.081 15.2217 759.697 24.9082 761.081 34.5945L819.892 51.8918ZM0 128.692C13.146 131.459 26.292 131.459 39.4377 128.692L70.573 56.7351L164.67 56.7351L92.0216 460.108L33.2109 477.405C30.4434 485.708 29.0596 496.086 30.4434 505.081L252.541 505.081C255.308 496.778 256.692 487.092 255.308 477.405L196.497 460.108L269.146 56.7351L363.243 56.7351L373.622 128.692C386.768 131.459 399.914 131.459 413.06 128.692L433.124 6.91895L15.9136 6.91895L0 128.692Z" id="THE-FLUSHER" fill="#000000" stroke="none" />
</svg>