<?xml version="1.0" encoding="utf-8"?>
<svg width="4818.824px" height="512px" viewBox="0 0 4818.824 512" version="1.1" xmlns:xlink="http://www.w3.org/1999/xlink" xmlns="http://www.w3.org/2000/svg">
  <path d="M4818.82 19.1658L4642.68 19.1658L4642.68 39.2441C4693.79 41.9822 4712.04 51.1088 4716.61 85.7897C4719.34 106.781 4721.17 140.549 4721.17 209.911L4721.17 400.656L4719.34 400.656L4401.74 19.1658L4294.05 19.1658L4294.05 39.2441C4330.55 41.9822 4346.07 48.3707 4361.58 66.6239C4375.27 84.877 4376.19 85.7897 4376.19 142.374L4376.19 307.565C4376.19 376.927 4375.27 413.433 4372.54 436.25C4367.97 474.581 4348.81 482.795 4305.91 485.533L4305.91 505.611L4482.97 505.611L4482.97 485.533C4432.77 482.795 4414.52 474.581 4410.87 435.337C4409.04 413.433 4406.3 376.927 4406.3 307.565L4406.3 117.733L4408.13 117.733L4730.3 512L4751.29 512L4751.29 209.911C4751.29 140.549 4752.2 106.781 4754.94 83.0516C4758.59 51.1088 4776.84 41.0696 4818.82 39.2441L4818.82 19.1658ZM4249.33 505.611L4249.33 485.533C4187.27 480.97 4181.79 477.319 4181.79 412.521L4181.79 111.344C4181.79 48.3707 4187.27 43.8075 4249.33 39.2441L4249.33 19.1658L4054.02 19.1658L4054.02 39.2441C4116.08 43.8075 4122.47 48.3707 4122.47 111.344L4122.47 412.521C4122.47 477.319 4116.08 480.97 4054.02 485.533L4054.02 505.611L4249.33 505.611ZM3507.34 19.1658L3507.34 39.2441C3566.66 43.8075 3573.05 46.5454 3573.05 111.344L3573.05 413.433C3573.05 477.319 3566.66 481.882 3500.95 485.533L3500.95 505.611L3678 505.611C3770.18 505.611 3844.11 486.446 3900.69 443.551C3958.19 399.743 3992.87 332.207 3992.87 243.679C3992.87 173.405 3966.4 118.645 3929.9 82.139C3883.35 38.3315 3813.08 19.1658 3717.25 19.1658L3507.34 19.1658ZM3632.37 94.9163C3632.37 64.7986 3635.11 56.5847 3641.5 52.9341C3649.71 46.5454 3669.79 42.8948 3702.65 42.8948C3752.84 42.8948 3796.65 52.0214 3831.33 72.0999C3895.22 106.781 3925.33 175.23 3925.33 253.718C3925.33 371.451 3860.54 479.144 3713.6 479.144C3658.84 479.144 3632.37 466.367 3632.37 407.957L3632.37 94.9163ZM3462.62 505.611L3462.62 485.533C3414.25 480.97 3403.29 474.581 3380.48 409.783C3332.11 279.273 3281 135.986 3234.45 7.30127L3213.46 13.6898L3057.4 407.957C3030.93 474.581 3020.89 478.232 2972.52 485.533L2972.52 505.611L3135.89 505.611L3135.89 485.533C3078.39 480.057 3072 472.756 3089.34 424.385C3098.47 392.442 3110.33 361.412 3123.11 325.818L3285.56 325.818C3302.9 374.189 3318.42 415.259 3327.54 445.376C3337.58 473.668 3330.28 479.144 3281.91 485.533L3281.91 505.611L3462.62 505.611ZM3275.52 294.788L3134.06 294.788C3156.88 231.815 3181.52 165.191 3206.16 99.4795L3207.99 99.4795L3275.52 294.788ZM2925.98 386.053C2915.02 419.822 2900.42 443.551 2887.64 458.153C2870.3 477.319 2845.66 480.97 2802.77 480.97C2769.91 480.97 2743.44 479.144 2728.84 470.931C2715.15 462.717 2711.5 448.114 2711.5 407.045L2711.5 111.344C2711.5 46.5454 2717.89 42.8948 2778.13 39.2441L2778.13 19.1658L2586.47 19.1658L2586.47 39.2441C2647.62 43.8075 2652.18 47.4581 2652.18 111.344L2652.18 411.608C2652.18 475.494 2645.79 480.97 2583.73 485.533L2583.73 505.611L2920.5 505.611C2927.8 481.882 2943.32 411.608 2946.97 388.792L2925.98 386.053ZM2541.75 505.611L2541.75 485.533C2493.38 480.97 2482.42 474.581 2459.61 409.783C2411.24 279.273 2360.13 135.986 2313.58 7.30127L2292.59 13.6898L2136.53 407.957C2110.06 474.581 2100.02 478.232 2051.65 485.533L2051.65 505.611L2215.02 505.611L2215.02 485.533C2157.52 480.057 2151.13 472.756 2168.47 424.385C2177.6 392.442 2189.46 361.412 2202.24 325.818L2364.69 325.818C2382.03 374.189 2397.55 415.259 2406.67 445.376C2416.71 473.668 2409.41 479.144 2361.04 485.533L2361.04 505.611L2541.75 505.611ZM2354.65 294.788L2213.19 294.788C2236.01 231.815 2260.65 165.191 2285.29 99.4795L2287.12 99.4795L2354.65 294.788ZM1651.91 19.1658L1651.91 39.2441C1707.58 42.8948 1713.97 44.7201 1713.97 111.344L1713.97 412.521C1713.97 474.581 1707.58 480.97 1647.34 485.533L1647.34 505.611L1847.22 505.611L1847.22 485.533C1778.77 480.97 1772.38 477.319 1772.38 413.433L1772.38 293.875L1828.96 308.478C1836.26 309.39 1851.78 309.39 1862.73 308.478C1935.74 299.351 2007.84 251.893 2007.84 155.151C2007.84 106.781 1989.59 72.0999 1961.3 50.196C1931.18 27.3796 1887.37 19.1658 1835.35 19.1658L1651.91 19.1658ZM1772.38 88.5276C1772.38 64.7986 1775.12 56.5847 1780.59 51.1088C1786.07 45.6328 1803.41 41.9822 1824.4 41.9822C1889.2 41.9822 1940.31 77.5758 1940.31 157.89C1940.31 252.806 1880.98 279.273 1828.96 279.273C1803.41 279.273 1782.42 273.797 1772.38 270.146L1772.38 88.5276ZM1400.93 385.141C1390.89 414.346 1376.29 440.813 1364.42 455.415C1347.99 474.581 1327.91 480.97 1267.68 480.97C1230.26 480.97 1203.79 480.97 1188.28 470.018C1175.5 461.804 1170.94 445.376 1170.94 410.695L1170.94 267.408L1244.86 267.408C1310.57 267.408 1315.14 272.884 1325.18 325.818L1346.17 325.818L1346.17 182.531L1325.18 182.531C1316.05 232.727 1313.31 240.029 1243.95 240.029L1170.94 240.029L1170.94 67.5365C1170.94 45.6328 1171.85 43.8075 1193.75 43.8075L1254.9 43.8075C1310.57 43.8075 1330.65 48.3707 1340.69 65.7112C1349.82 82.139 1357.12 97.6542 1363.51 129.597L1385.41 126.859C1382.67 89.4403 1379.94 38.3315 1379.02 19.1658L1046.82 19.1658L1046.82 39.2441C1105.23 44.7201 1111.62 46.5454 1111.62 114.082L1111.62 412.521C1111.62 474.581 1105.23 480.057 1037.69 485.533L1037.69 505.611L1396.36 505.611C1402.75 481.882 1418.27 411.608 1421.92 387.879L1400.93 385.141ZM986.581 19.1658L794.011 19.1658L794.011 39.2441C853.333 43.8075 859.722 48.3707 859.722 110.431L859.722 231.815L595.964 231.815L595.964 110.431C595.964 48.3707 602.353 43.8075 658.938 39.2441L658.938 19.1658L469.105 19.1658L469.105 39.2441C531.166 43.8075 536.642 47.4581 536.642 110.431L536.642 414.346C536.642 477.319 531.166 480.97 470.018 485.533L470.018 505.611L663.501 505.611L663.501 485.533C601.44 480.97 595.964 476.406 595.964 414.346L595.964 263.758L859.722 263.758L859.722 414.346C859.722 477.319 853.333 480.97 788.535 485.533L788.535 505.611L985.669 505.611L985.669 485.533C924.521 480.97 918.132 477.319 918.132 414.346L918.132 110.431C918.132 48.3707 924.521 43.8075 986.581 39.2441L986.581 19.1658ZM421.647 131.422C417.997 88.5276 414.346 34.6809 414.346 0L398.831 0C386.966 14.6024 381.49 19.1658 361.412 19.1658L64.7986 19.1658C43.8076 19.1658 34.6809 17.3405 22.8164 0L9.12646 0C7.30127 41.0696 3.65063 89.4403 0 133.248L20.9912 133.248C30.1177 101.305 35.5935 80.3137 43.8076 67.5365C53.8467 49.2834 68.4492 43.8075 131.422 43.8075L181.619 43.8075L181.619 414.346C181.619 473.668 175.23 481.882 106.781 485.533L106.781 505.611L317.604 505.611L317.604 485.533C245.505 481.882 240.029 472.756 240.029 414.346L240.029 43.8075L295.701 43.8075C354.111 43.8075 365.063 49.2834 377.84 68.4492C386.053 80.3137 392.442 98.5669 399.743 133.248L421.647 131.422Z" id="THE-PALADIN" fill="currentColor" stroke="none" />
</svg>