<?xml version="1.0" encoding="utf-8"?>
<svg width="200px" height="512px" viewBox="0 0 200 512" version="1.1" xmlns:xlink="http://www.w3.org/1999/xlink" xmlns="http://www.w3.org/2000/svg">
  <desc>Created with Lunacy</desc>
  <g id="paladin-news-tower">
    <path d="M97.0993 0.569594C96.8812 0.951313 96.554 4.82333 96.4449 9.18614C96.2268 17.9663 95.736 19.6569 92.1367 23.3107C91.155 24.3469 90.1734 25.8194 89.9552 26.5283C89.628 27.8372 90.0098 31.8727 90.6642 34.1087C91.155 35.9629 89.519 36.0719 79.1028 35.1448C56.9616 33.0725 49.8175 32.5817 49.4903 33.0725C49.3267 33.3452 47.7997 34.3814 46.1636 35.4175C44.5276 36.3991 41.6917 38.2533 39.8921 39.4531C34.275 43.3251 16.8238 55.1047 8.09816 60.9399C-0.791051 66.8843 -1.55454 67.8659 1.9357 68.793C2.97187 69.0657 4.44431 69.7201 5.15327 70.32C5.91676 70.8654 6.78932 71.3562 7.06199 71.3562C7.38921 71.3562 10.6613 72.8286 14.2606 74.5737C17.9145 76.3734 21.5138 78.0095 22.3318 78.1731L23.8043 78.5548L23.8043 87.3895C23.7497 92.1886 23.5316 100.096 23.2589 104.895C22.8226 113.13 22.3318 122.074 21.0775 148.251C20.8048 154.413 20.314 164.229 19.9868 170.065C19.7141 175.9 19.0052 191.388 18.3507 204.422C17.7509 217.456 16.8783 234.525 16.3875 242.324C15.9512 250.122 15.3513 262.12 15.0786 269.046C14.5333 283.061 13.3335 308.257 12.0247 331.052C11.5884 339.342 10.9885 351.994 10.7158 359.138C10.4432 366.282 9.95235 376.044 9.62514 380.843C9.29793 385.642 8.80712 395.349 8.53444 402.384C8.26177 409.419 7.77095 418.527 7.44374 422.562C7.17106 426.598 6.68025 436.196 6.35304 443.831C6.08036 451.466 5.48048 463.627 5.0442 470.826C4.60792 478.025 3.9535 489.204 3.62629 495.639C3.29908 502.075 2.91733 508.401 2.80826 509.655L2.53559 512L4.77152 512C6.84385 512 7.00746 511.891 6.73478 510.8C6.51664 510.146 6.62571 507.255 6.89839 504.365C7.17106 501.475 7.66188 493.022 7.98909 485.55C8.26177 478.025 8.80712 467.717 9.07979 462.646C9.57061 454.629 10.0614 445.085 11.6429 412.855C11.9701 406.638 12.0247 406.202 13.0608 406.202C13.6607 406.202 16.1693 405.711 18.5689 405.111C28.7124 402.493 31.4937 401.894 37.5471 400.694C41.0373 399.985 44.0913 399.549 44.2549 399.712C44.5821 400.094 43.5459 429.925 43.1642 431.124C43.0006 431.561 42.019 431.833 40.8192 431.833C39.6194 431.833 37.6016 431.997 36.2382 432.161L33.7842 432.488L33.457 445.413C33.2934 452.502 32.748 461.446 32.3117 465.372C31.8209 469.244 31.4392 476.879 31.4392 482.224L31.4392 491.986L36.0746 491.604L40.7101 491.277L40.7101 497.821L40.7101 504.365L42.5098 504.365L44.364 504.365L44.6912 494.985C44.9093 489.804 45.4001 477.425 45.8364 467.554C46.2727 457.628 46.9271 438.268 47.3089 424.471C47.6361 410.674 48.1269 399.221 48.2905 399.003C48.4541 398.785 54.5075 398.84 61.7061 399.112C79.5936 399.821 104.025 400.639 125.239 401.294C135.001 401.566 146.235 402.003 150.216 402.166L157.47 402.493L157.306 414.6L157.142 426.653L158.942 426.816C160.687 426.98 160.687 426.98 160.687 424.635C160.687 423.326 160.905 414.818 161.233 405.656C162.16 377.571 163.414 334.87 164.232 302.858C164.668 286.061 165.268 263.592 165.595 252.958C165.923 242.324 166.522 221.055 166.959 205.785C167.395 190.461 168.159 163.466 168.595 145.797C169.031 128.073 169.631 105.986 169.958 96.715C170.231 87.3895 170.558 77.246 170.667 74.192C170.776 68.6294 170.776 68.5203 172.467 67.1024C173.939 65.7936 190.136 54.014 197.226 48.9968C200.88 46.4336 200.77 45.7247 196.789 45.7247C195.044 45.7247 191.718 45.5065 189.318 45.1793C184.519 44.634 166.195 42.8888 151.689 41.6345C146.617 41.1983 137.401 40.3257 131.238 39.7258C125.076 39.1259 116.896 38.3624 112.969 38.0352C109.097 37.6535 105.607 37.1626 105.28 36.89C104.571 36.3991 105.007 33.7269 106.043 31.7091C107.188 29.6368 106.807 26.6374 105.28 24.5651C104.462 23.5289 103.098 21.2384 102.28 19.4933C100.917 16.712 100.699 15.5668 100.644 11.2039C100.59 8.47719 100.426 4.82333 100.262 3.18727C99.9352 0.678638 99.717 0.187841 98.6809 0.0242427C98.081 -0.0848342 97.3175 0.187841 97.0993 0.569594L97.0993 0.569594ZM100.481 24.8377C102.389 26.4192 102.88 27.2373 102.88 28.5461C102.88 30.782 99.6625 33.727 97.2629 33.727C95.7905 33.727 94.0454 31.6546 93.7727 29.4187C93.5 27.5645 93.7182 26.9646 95.2997 25.0558C96.3358 23.8561 97.372 22.8199 97.5901 22.8199C97.8628 22.8199 99.1171 23.747 100.481 24.8377L100.481 24.8377ZM98.6809 35.1448C99.3353 35.7992 98.3537 36.999 97.1539 36.999C95.5723 36.999 94.8089 35.9628 95.845 35.3084C96.7176 34.7631 98.1901 34.654 98.6809 35.1448L98.6809 35.1448ZM64.9782 37.8171C69.1774 38.2533 76.1579 38.9078 80.5207 39.1804C84.8835 39.4531 91.7549 40.053 95.7905 40.5438C109.206 42.0163 124.912 43.4887 130.42 43.8159C135.819 44.1431 138.764 44.4158 163.959 47.0335C170.994 47.797 179.556 48.5605 182.937 48.7786C186.264 48.9968 189.045 49.324 189.045 49.5966C189.045 49.8693 188.5 50.4147 187.791 50.8509C186.755 51.5599 185.173 51.6144 177.048 51.1782C171.812 50.9055 163.468 50.3056 158.506 49.8693C153.543 49.433 145.69 48.8332 141.055 48.4514C136.419 48.1242 130.42 47.6334 127.693 47.3607C125.021 47.088 118.968 46.5972 114.332 46.27C109.697 45.9428 102.826 45.452 99.0626 45.1248C95.2997 44.8521 87.7738 44.2522 82.3203 43.8159C76.8123 43.3797 71.577 42.8888 70.5953 42.7252C69.6137 42.5616 65.9053 42.2344 62.306 41.9617C58.7612 41.689 55.6527 41.2528 55.4346 40.9801C55.2164 40.7619 54.8347 39.7258 54.6165 38.7442C54.1803 36.6173 53.9076 36.6718 64.9782 37.8171L64.9782 37.8171ZM50.7991 38.9078C50.9627 39.6712 51.1808 40.871 51.3444 41.58C51.5626 42.6707 51.1808 43.1615 48.9994 44.4158C46.9816 45.6156 27.6217 58.2677 13.8789 67.4296C12.2428 68.4658 11.4248 68.6839 9.89781 68.4112C8.86164 68.1931 7.93455 67.8114 7.93455 67.5387C7.88001 67.2115 7.82548 66.7752 7.77094 66.5025C7.7164 66.2298 15.4604 60.8854 24.8949 54.5593C34.3295 48.2333 43.8186 41.8526 45.8909 40.3257C48.0178 38.8532 49.872 37.5989 50.0901 37.5444C50.3082 37.5444 50.6355 38.1443 50.7991 38.9078L50.7991 38.9078ZM66.6143 46.27C69.6137 46.5427 75.8852 47.0335 80.5207 47.3607C85.1561 47.6879 94.1544 48.4514 100.426 48.9968C113.569 50.1966 130.911 51.6144 141.6 52.2689C145.635 52.5416 152.889 53.1414 157.688 53.5777C162.487 54.014 169.794 54.5594 173.939 54.7775C180.374 55.1047 181.301 55.2683 180.756 55.9227C179.829 57.0134 172.139 62.0852 171.376 62.0852C170.831 62.0852 165.377 61.5398 148.689 59.9038C145.854 59.6311 137.51 58.8131 130.147 58.0496C122.785 57.2861 113.842 56.4135 110.242 56.0863C106.643 55.7591 100.044 55.1592 95.5178 54.723C91.0459 54.2867 84.5017 53.6868 81.066 53.3596C65.6872 51.9962 62.1424 51.5599 60.4518 50.9055C58.7067 50.142 57.616 48.3424 57.616 46.2155C57.616 45.2884 57.8887 45.1793 59.4156 45.3974C60.3427 45.5611 63.6148 45.9428 66.6143 46.27L66.6143 46.27ZM53.8531 47.9606C54.0712 48.6695 54.2348 50.0874 54.2894 51.0145C54.3439 52.6506 54.0712 52.9233 51.2354 54.4502C49.4903 55.3773 46.5999 57.0679 44.8003 58.2131C43.0006 59.3584 40.1648 61.049 38.5287 61.9215C34.1114 64.3756 26.6401 68.8475 23.6952 70.7562C20.9685 72.5013 19.0052 72.8285 17.2055 71.9014C15.6786 71.0289 15.8967 70.429 18.1872 69.2292C21.1321 67.7568 48.2905 49.7057 50.4174 47.797C52.4897 45.9973 53.3077 46.0518 53.8531 47.9606L53.8531 47.9606ZM66.6143 55.5955L69.341 55.6501L67.1596 56.1409C63.5058 56.9044 61.4334 56.7408 61.4334 55.7591C61.4334 55.1047 61.7606 54.9411 62.6877 55.2138C63.3422 55.3774 65.1418 55.541 66.6143 55.5955L66.6143 55.5955ZM55.9799 57.1225C55.7072 57.7224 54.8892 58.3768 54.2348 58.5949C53.5258 58.8131 51.8898 59.7402 50.5264 60.6673C47.8542 62.4669 36.8926 69.1748 36.5654 69.1748C36.4563 69.1748 34.2204 70.4836 31.5482 72.0651C25.7129 75.5554 24.8949 75.9371 24.8949 74.9555C24.8949 74.5192 29.2577 71.6833 34.6022 68.6294C39.8921 65.5754 44.9093 62.576 45.7273 62.0306C46.5453 61.4308 47.3634 60.9945 47.5815 60.9945C47.7996 60.9945 48.3995 60.6127 48.8903 60.1765C49.9265 59.2494 55.4891 56.0863 56.1435 56.0863C56.3616 56.0863 56.3071 56.5771 55.9799 57.1225L55.9799 57.1225ZM90.8824 58.2678C89.9008 58.9222 81.775 58.9222 80.248 58.2678C79.5391 57.9951 81.4478 57.777 85.4289 57.777C89.6826 57.7224 91.4277 57.886 90.8824 58.2678L90.8824 58.2678ZM113.787 60.5037C113.787 60.9399 112.478 60.9945 109.642 60.8309C104.025 60.3946 103.862 59.9038 109.315 59.9038C112.206 59.9038 113.787 60.1219 113.787 60.5037L113.787 60.5037ZM72.3949 61.3217C78.1756 61.758 83.0838 62.2488 83.3019 62.3579C83.4655 62.5215 87.6647 62.8487 92.5729 63.1759C97.481 63.5031 103.044 63.994 104.952 64.3212C106.807 64.5938 112.096 65.0847 116.677 65.3573C121.258 65.63 129.002 66.2299 133.965 66.7207C152.725 68.4113 155.288 68.6294 160.96 69.0112L166.85 69.3384L166.522 79.7546C166.304 85.4808 165.922 103.314 165.595 119.347C165.268 135.38 164.941 149.396 164.886 150.432L164.723 152.341L160.633 152.177C156.052 152.014 143.236 151.032 139.146 150.487C136.528 150.159 136.419 150.105 136.583 148.523C136.855 145.688 137.837 143.397 138.819 143.07C140.127 142.688 140.291 140.888 141.382 111.276C142.472 82.3177 142.254 80.2454 137.673 75.7735C134.947 73.1013 133.038 72.2833 129.057 72.2288C123.603 72.1742 119.895 74.7919 117.168 80.6272L115.75 83.6266L115.369 111.985C115.096 127.582 115.096 140.507 115.314 140.725C115.532 140.888 116.187 141.161 116.786 141.27C117.659 141.434 117.986 142.088 118.368 144.87C118.641 146.724 118.695 148.414 118.532 148.578C118.368 148.742 114.714 148.687 110.406 148.414L102.607 147.978L102.607 144.76C102.662 141.652 103.207 140.616 105.225 139.907C105.988 139.689 106.534 131.454 107.243 109.531C108.061 83.7902 107.952 80.0273 105.988 76.7006C99.826 66.1754 85.756 68.0295 82.4294 79.8091C81.884 81.7724 81.4477 88.971 81.0115 104.895C80.6297 117.166 80.248 129.654 80.1389 132.545C79.9208 137.507 79.9753 137.889 80.9024 137.889C82.8657 137.889 83.7382 139.143 84.12 142.634L84.5017 146.069L80.4661 146.069C78.2302 146.069 72.3404 145.797 67.3232 145.415L58.1613 144.76L58.1613 138.98C58.1613 135.817 58.434 128.236 58.7067 122.128C59.3611 109.367 60.8881 67.5933 60.8881 63.285C60.8881 61.758 61.1062 60.4492 61.3789 60.4492C61.6516 60.4492 66.6142 60.8309 72.3949 61.3217L72.3949 61.3217ZM56.5798 77.7368C55.8163 89.7345 54.9983 93.0611 54.9437 84.0629C54.8892 78.0095 54.8892 77.9004 53.1986 75.9917C52.1624 74.8464 51.0172 74.0829 50.2537 74.0829C48.4541 74.0829 45.8364 76.4825 45.3456 78.5548C44.6366 81.7178 44.2003 130.254 44.8548 130.254C46 130.254 46.5999 140.943 45.6182 142.852C45.0729 143.779 45.2365 143.888 46.6544 143.888C47.5815 143.888 48.9449 143.288 49.872 142.525C50.7991 141.761 51.7807 141.161 52.1079 141.161C53.1986 141.161 53.7985 138.543 53.7985 134.017L53.7985 129.6L51.3444 129.818C48.3995 130.036 48.0178 129.054 50.9081 128.454C51.9988 128.236 53.1441 127.745 53.3622 127.364C53.5804 127.037 53.853 123.873 53.9076 120.438C53.9621 115.148 54.0712 115.802 54.3984 124.801C54.6165 130.799 54.562 137.071 54.2893 139.252C54.0166 141.325 53.744 143.615 53.6894 144.324C53.5258 145.36 51.1808 146.669 38.965 152.723C30.9483 156.649 24.2405 159.812 24.1314 159.648C24.0224 159.539 24.1314 157.467 24.3496 155.068C24.6223 152.668 25.1131 143.343 25.3857 134.344C25.713 125.346 26.2583 114.548 26.531 110.349C26.8582 106.15 27.2945 97.4785 27.5671 91.0433C27.9489 79.5365 28.0034 79.3728 29.3123 78.3367C30.0212 77.7368 35.0384 74.6828 40.4374 71.5198C45.8364 68.4113 51.0172 65.2482 51.8898 64.5938C52.8169 63.8849 54.2893 62.9578 55.1619 62.467L56.7979 61.6489L56.9615 64.7029C57.0706 66.448 56.907 72.2833 56.5798 77.7368L56.5798 77.7368ZM99.0626 75.0101C101.517 76.7006 102.826 78.6639 103.48 81.6088C104.134 84.8264 103.48 120.002 102.716 120.765C102.389 121.092 95.6269 120.547 87.3921 119.511L84.7199 119.184L85.1562 101.296C85.3743 91.4797 85.7561 82.5359 85.9742 81.4452C86.5196 78.9911 88.4283 76.1008 90.2825 74.9555C92.1912 73.8103 97.3175 73.8103 99.0626 75.0101L99.0626 75.0101ZM132.274 76.537C134.947 77.9004 137.619 81.4452 138.001 84.2264C138.328 86.5714 137.401 123.219 136.965 123.601C136.746 123.819 122.404 122.674 120.495 122.292L119.241 122.074L119.241 105.004C119.241 95.0244 119.513 86.5714 119.84 84.6627C120.549 80.7362 122.404 78.1185 125.458 76.7551C128.184 75.5008 130.257 75.4463 132.274 76.537L132.274 76.537ZM51.0717 100.805C51.0717 120.492 50.9627 124.255 50.3082 124.255C49.872 124.255 49.3812 123.873 49.2175 123.383C48.7813 122.237 48.7813 78.173 49.2721 77.7368C49.4357 77.5186 49.9265 77.355 50.3628 77.355C50.9627 77.355 51.0717 81.6087 51.0717 100.805L51.0717 100.805ZM97.0448 129.109C99.717 129.382 102.117 129.818 102.444 130.145C102.771 130.472 102.826 131.727 102.498 133.581C102.062 136.362 101.953 136.526 100.262 136.689C98.5173 136.853 98.5173 136.908 98.5173 139.852L98.5173 142.797L93.391 142.797L88.2647 142.797L87.8284 139.198C87.5012 135.871 87.3376 135.49 85.9742 134.999C84.3927 134.399 83.7928 132.926 83.7928 129.545L83.7928 127.909L88.0465 128.291C90.337 128.509 94.4271 128.836 97.0448 129.109L97.0448 129.109ZM129.548 131.89C133.856 132.163 136.474 132.599 136.746 133.035C137.183 133.744 136.801 136.798 136.092 138.816C135.819 139.58 135.165 140.07 134.565 140.07C133.638 140.07 133.365 140.561 133.092 142.797C132.874 144.324 132.602 145.633 132.383 145.742C132.22 145.851 129.984 145.797 127.421 145.578L122.785 145.251L122.513 141.434C122.24 137.78 122.185 137.616 120.768 137.453C119.513 137.289 119.295 137.016 119.132 134.726C118.968 133.308 118.968 131.999 119.077 131.727C119.35 131.236 121.095 131.236 129.548 131.89L129.548 131.89ZM78.0666 150.16C84.3927 150.596 93.2274 151.196 97.6993 151.523C102.226 151.85 108.606 152.341 111.878 152.614C115.205 152.941 122.24 153.432 127.53 153.704C132.874 154.031 137.51 154.359 137.892 154.522C138.273 154.631 144.327 155.122 151.362 155.613C158.397 156.049 164.232 156.54 164.341 156.595C164.396 156.704 164.232 164.011 163.959 172.846C163.687 181.681 163.305 198.15 163.087 209.494C162.814 224.927 162.596 230.217 162.051 230.381C161.723 230.544 157.851 230.381 153.543 230.053C149.235 229.726 140.891 229.235 135.056 228.963C129.221 228.69 120.986 228.199 116.787 227.872C112.587 227.599 104.134 227.054 97.9719 226.781C87.0649 226.236 72.4495 225.418 60.8881 224.709L55.1619 224.327L55.3255 214.511C55.5437 203.658 56.8525 165.975 57.3979 155.449L57.7796 148.742L62.1969 149.069C64.651 149.232 71.7951 149.723 78.0666 150.16L78.0666 150.16ZM53.2531 173.064C52.9259 183.862 52.326 195.914 51.8898 199.786C51.3989 203.713 51.0172 210.966 50.9627 215.983L50.9081 225.036L45.9454 226.945C40.0557 229.235 31.93 232.453 25.2222 235.179L20.3685 237.143L20.7503 232.889C21.0775 228.526 21.7865 211.184 22.7135 182.662C23.3134 164.502 23.368 164.229 26.6401 162.975C30.6211 161.394 49.0539 152.45 50.9627 151.195L52.9805 149.832L53.3622 151.632C53.5803 152.613 53.5258 162.266 53.2531 173.064L53.2531 173.064ZM74.7945 229.508C81.1206 229.835 91.2641 230.435 97.4266 230.871C103.589 231.253 111.66 231.744 115.423 231.962C124.476 232.344 157.033 234.416 160.087 234.798L162.432 235.07L162.105 240.851C161.942 244.069 161.505 259.066 161.178 274.227C160.851 289.387 160.415 301.931 160.251 302.094C159.869 302.476 149.508 302.04 133.147 301.003C128.075 300.731 121.695 300.349 118.968 300.24C113.405 300.022 114.005 300.676 114.223 294.677C114.332 292.005 114.114 292.169 119.35 290.315C123.058 289.006 126.494 286.17 129.166 282.08L131.511 278.535L136.419 278.862C144.654 279.408 143.781 278.099 143.618 289.66L143.509 299.586L145.145 299.586L146.781 299.586L147.163 290.86C147.381 286.061 147.926 274.009 148.417 264.138C149.562 240.033 149.508 238.997 148.144 238.615C145.963 238.07 145.581 239.324 145.199 248.432C144.981 253.176 144.708 258.466 144.545 260.266L144.218 263.483L140.564 263.102C138.601 262.938 135.656 262.774 134.074 262.774C131.838 262.774 131.129 262.556 130.857 261.793C129.711 258.357 127.639 254.539 125.894 252.74C123.767 250.504 119.241 248.05 117.223 248.05C116.514 248.05 115.914 247.886 115.914 247.614C115.859 247.395 115.696 244.669 115.478 241.506L115.15 235.779L113.514 235.779L111.878 235.779L111.878 242.869L111.878 249.904L115.914 251.431C121.913 253.612 126.876 259.066 126.876 263.483C126.876 265.61 126.276 265.283 124.585 262.283C122.676 258.957 119.84 256.448 116.296 254.867C109.152 251.758 105.716 251.758 99.2808 254.867C94.8089 257.048 91.4277 260.375 90.4461 263.756C89.4099 267.246 89.6281 272.809 90.9369 275.59C92.4094 278.699 96.1177 282.134 100.044 283.934C102.662 285.134 103.916 285.352 107.788 285.352C115.096 285.352 120.44 282.68 124.367 277.008C125.567 275.317 125.948 273.954 126.221 270.9L126.603 266.919L135.056 267.083C139.691 267.137 143.672 267.355 143.89 267.464C144.436 267.792 144.436 271.282 143.945 273.681L143.618 275.481L140.018 275.099C138.055 274.936 134.674 274.608 132.602 274.445L128.784 274.063L127.203 277.444C124.694 282.898 119.241 286.879 112.533 288.133L110.515 288.515L110.515 294.296L110.515 300.022L107.188 299.64C105.334 299.476 103.262 299.313 102.553 299.313C101.299 299.313 101.299 299.149 101.135 293.696L100.971 288.133L99.0626 287.206C93.5546 284.425 89.6281 280.171 87.5557 274.608L86.356 271.5L81.3933 271.5C78.6665 271.5 75.1217 271.336 73.5948 271.173C70.7589 270.791 70.7044 270.736 70.7044 269.046C70.7044 266.374 71.3043 263.974 72.0133 263.701C72.3405 263.592 75.1763 263.647 78.3393 263.865C81.5023 264.029 84.3927 264.083 84.7744 263.974C85.1562 263.81 86.1924 262.338 87.0649 260.647C88.6464 257.43 92.2458 253.667 95.1907 252.194C96.1177 251.704 98.1355 250.995 99.7171 250.558C102.607 249.849 102.607 249.795 103.044 247.232C103.262 245.814 103.371 242.651 103.316 240.251L103.153 235.779L101.517 235.779L99.8807 235.779L99.4989 240.906C99.3353 243.687 98.9536 246.196 98.6809 246.414C98.4628 246.632 97.0448 247.232 95.5179 247.723C91.5913 248.977 87.1195 252.74 84.8835 256.666L82.9748 259.938L77.5213 259.666C74.5219 259.502 71.9587 259.284 71.8496 259.175C71.577 258.957 71.686 250.94 72.1223 240.906C72.4495 233.216 72.4495 232.944 71.3588 232.671C69.1774 232.071 68.9047 232.889 68.4139 241.069C68.0322 247.995 66.3416 290.478 66.3416 292.932C66.3416 293.587 66.7779 293.859 67.9231 293.859C69.5046 293.859 69.5592 293.805 69.8318 290.424C69.9954 288.569 70.2681 284.425 70.4863 281.153L70.8135 275.317L77.2486 275.317L83.6837 275.317L84.5018 277.771C85.647 281.098 88.6464 284.588 93.2274 288.024C97.3721 291.133 97.9719 292.114 97.9719 296.095L97.9719 298.767L95.4088 298.767C93.9363 298.767 84.9381 298.386 75.3399 297.949C65.7417 297.513 56.5798 297.131 54.9438 297.131L51.9989 297.131L52.3806 291.242C52.5988 288.024 52.9805 277.281 53.2532 267.355C54.0167 241.233 54.3439 232.18 54.6711 230.162L54.9438 228.363L59.143 228.635C61.4334 228.853 68.523 229.235 74.7945 229.508L74.7945 229.508ZM50.6355 230.162C50.8536 230.926 50.1992 250.231 49.6539 258.848C49.3812 263.429 49.2721 263.865 48.5632 262.883C48.1269 262.283 47.3089 260.266 46.7635 258.411C46.1636 256.557 45.0184 254.049 44.1458 252.849C42.7279 250.777 42.6188 250.122 42.4552 244.669C42.2371 238.07 41.9099 237.579 39.1286 238.997C38.256 239.488 36.7291 239.87 35.802 239.87C34.8749 239.87 34.1659 240.142 34.1114 240.524C34.1114 240.906 34.0568 243.687 34.0023 246.686C33.8932 251.922 33.8387 252.249 32.0936 254.539C31.1119 255.903 29.9122 258.302 29.4759 259.884C28.9851 261.52 28.2761 263.483 27.8398 264.301C27.4036 265.119 27.0763 266.21 27.0763 266.701C27.0763 267.955 26.4765 269.319 25.9856 269.319C25.713 269.319 25.6039 268.773 25.713 268.064C26.9673 260.702 27.5126 245.759 26.5855 244.341C25.822 243.087 24.186 243.851 23.6952 245.596C23.3134 246.905 22.2773 284.588 22.1682 298.931L22.1682 302.639L23.9678 302.476L25.713 302.312L25.8766 293.15C25.9856 284.807 26.0947 283.988 26.9673 284.152C27.5126 284.261 28.8215 286.17 30.1848 288.951C32.1481 292.987 32.4753 294.187 32.748 298.277L33.0207 302.912L30.4575 303.785C29.0396 304.221 25.4948 305.421 22.5499 306.402C19.605 307.384 17.151 308.093 17.0419 307.984C16.8238 307.766 17.0964 301.603 18.5689 271.773C19.0597 261.847 19.605 250.995 19.7687 247.614L20.0959 241.451L21.841 240.688C22.7681 240.251 27.7308 238.288 32.8025 236.325C37.9288 234.307 43.8186 232.016 45.8909 231.144C50.4174 229.29 50.3628 229.344 50.6355 230.162L50.6355 230.162ZM37.9834 243.415C37.9834 244.123 37.7653 244.887 37.4381 245.051C37.1108 245.269 36.8927 244.614 36.8927 243.415C36.8927 242.215 37.1108 241.56 37.4381 241.778C37.7653 241.942 37.9834 242.706 37.9834 243.415L37.9834 243.415ZM40.4375 254.921C42.7279 258.248 44.2549 262.174 43.8732 263.429C43.7095 263.81 43.0551 263.211 42.3462 262.174C40.6011 259.72 38.4742 257.866 37.329 257.866C36.8381 257.866 35.7474 258.139 34.9294 258.412L33.457 259.011L34.4931 257.484C36.4564 254.54 37.438 252.14 37.4926 250.231C37.6016 248.541 37.6016 248.486 37.8198 249.904C37.9834 250.722 39.1286 253.013 40.4375 254.921L40.4375 254.921ZM114.66 258.139C117.059 259.121 120.604 262.284 121.749 264.52C122.186 265.338 122.513 267.464 122.513 269.319C122.513 274.063 120.386 277.062 114.878 279.953C111.988 281.534 105.171 281.425 101.081 279.789C97.6448 278.371 95.0271 276.299 95.3543 275.208C95.7361 274.118 106.261 270.955 107.407 271.609C109.697 272.809 112.697 270.3 112.697 267.137C112.697 266.265 112.369 266.047 110.788 266.047C109.261 266.047 108.334 265.556 106.425 263.811C104.625 262.175 103.753 261.684 102.88 261.956C101.571 262.393 101.462 263.974 102.662 265.774C103.753 267.464 103.316 268.773 101.68 268.773C100.59 268.828 96.8268 269.973 93.9364 271.227C93.0093 271.609 92.9548 271.445 93.3365 268.719C94.3182 261.138 100.644 256.394 108.934 256.994C110.951 257.157 113.515 257.648 114.66 258.139L114.66 258.139ZM38.0924 262.611C41.5281 266.647 40.3829 283.498 36.6199 283.498C33.8387 283.498 33.1297 271.555 35.5292 264.356C36.5109 261.411 36.8381 261.193 38.0924 262.611L38.0924 262.611ZM49.3267 269.7L49.1631 273.954L46.5999 274.118C43.546 274.336 43.1097 273.572 43.7096 269.155C44.1459 265.883 44.5821 265.501 47.4179 265.501L49.4903 265.501L49.3267 269.7L49.3267 269.7ZM29.8031 274.991C29.8031 278.208 28.9306 279.681 26.9673 279.681C25.9311 279.681 25.8766 279.408 26.0947 276.736C26.3674 273.464 27.1854 272.046 28.767 272.046C29.6395 272.046 29.8031 272.482 29.8031 274.991L29.8031 274.991ZM48.7813 286.879L48.6177 297.404L45.6183 298.386C43.9822 298.877 42.1826 299.477 41.6918 299.64C40.8192 299.913 40.7101 299.531 40.7101 296.423C40.7101 293.423 40.9828 292.387 42.837 288.897C43.9822 286.661 45.2365 283.498 45.5637 281.862C46.2182 278.753 47.4179 276.408 48.345 276.408C48.7268 276.408 48.8358 280.171 48.7813 286.879L48.7813 286.879ZM34.3841 286.497C35.6384 287.424 37.7652 287.588 38.256 286.77C38.4196 286.443 38.8014 286.225 39.0741 286.225C39.3467 286.225 39.0741 287.37 38.4196 288.733C37.4925 290.86 37.3289 292.114 37.4925 296.532C37.6561 300.84 37.5471 301.767 36.8927 301.931C36.1837 302.04 36.0746 301.113 36.0201 296.477C35.9656 290.751 35.5838 289.224 33.457 286.879C32.2027 285.516 32.8025 285.297 34.3841 286.497L34.3841 286.497ZM69.8863 301.767C87.9374 302.64 101.626 303.403 121.149 304.494C128.675 304.93 140.291 305.584 147.053 305.912C153.816 306.239 159.487 306.675 159.76 306.893C159.978 307.111 159.924 316.601 159.651 327.998C158.615 366.991 157.906 393.386 157.797 395.84L157.688 398.294L154.198 398.185C152.234 398.13 143.018 397.803 133.747 397.476C105.389 396.494 81.066 395.785 64.4328 395.404L48.6176 395.022L48.7813 386.024C48.8358 381.061 49.163 372.008 49.4357 365.846C50.5809 342.123 51.0717 329.089 51.3989 315.946C51.5625 308.42 51.7807 301.985 51.9443 301.603C52.1624 300.785 50.6354 300.785 69.8863 301.767L69.8863 301.767ZM47.9087 309.238C47.8542 313.219 47.6906 317.2 47.527 318.127L47.2543 319.763L43.1642 319.818C40.9282 319.818 38.965 319.982 38.8013 320.145C38.6377 320.309 38.256 325.599 37.9833 331.816C37.6561 338.087 37.0562 348.449 36.6199 354.884C35.7474 367.209 35.5293 383.842 36.2382 383.842C36.4563 383.842 38.0924 383.46 39.8921 383.024C45.5092 381.661 45.1274 381.279 44.9638 388.859L44.8002 395.567L42.3461 396.003C37.8743 396.767 29.0396 398.621 24.8949 399.712C18.1871 401.348 12.8427 402.438 12.4609 402.166C12.2428 402.057 12.2428 399.275 12.4609 396.003C12.6791 392.786 13.2244 381.77 13.7152 371.572C15.733 328.216 16.7147 313.328 17.4236 312.565C17.8054 312.183 21.0229 310.929 24.6222 309.729C28.2216 308.529 34.7112 306.293 39.074 304.821C43.4368 303.348 47.2543 302.094 47.527 302.094C47.8542 302.04 48.0178 304.712 47.9087 309.238L47.9087 309.238ZM46.2182 343.323C46.0546 355.375 45.6728 365.409 45.4547 365.682C44.9638 366.173 45.2911 327.562 45.7819 325.762C45.9455 325.162 46.1091 323.854 46.1091 322.817C46.1636 321.781 46.2727 321.072 46.3272 321.181C46.4363 321.29 46.3818 331.27 46.2182 343.323L46.2182 343.323ZM41.9644 338.96C42.2371 369.772 41.8008 379.643 40.1648 378.661C40.0011 378.552 40.0557 372.771 40.2193 365.737C40.4374 358.756 40.601 346.486 40.6556 338.415C40.7101 329.144 40.9282 323.854 41.2555 323.854C41.5827 323.854 41.8553 329.362 41.9644 338.96L41.9644 338.96ZM37.7106 478.461C37.3834 486.15 37.2198 486.914 36.2382 487.241C35.6383 487.404 35.093 487.459 34.9839 487.35C34.8748 487.295 35.0384 485.932 35.2566 484.405C35.5293 482.878 35.8565 473.443 36.0201 463.409C36.2382 453.374 36.5654 443.34 36.7836 441.104C37.3289 434.832 38.2015 468.153 37.7106 478.461L37.7106 478.461ZM41.2704 463.3C41.072 464.445 40.8737 463.627 40.8737 461.555C40.8737 459.428 41.072 458.556 41.2704 459.483C41.4687 460.464 41.4687 462.209 41.2704 463.3L41.2704 463.3ZM41.2629 484.296C41.0735 485.005 40.8842 484.569 40.8842 483.369C40.7895 482.169 40.9788 481.624 41.2629 482.115C41.4522 482.66 41.4522 483.642 41.2629 484.296L41.2629 484.296Z" id="Shape" fill="#000000" fill-rule="evenodd" stroke="none" />
    <path d="M2.30264 7.19863C2.13903 11.1797 1.75728 22.4139 1.43006 32.1757C1.10285 41.9374 0.612016 56.0075 0.339336 63.4788C-0.260556 77.9851 -0.315095 77.9851 2.30264 77.9851C3.44789 77.9851 3.50243 77.7124 3.82965 68.2779C4.04779 62.988 4.42954 54.3169 4.75676 49.0815C5.02944 43.8461 5.46573 30.6487 5.62933 19.7417L5.95655 0L4.32047 0L2.62985 0L2.30264 7.19863L2.30264 7.19863Z" transform="translate(71.45581 63.721252)" id="Shape" fill="#000000" fill-rule="evenodd" stroke="none" />
    <path d="M2.18473 0.654427C1.47577 1.79965 -0.487503 72.8043 0.112389 75.0948C0.439605 76.2945 2.4574 77.1671 3.16637 76.4581C3.82079 75.8037 5.72952 9.92539 5.34779 3.05395C5.12965 0.272675 5.02057 0 3.87533 0C3.16637 0 2.40288 0.327197 2.18473 0.654427L2.18473 0.654427Z" transform="translate(147.8136 69.72009)" id="Shape" fill="#000000" fill-rule="evenodd" stroke="none" />
    <path d="M3.84602 0.44334C2.80985 0.934137 1.82822 1.86124 1.50101 2.73382C0.410315 5.62418 -0.135035 21.7666 0.0285714 46.0893C0.13764 59.5595 0.35578 70.5211 0.628455 70.5211C1.50101 70.5211 7.8816 67.358 8.91777 66.3764C9.8994 65.4493 10.0085 64.7949 9.84486 60.4866C9.68126 56.2874 9.51765 55.633 8.59056 55.4148C7.28172 55.0331 7.28172 54.924 8.64509 53.5061C9.68126 52.4154 9.73579 51.4883 9.84486 38.1271C10.1175 0.170664 10.2811 2.13392 7.11812 0.497862C5.86381 -0.156567 5.373 -0.156567 3.84602 0.44334L3.84602 0.44334ZM6.35464 26.6202C6.46371 50.0703 6.40917 50.8338 4.71859 50.8884C4.17324 50.8884 4.11871 3.76997 4.66406 3.22462C6.02743 1.86124 6.19103 4.2608 6.35464 26.6202L6.35464 26.6202ZM5.37298 56.3419C5.37298 56.6146 5.04577 56.8873 4.60949 56.8873C4.17321 56.8873 3.62786 56.6146 3.46425 56.3419C3.30065 56.0147 3.62786 55.7966 4.22775 55.7966C4.88216 55.7966 5.37298 56.0147 5.37298 56.3419L5.37298 56.3419ZM6.13651 60.2684C6.30011 60.9774 6.46371 62.2317 6.46371 63.0497C6.46371 64.2495 6.24557 64.5767 5.53662 64.4131C4.44592 64.195 4.00964 62.3953 4.50046 60.3775C4.93674 58.7414 5.70022 58.6869 6.13651 60.2684L6.13651 60.2684Z" transform="translate(33.70105 79.36578)" id="Shape" fill="#000000" fill-rule="evenodd" stroke="none" />
    <path d="M0.327209 1.60092C0.163606 2.52802 0 18.1251 0 36.2308L0 69.1701L1.52698 69.1701L2.99942 69.1701L2.94489 34.6493C2.94489 0.346612 2.94489 0.183013 1.79965 0.0194139C0.927096 -0.0896633 0.599883 0.237535 0.327209 1.60092L0.327209 1.60092Z" transform="translate(28.712402 80.71692)" id="Shape" fill="#000000" fill-rule="evenodd" stroke="none" />
    <path d="M3.163 0.0545385C2.01777 0.218137 1.96324 0.490813 1.63603 13.6883C1.41789 21.1051 1.03615 34.2481 0.763479 42.9737C0.490807 51.6448 0.218134 61.1339 0.109067 63.9697L0 69.1506L1.5815 69.1506C3.05392 69.1506 3.21753 68.9324 3.59927 66.9692C4.52636 61.8429 5.61705 0.927088 4.79903 0.218137C4.52636 1.66428e-05 3.76287 -0.0545385 3.163 0.0545385L3.163 0.0545385Z" transform="translate(69.39551 152.9953)" id="Shape" fill="#000000" fill-rule="evenodd" stroke="none" />
    <path d="M0.49081 12.3795C0.218136 19.2509 0 34.3572 0 46.0822L0 67.3509L1.69058 67.5145L3.38116 67.6781L3.7629 48.1545C3.92651 37.4111 4.25372 22.1958 4.47186 14.2882L4.79907 0L2.89035 0L0.927098 0L0.49081 12.3795L0.49081 12.3795Z" transform="translate(146.78076 158.6123)" id="Shape" fill="#000000" fill-rule="evenodd" stroke="none" />
    <path d="M9.21639 0.274873C6.59872 0.874779 3.81744 2.56536 2.78128 4.20141C1.0907 6.76457 0.763493 10.6911 0.38175 30.8691L0 51.3743L7.30767 51.7015C11.3432 51.9197 15.9787 52.1378 17.6148 52.1923L20.6142 52.3014L20.9414 44.1212C21.1595 39.5947 21.2686 29.5603 21.2141 21.7617C21.1595 5.40119 20.9414 4.41956 16.4695 1.80185C13.5246 0.00219685 11.9431 -0.325001 9.21639 0.274873L9.21639 0.274873ZM14.9425 5.61932C16.8513 7.20085 16.9058 7.36445 17.2875 12.3272C17.4511 15.1084 17.4511 24.3249 17.233 32.7778L16.9058 48.1022L10.3616 48.0477L3.81743 47.9931L4.19918 29.7239C4.58092 11.4001 4.90813 7.9098 6.59871 6.00107C8.7801 3.54699 12.2703 3.43791 14.9425 5.61932L14.9425 5.61932Z" transform="translate(81.447876 166.57233)" id="Shape" fill="#000000" fill-rule="evenodd" stroke="none" />
    <path d="M8.63061 0.518871C5.24943 1.71865 2.95896 3.40925 1.59558 5.86332L0.2322 8.20832L0.0685933 29.3133C-0.0950054 46.6009 0.0140632 50.4729 0.613944 50.4729C2.25 50.4729 17.738 52.1635 18.6105 52.4361C19.3195 52.6543 19.5922 52.2725 19.8103 50.9092C20.3011 47.8552 21.2282 24.4597 21.2282 15.9523C21.2282 6.68135 20.6283 4.82714 17.029 2.37307C15.1748 1.11878 14.1932 0.682502 11.4119 0.0280763C10.9756 -0.0810002 9.72131 0.137153 8.63061 0.518871L8.63061 0.518871ZM14.7385 5.59065C18.0106 8.37192 18.0652 8.80819 17.1381 26.5866C16.7018 35.3667 16.32 43.7651 16.32 45.183L16.32 47.8552L11.0301 47.4735C8.08524 47.2553 5.24941 46.9827 4.70406 46.8191C3.72244 46.5464 3.6679 45.6193 3.88604 27.95C4.10418 7.39029 4.15871 7.22669 7.48535 5.31797C10.2666 3.68192 12.5571 3.79097 14.7385 5.59065L14.7385 5.59065Z" transform="translate(115.46362 169.76404)" id="Shape" fill="#000000" fill-rule="evenodd" stroke="none" />
    <path d="M1.04791 7.74397C0.884307 12.0522 0.611631 26.2858 0.448024 39.4833C0.284421 52.6262 0.0662799 63.6423 0.0117457 63.9695C-0.151861 64.842 1.42966 65.0056 2.52036 64.2421C3.55653 63.4786 3.50199 64.7875 4.48362 23.2864C4.81083 11.3433 4.91991 1.2543 4.7563 0.818024C4.53816 0.381751 3.72013 0 2.9021 0L1.37512 0L1.04791 7.74397L1.04791 7.74397Z" transform="translate(24.719604 165.70184)" id="Shape" fill="#000000" fill-rule="evenodd" stroke="none" />
    <path d="M6.59872 0.446643C5.50802 0.719318 3.98105 1.48279 3.16302 2.13722C1.03616 3.82779 0.763489 6.55455 0.327208 31.368L0 52.3095L2.345 51.9277C3.65384 51.7096 5.39895 51.1097 6.32605 50.5644C7.85302 49.6918 7.96209 49.3646 8.34384 45.5471C9.59814 30.7681 10.089 0.283011 9.05279 0.0103352C8.78011 -0.0441866 7.63488 0.119412 6.59872 0.446643L6.59872 0.446643ZM5.39895 26.1872C5.28988 37.6941 5.07175 47.3468 4.85361 47.5649C4.58093 47.7831 4.25372 47.8376 4.09012 47.6195C3.5993 47.1286 3.49024 7.37257 3.98105 6.17282C4.19919 5.68199 4.63547 5.24572 4.96267 5.24572C5.34442 5.24572 5.50802 11.6263 5.39895 26.1872L5.39895 26.1872Z" transform="translate(41.200928 169.72717)" id="Shape" fill="#000000" fill-rule="evenodd" stroke="none" />
    <path d="M5.2388 0.527179C2.62112 1.12705 1.91216 2.10868 1.31228 6.03523C0.875997 8.9256 -0.269239 51.136 0.057971 51.6813C0.221578 51.954 6.60218 50.6451 7.31113 50.1543C8.07463 49.718 8.12916 47.9729 8.72905 18.3602C9.16533 -2.25414 9.54707 -0.45445 5.2388 0.527179L5.2388 0.527179ZM4.63892 32.9757C4.42078 40.7742 4.20264 45.3007 4.1481 43.0647C4.03903 40.8288 3.92997 37.0113 3.82089 34.6118C3.71183 32.2122 3.82089 24.4682 3.9845 17.4331C4.36624 4.78094 4.36624 4.72641 4.69345 11.7069C4.85706 15.5789 4.85706 25.1772 4.63892 32.9757L4.63892 32.9757Z" transform="translate(30.617676 174.99097)" id="Shape" fill="#000000" fill-rule="evenodd" stroke="none" />
    <path d="M2.78126 3.65383C2.78126 5.72619 2.50858 14.2337 2.23591 22.6321C1.96324 31.0305 1.47243 47.4456 1.14522 59.1706C0.872548 70.8411 0.490808 81.4755 0.272673 82.7298L0 85.0748L1.85417 85.0748L3.70834 85.0748L4.03555 81.0937C4.25369 78.9669 4.63544 69.4232 4.96264 59.9886C5.28985 50.554 5.78066 36.5385 6.05333 28.9036C6.38054 21.2687 6.59867 11.616 6.59867 7.47129L6.59867 0L4.68997 0L2.78126 0L2.78126 3.65383L2.78126 3.65383Z" transform="translate(63.015015 305.85706)" id="Shape" fill="#000000" fill-rule="evenodd" stroke="none" />
    <path d="M2.61769 0.416102C2.07234 0.743333 1.69059 8.5418 0.981639 31.6647C0.490811 48.5705 0.0545383 66.8397 0 72.2387L0 82.055L1.47245 82.2186C2.78129 82.3822 2.94488 82.1641 3.21756 80.5826C3.76291 77.0378 6.32606 1.07053 5.88979 0.361547C5.56257 -0.129248 3.43571 -0.129248 2.61769 0.416102L2.61769 0.416102Z" transform="translate(140.78198 310.78546)" id="Shape" fill="#000000" fill-rule="evenodd" stroke="none" />
    <path d="M2.83582 4.41732C2.83582 6.81687 2.61768 13.5247 2.29047 19.2508C2.01779 25.0316 1.52698 36.2113 1.19977 44.1734C0.872564 52.1354 0.490812 59.6068 0.327213 60.8065L0 63.0424L8.23479 63.8059L16.415 64.624L16.6877 61.3519C16.8513 59.5522 17.3421 53.8806 17.833 48.8088C18.2692 43.6825 18.8691 36.4839 19.1963 32.721C19.5235 28.9581 20.0144 23.1774 20.287 19.9053C20.5597 16.5787 20.9414 11.1797 21.1596 7.7985L21.5413 1.69057L20.2325 1.4179C18.8691 1.14522 5.50804 0 3.81745 0C2.94489 0 2.83582 0.599872 2.83582 4.41732L2.83582 4.41732ZM16.3605 5.18084C17.2331 5.50804 17.2331 11.6705 16.1969 22.632C15.7606 27.4311 15.0517 36.3748 14.5609 42.5373C14.1246 48.6998 13.5792 55.1349 13.4156 56.8255L13.0339 59.9885L8.99831 59.9885C5.99888 59.9885 4.90818 59.7704 4.69004 59.225C4.52644 58.7888 4.79911 50.0086 5.28992 39.7015C5.72621 29.3944 6.32609 17.2331 6.48969 12.6521L6.81691 4.30829L11.2342 4.63549C13.6883 4.85364 15.9788 5.07176 16.3605 5.18084L16.3605 5.18084Z" transform="translate(75.50342 317.8548)" id="Shape" fill="#000000" fill-rule="evenodd" stroke="none" />
    <path d="M1.0907 1.47981C0.927105 2.40691 0.599891 16.8041 0.381753 33.4373L0 63.7587L6.21702 63.7042C9.65274 63.7042 13.6883 63.486 15.1608 63.3224L17.8875 62.9407L18.2693 56.1238C18.4874 52.3609 19.0328 41.3449 19.5236 31.5831C20.0144 21.8213 20.5598 11.1325 20.7234 7.80588L21.0506 1.69793L18.9237 1.42525C17.7785 1.20713 14.6154 0.934456 11.8887 0.770858C9.21646 0.607227 5.7262 0.334552 4.19922 0.170988C1.47246 -0.156242 1.41792 -0.156242 1.0907 1.47981L1.0907 1.47981ZM16.3606 13.2048C15.8698 25.148 14.2337 59.1233 14.1792 59.2323C14.1246 59.2323 11.7251 59.396 8.88925 59.505L3.7084 59.6687L3.7084 53.1245C3.76294 39.8179 4.69003 6.7152 5.07178 5.67902C5.45352 4.64284 5.88981 4.58832 11.0707 4.75192L16.6878 4.91552L16.3606 13.2048L16.3606 13.2048Z" transform="translate(111.44202 320.08325)" id="Shape" fill="#000000" fill-rule="evenodd" stroke="none" />
    <path d="M3.45633 0.497356C3.29273 0.715477 2.91098 7.80507 2.58377 16.149C1.98389 32.1824 1.384 46.6888 0.34784 67.1941C0.0206287 74.0655 -0.0884396 80.228 0.0751649 80.9915C0.34784 81.9732 0.784119 82.3549 1.71121 82.3549C3.45633 82.3549 3.51087 81.8641 3.94715 67.3577C4.11075 60.7589 4.4925 52.6331 4.76517 49.361C5.03785 46.0344 5.41959 35.9999 5.5832 27.0015C5.80134 18.0032 6.18308 8.56855 6.45576 6.00541C6.72843 3.44225 6.94657 1.04271 6.94657 0.660922C6.94657 -0.102553 3.89261 -0.266153 3.45633 0.497356L3.45633 0.497356Z" transform="translate(19.58435 315.12164)" id="Shape" fill="#000000" fill-rule="evenodd" stroke="none" />
    <path d="M4.90814 0.599874C3.65384 0.818028 2.39953 1.19975 2.07232 1.36338C1.79965 1.52698 1.58151 8.23481 1.58151 17.1786C1.58151 25.6861 1.36337 37.5202 1.03616 43.4646C0.708951 49.4089 0.327208 56.2803 0.218136 58.789L0 63.2609L2.01779 62.9337C3.10849 62.77 4.8536 62.3883 5.9443 62.1156L7.96209 61.6248L8.23477 54.3716C8.39837 50.4451 8.83465 40.3015 9.21639 31.9031C9.59814 23.5047 9.97988 12.8703 10.089 8.28933L10.3071 0L8.78012 0.0545219C7.96209 0.109044 6.21697 0.327198 4.90814 0.599874L4.90814 0.599874ZM5.39893 31.1941C5.3444 47.282 5.12626 57.6983 4.79905 58.0255C4.41731 58.4072 4.2537 49.4089 4.2537 32.7211C4.2537 8.78014 4.41731 3.81744 5.23533 4.63547C5.39893 4.79907 5.45347 16.7423 5.39893 31.1941L5.39893 31.1941Z" transform="translate(25.549316 322.76288)" id="Shape" fill="#000000" fill-rule="evenodd" stroke="none" />
    <path d="M2.78126 2.01781C2.78126 6.43515 1.19976 46.7912 0.927086 49.6271C0.763481 51.2631 0.490808 55.8986 0.327202 59.8252L0 67.0784L1.90871 67.0784L3.76288 67.0784L4.09009 62.5519C4.63544 55.5714 6.32601 12.7067 6.59868 0.927106C6.59868 0.218154 6.1624 0 4.68997 0C2.8358 0 2.78126 0.0545219 2.78126 2.01781L2.78126 2.01781Z" transform="translate(60.288086 405.11108)" id="Shape" fill="#000000" fill-rule="evenodd" stroke="none" />
    <path d="M0.763501 0.569584C0.545349 0.951336 0.272674 7.33192 0.163615 14.7487L0 28.2734L2.18139 28.2734L4.41733 28.2734L4.36279 15.8394C4.25373 1.71481 4.09012 0.242353 2.39955 0.0242319C1.79966 -0.084845 1.03618 0.187831 0.763501 0.569584L0.763501 0.569584Z" transform="translate(139.9093 408.46814)" id="Shape" fill="#000000" fill-rule="evenodd" stroke="none" />
    <path d="M5.07178 0.569583C4.85363 1.22401 4.30828 10.3859 3.10851 34.8176C2.7813 40.6529 2.07234 53.5231 1.47245 63.4485C0.872564 73.3193 0.327212 83.9537 0.218142 87.0622L0 92.6793L1.69059 92.5157L3.38118 92.3521L3.49025 87.1713C3.65386 81.5542 4.41735 69.6655 5.34445 60.1764C5.61713 56.8498 6.10794 47.1971 6.43516 38.6351C6.70783 30.073 7.19865 20.3658 7.47132 17.0937C7.79854 13.7671 7.96214 8.64077 7.9076 5.64134C7.744 0.460506 7.68946 0.18783 6.48969 0.0242319C5.83527 -0.0848449 5.18084 0.18783 5.07178 0.569583L5.07178 0.569583Z" transform="translate(14.696899 409.0133)" id="Shape" fill="#000000" fill-rule="evenodd" stroke="none" />
    <path d="M2.23594 7.9621C1.63605 15.0516 0.0545384 37.2474 0 38.9925C0 39.4288 0.708957 39.7015 1.8542 39.7015L3.70838 39.7015L4.0356 36.2658C4.1992 34.4116 4.63548 28.9581 4.96269 24.159C5.78072 11.3978 6.43514 5.23535 6.92595 4.8536C7.14409 4.63548 9.76178 4.58092 12.7067 4.69L17.9966 4.90815L17.9966 13.9609C17.9966 18.9782 18.1602 26.1768 18.3783 29.9943L18.7055 36.9747L20.5597 36.9747L22.3594 36.9747L22.3048 26.1768C22.2503 20.287 22.0867 12.2158 21.8686 8.34385L21.5413 1.2543L15.8152 0.872547C12.6521 0.708948 8.50747 0.381752 6.5442 0.272675L2.9449 0L2.23594 7.9621L2.23594 7.9621Z" transform="translate(71.795166 430.85156)" id="Shape" fill="#000000" fill-rule="evenodd" stroke="none" />
    <path d="M0 13.7972L0 27.5399L1.25431 27.2127C1.90872 27.0491 2.78129 26.8855 3.16303 26.8855C3.65384 26.8855 3.81745 24.2679 3.81745 15.7059L3.81745 4.52636L9.81629 4.52636L15.7606 4.52636L15.9242 10.3616L16.0878 16.2513L17.9965 16.2513L19.9053 16.2513L20.0689 8.94365C20.1234 4.90811 20.0143 1.41788 19.7962 1.19977C19.578 0.981615 14.9971 0.599867 9.70722 0.43627L0 0L0 13.7972L0 13.7972Z" transform="translate(108.87891 432.21497)" id="Shape" fill="#000000" fill-rule="evenodd" stroke="none" />
    <path d="M2.12687 0.872551C1.96326 1.30886 1.79966 7.03506 1.79966 13.5247C1.79966 20.0145 1.52698 28.7946 1.25431 32.9938C0.98163 37.1931 0.54535 44.828 0.381746 49.9543L0 59.2798L2.12687 59.607C3.2721 59.8252 5.12629 59.9888 6.21699 59.9888L8.23479 59.9888L8.562 51.9176C8.72561 47.5002 9.16189 40.6833 9.43456 36.8113C10.4707 24.2137 11.2342 4.14467 10.8525 2.01781L10.4707 0L6.48967 0C3.32664 0 2.39954 0.163599 2.12687 0.872551L2.12687 0.872551ZM7.36225 4.90816C7.41679 5.07176 7.14411 9.32551 6.8169 14.4518C6.48969 19.5236 6.05341 30.5943 5.83527 38.9927C5.67166 47.3912 5.28992 54.4808 5.01724 54.808C3.92654 55.9532 4.74457 8.99831 5.94434 5.28992C6.21701 4.41733 7.25318 4.19921 7.36225 4.90816L7.36225 4.90816Z" transform="translate(20.91394 433.46875)" id="Shape" fill="#000000" fill-rule="evenodd" stroke="none" />
  </g>
</svg>