<?xml version="1.0" encoding="utf-8"?>
<svg width="7808.2886px" height="512px" viewBox="0 0 7808.2886 512" version="1.1" xmlns:xlink="http://www.w3.org/1999/xlink" xmlns="http://www.w3.org/2000/svg">
  <path d="M7730.21 503.017C7721.92 503.017 7715.24 499.793 7710.17 493.344L7554.71 296.421L7528.45 296.421L7528.45 488.507C7528.45 492.653 7527.07 496.108 7524.3 498.872C7521.54 501.635 7518.09 503.017 7513.94 503.017L7458.66 503.017C7454.52 503.017 7451.06 501.635 7448.3 498.872C7445.54 496.108 7444.15 492.653 7444.15 488.507L7444.15 23.4924C7444.15 19.3467 7445.54 15.8918 7448.3 13.1279C7451.06 10.364 7454.52 8.98218 7458.66 8.98218L7513.94 8.98218C7518.09 8.98218 7521.54 10.364 7524.3 13.1279C7527.07 15.8918 7528.45 19.3467 7528.45 23.4924L7528.45 218.343L7551.25 218.343L7710.17 18.6555C7715.24 12.2065 7722.15 8.98218 7730.9 8.98218L7793.78 8.98218C7797.92 8.98218 7801.26 10.249 7803.8 12.7825C7806.33 15.3159 7807.6 18.1951 7807.6 21.4194C7807.6 24.1833 7806.45 27.1775 7804.14 30.4019L7624.49 252.89L7804.83 482.289C7807.14 485.513 7808.29 488.507 7808.29 491.271C7808.29 494.496 7807.02 497.375 7804.49 499.908C7801.96 502.442 7798.62 503.708 7794.47 503.708L7730.21 503.017ZM7041.73 503.017C7037.58 503.017 7034.13 501.635 7031.36 498.872C7028.6 496.108 7027.22 492.653 7027.22 488.507L7027.22 38.6934C7027.22 30.4019 7030.1 23.3772 7035.85 17.6191C7041.61 11.8613 7048.64 8.98218 7056.93 8.98218L7186.14 8.98218C7214.24 8.98218 7240.03 15.6614 7263.52 29.02C7287.02 42.3787 7305.67 60.5737 7319.49 83.6057C7333.31 106.638 7340.22 131.742 7340.22 158.92C7340.22 192.086 7330.32 221.682 7310.51 247.708C7290.7 273.734 7264.91 291.584 7233.12 301.258L7347.82 478.834C7349.66 482.058 7350.59 485.283 7350.59 488.507C7350.59 492.653 7349.09 496.108 7346.09 498.872C7343.1 501.635 7339.3 503.017 7334.69 503.017L7278.03 503.017C7270.2 503.017 7264.22 499.793 7260.07 493.344L7145.37 308.858L7111.51 308.858L7111.51 488.507C7111.51 492.653 7110.13 496.108 7107.37 498.872C7104.6 501.635 7101.15 503.017 7097 503.017L7041.73 503.017ZM7181.99 229.398C7203.18 229.398 7220.57 222.834 7234.16 209.706C7247.75 196.577 7254.54 179.879 7254.54 159.611C7254.54 138.882 7247.75 121.839 7234.16 108.48C7220.57 95.1216 7203.18 88.4424 7181.99 88.4424L7111.52 88.4424L7111.52 229.398L7181.99 229.398ZM6739.49 512C6706.32 512 6675.69 503.824 6647.59 487.471C6619.49 471.118 6597.27 449.008 6580.92 421.139C6564.56 393.271 6556.39 362.753 6556.39 329.587L6556.39 182.413C6556.39 149.247 6564.56 118.73 6580.92 90.8611C6597.27 62.9924 6619.49 40.8818 6647.59 24.5291C6675.69 8.17627 6706.32 0 6739.49 0C6772.66 0 6803.29 8.17627 6831.39 24.5291C6859.49 40.8818 6881.71 62.9924 6898.06 90.8611C6914.42 118.73 6922.59 149.247 6922.59 182.413L6922.59 329.587C6922.59 362.753 6914.42 393.271 6898.06 421.139C6881.71 449.008 6859.49 471.118 6831.39 487.471C6803.29 503.824 6772.66 512 6739.49 512L6739.49 512ZM6739.49 431.158C6757 431.158 6773.35 426.552 6788.55 417.339C6803.75 408.126 6815.84 395.689 6824.82 380.027C6833.81 364.365 6838.3 347.552 6838.3 329.587L6838.3 182.413C6838.3 164.448 6833.81 147.635 6824.82 131.973C6815.84 116.311 6803.75 103.874 6788.55 94.6611C6773.35 85.4485 6757 80.842 6739.49 80.842C6721.99 80.842 6705.63 85.4485 6690.43 94.6611C6675.23 103.874 6663.14 116.311 6654.16 131.973C6645.18 147.635 6640.68 164.448 6640.68 182.413L6640.68 329.587C6640.68 347.552 6645.18 364.365 6654.16 380.027C6663.14 395.689 6675.23 408.126 6690.43 417.339C6705.63 426.552 6721.99 431.158 6739.49 431.158L6739.49 431.158ZM5966.71 504.399C5962.57 504.399 5958.88 503.133 5955.66 500.599C5952.43 498.065 5950.36 494.956 5949.44 491.271L5814.7 26.947C5814.24 26.0259 5814.01 24.6438 5814.01 22.8013C5814.01 19.1162 5815.39 15.8918 5818.16 13.1279C5820.92 10.364 5824.37 8.98218 5828.52 8.98218L5882.41 8.98218C5886.56 8.98218 5890.25 10.249 5893.47 12.7825C5896.69 15.3159 5898.77 18.4253 5899.69 22.1104L6002.64 377.263L6101.45 22.1104C6102.37 18.4253 6104.44 15.3159 6107.67 12.7825C6110.89 10.249 6114.58 8.98218 6118.72 8.98218L6172.62 8.98218C6176.76 8.98218 6180.45 10.249 6183.67 12.7825C6186.9 15.3159 6188.97 18.4253 6189.89 22.1104L6292.84 377.263L6391.65 22.1104C6392.57 18.4253 6394.65 15.3159 6397.87 12.7825C6401.09 10.249 6404.78 8.98218 6408.92 8.98218L6465.58 8.98218C6470.65 8.98218 6474.45 10.8247 6476.98 14.5098C6479.52 18.1951 6480.09 22.3408 6478.71 26.947L6340.52 491.271C6339.6 495.417 6337.41 498.641 6333.96 500.944C6330.5 503.248 6326.7 504.399 6322.56 504.399L6256.91 504.399C6252.77 504.399 6249.08 503.133 6245.86 500.599C6242.63 498.065 6240.56 494.956 6239.64 491.271L6145.67 155.465L6050.32 491.271C6049.4 495.417 6047.21 498.641 6043.75 500.944C6040.3 503.248 6036.5 504.399 6032.35 504.399L5966.71 504.399ZM5550.47 503.017C5546.32 503.017 5542.87 501.635 5540.1 498.872C5537.34 496.108 5535.96 492.653 5535.96 488.507L5535.96 89.8242L5419.88 89.8242C5415.73 89.8242 5412.28 88.4424 5409.51 85.6785C5406.75 82.9148 5405.37 79.46 5405.37 75.3142L5405.37 23.4924C5405.37 19.3467 5406.75 15.8918 5409.51 13.1279C5412.28 10.364 5415.73 8.98218 5419.88 8.98218L5736.34 8.98218C5740.48 8.98218 5743.94 10.364 5746.7 13.1279C5749.46 15.8918 5750.85 19.3467 5750.85 23.4924L5750.85 75.3142C5750.85 79.46 5749.46 82.9148 5746.7 85.6785C5743.94 88.4424 5740.48 89.8242 5736.34 89.8242L5620.25 89.8242L5620.25 488.507C5620.25 492.653 5618.87 496.108 5616.11 498.872C5613.34 501.635 5609.89 503.017 5605.74 503.017L5550.47 503.017ZM5078.95 503.017C5070.65 503.017 5063.63 500.138 5057.87 494.38C5052.11 488.622 5049.23 481.598 5049.23 473.306L5049.23 38.6934C5049.23 30.4019 5052.11 23.3772 5057.87 17.6191C5063.63 11.8613 5070.65 8.98218 5078.95 8.98218L5314.56 8.98218C5318.71 8.98218 5322.16 10.364 5324.93 13.1279C5327.69 15.8918 5329.07 19.3467 5329.07 23.4924L5329.07 75.3142C5329.07 79.46 5327.69 82.9148 5324.93 85.6785C5322.16 88.4424 5318.71 89.8242 5314.56 89.8242L5133.53 89.8242L5133.53 207.287L5268.27 207.287C5272.41 207.287 5275.87 208.669 5278.63 211.433C5281.4 214.197 5282.78 217.652 5282.78 221.797L5282.78 270.855C5282.78 275.001 5281.4 278.456 5278.63 281.22C5275.87 283.984 5272.41 285.365 5268.27 285.365L5133.53 285.365L5133.53 422.175L5314.56 422.175C5318.71 422.175 5322.16 423.557 5324.93 426.321C5327.69 429.085 5329.07 432.54 5329.07 436.685L5329.07 488.507C5329.07 492.653 5327.69 496.108 5324.93 498.872C5322.16 501.635 5318.71 503.017 5314.56 503.017L5078.95 503.017ZM4573.57 503.017C4569.42 503.017 4565.97 501.635 4563.2 498.872C4560.44 496.108 4559.06 492.653 4559.06 488.507L4559.06 29.02C4559.06 23.4924 4561.02 18.7708 4564.93 14.8552C4568.85 10.9399 4573.57 8.98218 4579.1 8.98218L4635.75 8.98218C4643.59 8.98218 4649.8 12.437 4654.41 19.3467L4820.24 299.876L4853.41 357.916L4853.41 23.4924C4853.41 19.3467 4854.79 15.8918 4857.55 13.1279C4860.32 10.364 4863.77 8.98218 4867.92 8.98218L4917.67 8.98218C4921.81 8.98218 4925.27 10.364 4928.03 13.1279C4930.79 15.8918 4932.18 19.3467 4932.18 23.4924L4932.18 482.979C4932.18 488.507 4930.22 493.229 4926.3 497.144C4922.39 501.06 4917.67 503.017 4912.14 503.017L4854.79 503.017C4846.96 503.017 4840.74 499.563 4836.13 492.653L4664.77 202.45L4637.83 155.465L4637.83 488.507C4637.83 493.114 4636.45 496.684 4633.68 499.217C4630.92 501.75 4627.46 503.017 4623.32 503.017L4573.57 503.017ZM3910.65 503.017C3906.51 503.017 3903.05 501.635 3900.29 498.872C3897.52 496.108 3896.14 492.653 3896.14 488.507L3896.14 29.02C3896.14 23.4924 3898.1 18.7708 3902.01 14.8552C3905.93 10.9399 3910.65 8.98218 3916.18 8.98218L3972.84 8.98218C3980.67 8.98218 3986.89 12.437 3991.49 19.3467L4157.32 299.876L4190.49 357.916L4190.49 23.4924C4190.49 19.3467 4191.87 15.8918 4194.63 13.1279C4197.4 10.364 4200.85 8.98218 4205 8.98218L4254.75 8.98218C4258.89 8.98218 4262.35 10.364 4265.11 13.1279C4267.88 15.8918 4269.26 19.3467 4269.26 23.4924L4269.26 482.979C4269.26 488.507 4267.3 493.229 4263.39 497.144C4259.47 501.06 4254.75 503.017 4249.22 503.017L4191.87 503.017C4184.04 503.017 4177.82 499.563 4173.21 492.653L4001.86 202.45L3974.91 155.465L3974.91 488.507C3974.91 493.114 3973.53 496.684 3970.76 499.217C3968 501.75 3964.55 503.017 3960.4 503.017L3910.65 503.017ZM3578.01 503.017C3573.87 503.017 3570.41 501.635 3567.65 498.872C3564.88 496.108 3563.5 492.653 3563.5 488.507L3563.5 440.831C3563.5 436.685 3564.88 433.231 3567.65 430.467C3570.41 427.703 3573.87 426.321 3578.01 426.321L3636.74 426.321L3636.74 85.6785L3578.01 85.6785C3573.87 85.6785 3570.41 84.2966 3567.65 81.5327C3564.88 78.769 3563.5 75.3142 3563.5 71.1685L3563.5 23.4924C3563.5 19.3467 3564.88 15.8918 3567.65 13.1279C3570.41 10.364 3573.87 8.98218 3578.01 8.98218L3779.77 8.98218C3783.92 8.98218 3787.37 10.364 3790.14 13.1279C3792.9 15.8918 3794.28 19.3467 3794.28 23.4924L3794.28 71.1685C3794.28 75.3142 3792.9 78.769 3790.14 81.5327C3787.37 84.2966 3783.92 85.6785 3779.77 85.6785L3721.04 85.6785L3721.04 426.321L3779.77 426.321C3783.92 426.321 3787.37 427.703 3790.14 430.467C3792.9 433.231 3794.28 436.685 3794.28 440.831L3794.28 488.507C3794.28 492.653 3792.9 496.108 3790.14 498.872C3787.37 501.635 3783.92 503.017 3779.77 503.017L3578.01 503.017ZM3150.02 503.017C3141.73 503.017 3134.7 500.138 3128.95 494.38C3123.19 488.622 3120.31 481.598 3120.31 473.306L3120.31 38.6934C3120.31 30.4019 3123.19 23.3772 3128.95 17.6191C3134.7 11.8613 3141.73 8.98218 3150.02 8.98218L3285.45 8.98218C3320.92 8.98218 3353.16 17.5039 3382.18 34.5476C3411.2 51.5913 3434.12 74.8535 3450.93 104.334C3467.75 133.815 3476.15 166.29 3476.15 201.76L3476.15 310.24C3476.15 345.709 3467.75 378.184 3450.93 407.665C3434.12 437.146 3411.2 460.408 3382.18 477.452C3353.16 494.496 3320.92 503.017 3285.45 503.017L3150.02 503.017ZM3281.99 422.175C3301.8 422.175 3320.11 417.223 3336.93 407.32C3353.74 397.416 3367.1 384.057 3377 367.244C3386.9 350.431 3391.86 331.89 3391.86 311.622L3391.86 199.687C3391.86 179.879 3386.9 161.569 3377 144.755C3367.1 127.942 3353.74 114.583 3336.93 104.68C3320.11 94.7761 3301.8 89.8242 3281.99 89.8242L3204.61 89.8242L3204.61 422.175L3281.99 422.175ZM2656.39 503.018C2651.78 503.018 2647.87 501.521 2644.64 498.526C2641.42 495.532 2639.81 491.732 2639.81 487.125C2639.81 484.823 2640.04 482.98 2640.5 481.598L2790.44 20.7288C2791.82 16.1223 2794.47 12.4373 2798.38 9.67334C2802.3 6.90967 2806.79 5.52759 2811.85 5.52759L2865.75 5.52759C2870.82 5.52759 2875.31 6.90942 2879.22 9.67334C2883.14 12.4373 2885.79 16.1223 2887.17 20.7288L3037.11 481.598C3037.57 482.98 3037.8 484.823 3037.8 487.125C3037.8 491.732 3036.19 495.532 3032.96 498.526C3029.74 501.521 3025.82 503.018 3021.22 503.018L2971.47 503.018C2966.4 503.018 2961.91 501.521 2957.99 498.526C2954.08 495.532 2951.43 491.732 2950.05 487.125L2918.95 387.627L2757.27 387.627L2726.18 487.125C2724.79 491.732 2722.15 495.532 2718.23 498.526C2714.31 501.521 2709.82 503.018 2704.76 503.018L2656.39 503.018ZM2894.77 309.549L2838.11 125.063L2781.45 309.549L2894.77 309.549ZM2360.37 503.017C2352.08 503.017 2345.05 500.138 2339.3 494.38C2333.54 488.622 2330.66 481.598 2330.66 473.306L2330.66 23.4924C2330.66 19.3467 2332.04 15.8918 2334.81 13.1279C2337.57 10.364 2341.02 8.98218 2345.17 8.98218L2400.45 8.98218C2404.59 8.98218 2408.05 10.364 2410.81 13.1279C2413.57 15.8918 2414.96 19.3467 2414.96 23.4924L2414.96 422.175L2575.26 422.175C2579.4 422.175 2582.86 423.557 2585.62 426.321C2588.39 429.085 2589.77 432.54 2589.77 436.685L2589.77 488.507C2589.77 492.653 2588.39 496.108 2585.62 498.872C2582.86 501.635 2579.4 503.017 2575.26 503.017L2360.37 503.017ZM1866.74 503.018C1862.13 503.018 1858.22 501.521 1854.99 498.526C1851.77 495.532 1850.16 491.732 1850.16 487.125C1850.16 484.823 1850.39 482.98 1850.85 481.598L2000.78 20.7288C2002.17 16.1223 2004.82 12.4373 2008.73 9.67334C2012.65 6.90967 2017.14 5.52759 2022.2 5.52759L2076.1 5.52759C2081.17 5.52759 2085.66 6.90942 2089.57 9.67334C2093.49 12.4373 2096.14 16.1223 2097.52 20.7288L2247.46 481.598C2247.92 482.98 2248.15 484.823 2248.15 487.125C2248.15 491.732 2246.54 495.532 2243.31 498.526C2240.09 501.521 2236.17 503.018 2231.56 503.018L2181.82 503.018C2176.75 503.018 2172.26 501.521 2168.34 498.526C2164.43 495.532 2161.78 491.732 2160.4 487.125L2129.3 387.627L1967.62 387.627L1936.53 487.125C1935.14 491.732 1932.5 495.532 1928.58 498.526C1924.66 501.521 1920.17 503.018 1915.11 503.018L1866.74 503.018ZM2105.12 309.549L2048.46 125.063L1991.8 309.549L2105.12 309.549ZM1494.72 503.017C1490.57 503.017 1487.12 501.635 1484.35 498.872C1481.59 496.108 1480.21 492.653 1480.21 488.507L1480.21 38.6934C1480.21 30.4019 1483.08 23.3772 1488.84 17.6191C1494.6 11.8613 1501.63 8.98218 1509.92 8.98218L1632.91 8.98218C1661.93 8.98218 1688.76 16.1221 1713.4 30.4019C1738.05 44.6816 1757.63 64.0286 1772.14 88.4424C1786.65 112.856 1793.9 139.343 1793.9 167.903C1793.9 196.923 1786.65 223.64 1772.14 248.054C1757.63 272.468 1738.05 291.814 1713.4 306.094C1688.76 320.374 1661.93 327.514 1632.91 327.514L1564.5 327.514L1564.5 488.507C1564.5 492.653 1563.12 496.108 1560.36 498.872C1557.59 501.635 1554.14 503.017 1549.99 503.017L1494.72 503.017ZM1629.45 248.054C1651.56 248.054 1670.45 240.223 1686.11 224.561C1701.77 208.899 1709.6 190.013 1709.6 167.903C1709.6 146.252 1701.77 127.597 1686.11 111.935C1670.45 96.2732 1651.56 88.4424 1629.45 88.4424L1564.5 88.4424L1564.5 248.054L1629.45 248.054ZM954.789 503.017C946.498 503.017 939.473 500.138 933.715 494.38C927.957 488.622 925.078 481.598 925.078 473.306L925.078 38.6934C925.078 30.4019 927.957 23.3772 933.715 17.6191C939.473 11.8613 946.498 8.98218 954.789 8.98218L1190.41 8.98218C1194.55 8.98218 1198.01 10.364 1200.77 13.1279C1203.53 15.8918 1204.92 19.3467 1204.92 23.4924L1204.92 75.3142C1204.92 79.46 1203.53 82.9148 1200.77 85.6785C1198.01 88.4424 1194.55 89.8242 1190.41 89.8242L1009.38 89.8242L1009.38 207.287L1144.11 207.287C1148.26 207.287 1151.71 208.669 1154.48 211.433C1157.24 214.197 1158.62 217.652 1158.62 221.797L1158.62 270.855C1158.62 275.001 1157.24 278.456 1154.48 281.22C1151.71 283.984 1148.26 285.365 1144.11 285.365L1009.38 285.365L1009.38 422.175L1190.41 422.175C1194.55 422.175 1198.01 423.557 1200.77 426.321C1203.53 429.085 1204.92 432.54 1204.92 436.685L1204.92 488.507C1204.92 492.653 1203.53 496.108 1200.77 498.872C1198.01 501.635 1194.55 503.017 1190.41 503.017L954.789 503.017ZM449.411 503.017C445.265 503.017 441.81 501.635 439.046 498.872C436.282 496.108 434.901 492.653 434.901 488.507L434.901 23.4924C434.901 19.3467 436.282 15.8918 439.046 13.1279C441.81 10.364 445.265 8.98218 449.411 8.98218L504.688 8.98218C508.833 8.98218 512.288 10.364 515.052 13.1279C517.815 15.8918 519.198 19.3467 519.198 23.4924L519.198 210.051L723.721 210.051L723.721 23.4924C723.721 19.3467 725.103 15.8918 727.867 13.1279C730.631 10.364 734.085 8.98218 738.231 8.98218L793.508 8.98218C797.654 8.98218 801.108 10.364 803.872 13.1279C806.636 15.8918 808.018 19.3467 808.018 23.4924L808.018 488.507C808.018 492.653 806.636 496.108 803.872 498.872C801.108 501.635 797.654 503.017 793.508 503.017L738.231 503.017C734.085 503.017 730.631 501.635 727.867 498.872C725.103 496.108 723.721 492.653 723.721 488.507L723.721 289.511L519.198 289.511L519.198 488.507C519.198 492.653 517.815 496.108 515.052 498.872C512.288 501.635 508.833 503.017 504.688 503.017L449.411 503.017ZM145.101 503.017C140.956 503.017 137.501 501.635 134.737 498.872C131.973 496.108 130.591 492.653 130.591 488.507L130.591 89.8242L14.51 89.8242C10.3643 89.8242 6.90967 88.4424 4.14575 85.6785C1.38184 82.9148 0 79.46 0 75.3142L0 23.4924C0 19.3467 1.38184 15.8918 4.14575 13.1279C6.90967 10.364 10.3643 8.98218 14.51 8.98218L330.969 8.98218C335.115 8.98218 338.57 10.364 341.333 13.1279C344.097 15.8918 345.479 19.3467 345.479 23.4924L345.479 75.3142C345.479 79.46 344.097 82.9148 341.333 85.6785C338.57 88.4424 335.115 89.8242 330.969 89.8242L214.888 89.8242L214.888 488.507C214.888 492.653 213.506 496.108 210.742 498.872C207.979 501.635 204.524 503.017 200.378 503.017L145.101 503.017Z" id="THE-PALADIN-NETWORK" fill="currentColor" fill-rule="evenodd" stroke="none" />
</svg>