<?xml version="1.0" encoding="utf-8"?>
<svg width="1521px" height="512px" viewBox="0 0 1521 512" version="1.1" xmlns:xlink="http://www.w3.org/1999/xlink" xmlns="http://www.w3.org/2000/svg">
  <desc>Created with Lunacy</desc>
  <defs>
    <path d="M0 0L222.426 0L222.426 512L0 512L0 0Z" id="path_1" />
    <clipPath id="mask_1">
      <use xlink:href="#path_1" />
    </clipPath>
  </defs>
  <g id="paladin-news-full-logo-horizontal">
    <g id="The-Paladin-tower" transform="translate(441.1277 0)">
      <path d="M0 0L222.426 0L222.426 512L0 512L0 0Z" id="Background" fill="none" fill-rule="evenodd" stroke="none" />
      <g clip-path="url(#mask_1)">
        <g id="Group" transform="translate(10.1511 4.8029284)">
          <path d="M93.4031 0.547911C93.1933 0.915099 92.8785 4.63971 92.7736 8.83644C92.5638 17.2823 92.0916 18.9086 88.6293 22.4233C87.6851 23.4201 86.7408 24.8365 86.531 25.5184C86.2162 26.7774 86.5834 30.6594 87.2129 32.8102C87.6851 34.5938 86.1113 34.6987 76.0916 33.8069C54.7932 31.8135 47.9211 31.3414 47.6063 31.8135C47.449 32.0758 45.9801 33.0725 44.4063 34.0692C42.8326 35.0135 40.1047 36.7971 38.3735 37.9512C32.9703 41.6758 16.1833 53.007 7.78989 58.6201C-0.760938 64.3381 -1.49537 65.2824 1.86202 66.1742C2.85874 66.4365 4.27513 67.066 4.9571 67.643C5.69153 68.1676 6.53087 68.6398 6.79317 68.6398C7.10792 68.6398 10.2555 70.0562 13.7178 71.7348C17.2325 73.466 20.6948 75.0398 21.4817 75.1972L22.8981 75.5644L22.8981 84.0627C22.8456 88.6791 22.6358 96.2857 22.3735 100.902C21.9538 108.823 21.4817 117.427 20.2752 142.607C20.0129 148.535 19.5407 157.978 19.226 163.591C18.9637 169.204 18.2817 184.102 17.6522 196.64C17.0751 209.178 16.2358 225.597 15.7637 233.099C15.344 240.601 14.767 252.142 14.5047 258.804C13.9801 272.286 12.826 296.522 11.5669 318.45C11.1473 326.424 10.5702 338.594 10.3079 345.466C10.0456 352.338 9.5735 361.729 9.25875 366.345C8.94399 370.961 8.47186 380.299 8.20957 387.066C7.94727 393.833 7.47514 402.594 7.16038 406.476C6.89809 410.358 6.42596 419.591 6.1112 426.935C5.84891 434.279 5.27186 445.978 4.85218 452.902C4.43251 459.827 3.803 470.581 3.48825 476.771C3.17349 482.961 2.80628 489.047 2.70136 490.253L2.43907 492.509L4.58989 492.509C6.58333 492.509 6.74071 492.404 6.47842 491.355C6.26858 490.725 6.3735 487.945 6.63579 485.165C6.89809 482.384 7.37022 474.253 7.68497 467.066C7.94727 459.827 8.47186 449.912 8.73416 445.034C9.20629 437.322 9.67842 428.142 11.1997 397.138C11.5145 391.158 11.5669 390.738 12.5637 390.738C13.1407 390.738 15.5538 390.266 17.862 389.689C27.6194 387.171 30.2948 386.594 36.1178 385.44C39.4752 384.758 42.4129 384.338 42.5703 384.496C42.885 384.863 41.8883 413.558 41.5211 414.712C41.3637 415.132 40.4194 415.394 39.2653 415.394C38.1112 415.394 36.1703 415.552 34.8588 415.709L32.4981 416.024L32.1834 428.457C32.026 435.276 31.5014 443.879 31.0817 447.656C30.6096 451.381 30.2424 458.725 30.2424 463.866L30.2424 473.257L34.7014 472.889L39.1604 472.575L39.1604 478.87L39.1604 485.165L40.8916 485.165L42.6752 485.165L42.9899 476.142C43.1998 471.158 43.6719 459.25 44.0916 449.755C44.5113 440.207 45.1408 421.584 45.508 408.312C45.8227 395.04 46.2949 384.024 46.4522 383.814C46.6096 383.604 52.4326 383.656 59.3572 383.919C76.5637 384.601 100.065 385.388 120.472 386.017C129.862 386.279 140.669 386.699 144.498 386.856L151.475 387.171L151.318 398.817L151.161 410.411L152.892 410.568C154.57 410.725 154.57 410.725 154.57 408.47C154.57 407.211 154.78 399.027 155.095 390.214C155.987 363.197 157.193 322.122 157.98 291.328C158.4 275.171 158.977 253.558 159.292 243.328C159.606 233.099 160.184 212.64 160.603 197.951C161.023 183.21 161.757 157.243 162.177 140.246C162.597 123.197 163.174 101.951 163.488 93.0332C163.751 84.0627 164.066 74.3053 164.17 71.3676C164.275 66.0168 164.275 65.9119 165.902 64.548C167.318 63.2889 182.898 51.9578 189.718 47.1315C193.233 44.666 193.128 43.984 189.298 43.984C187.62 43.984 184.42 43.7742 182.111 43.4594C177.495 42.9348 159.869 41.2561 145.915 40.0496C141.036 39.6299 132.17 38.7905 126.243 38.2135C120.315 37.6364 112.446 36.902 108.669 36.5873C104.944 36.2201 101.587 35.7479 101.272 35.4856C100.59 35.0135 101.01 32.443 102.006 30.502C103.108 28.5086 102.741 25.6233 101.272 23.6299C100.485 22.6332 99.1736 20.4299 98.3867 18.7512C97.0753 16.0758 96.8654 14.9742 96.813 10.7774C96.7605 8.15448 96.6031 4.63971 96.4457 3.06594C96.131 0.652803 95.9211 0.180691 94.9244 0.02332C94.3474 -0.0816045 93.613 0.180691 93.4031 0.547911L93.4031 0.547911ZM96.6556 23.8922C98.4916 25.4135 98.9638 26.2004 98.9638 27.4594C98.9638 29.6102 95.8687 32.443 93.5605 32.443C92.1441 32.443 90.4654 30.4496 90.2031 28.2987C89.9408 26.5152 90.1506 25.9381 91.672 24.102C92.6687 22.9479 93.6654 21.9512 93.8752 21.9512C94.1375 21.9512 95.3441 22.843 96.6556 23.8922L96.6556 23.8922ZM94.9244 33.8069C95.5539 34.4364 94.6097 35.5905 93.4556 35.5905C91.9342 35.5905 91.1998 34.5938 92.1965 33.9643C93.0359 33.4397 94.4523 33.3348 94.9244 33.8069L94.9244 33.8069ZM62.5047 36.3774C66.5441 36.7971 73.2588 37.4266 77.4556 37.6889C81.6523 37.9512 88.2621 38.5282 92.1441 39.0004C105.049 40.4168 120.157 41.8332 125.456 42.1479C130.649 42.4627 133.482 42.725 157.718 45.243C164.485 45.9774 172.721 46.7119 175.974 46.9217C179.174 47.1315 181.849 47.4463 181.849 47.7086C181.849 47.9709 181.324 48.4955 180.643 48.9151C179.646 49.5971 178.124 49.6496 170.308 49.2299C165.272 48.9676 157.246 48.3905 152.472 47.9709C147.698 47.5512 140.144 46.9742 135.685 46.6069C131.226 46.2922 125.456 45.8201 122.833 45.5578C120.262 45.2955 114.439 44.8233 109.98 44.5086C105.521 44.1938 98.9113 43.7217 95.2916 43.4069C91.672 43.1446 84.4326 42.5676 79.1867 42.1479C73.8883 41.7283 68.8523 41.2561 67.908 41.0987C66.9637 40.9414 63.3965 40.6266 59.9342 40.3643C56.5244 40.102 53.5342 39.6823 53.3244 39.42C53.1145 39.2102 52.7473 38.2135 52.5375 37.2692C52.1178 35.2233 51.8555 35.2758 62.5047 36.3774L62.5047 36.3774ZM48.8653 37.4266C49.0227 38.161 49.2325 39.3151 49.3899 39.9971C49.5998 41.0463 49.2325 41.5184 47.1342 42.725C45.1932 43.8791 26.5702 56.0496 13.3505 64.8627C11.7768 65.8594 10.9899 66.0692 9.52103 65.8069C8.52431 65.5971 7.63251 65.2299 7.63251 64.9676C7.58005 64.6528 7.52759 64.2332 7.47513 63.9709C7.42267 63.7086 14.8719 58.5676 23.9473 52.4824C33.0227 46.3971 42.1506 40.2594 44.144 38.7905C46.1899 37.3741 47.9735 36.1676 48.1834 36.1151C48.3932 36.1151 48.708 36.6922 48.8653 37.4266L48.8653 37.4266ZM64.0785 44.5086C66.9637 44.7709 72.9965 45.243 77.4555 45.5578C81.9145 45.8725 90.5703 46.607 96.6031 47.1315C109.246 48.2857 125.928 49.6496 136.21 50.2791C140.092 50.5414 147.069 51.1184 151.685 51.5381C156.301 51.9578 163.331 52.4824 167.318 52.6922C173.508 53.007 174.4 53.1643 173.875 53.7938C172.983 54.843 165.587 59.7217 164.852 59.7217C164.328 59.7217 159.082 59.1971 143.029 57.6233C140.301 57.361 132.275 56.5742 125.193 55.8397C118.111 55.1053 109.508 54.266 106.046 53.9512C102.583 53.6364 96.2358 53.0594 91.8817 52.6397C87.5801 52.2201 81.285 51.643 77.9801 51.3283C63.1867 50.0168 59.7768 49.5971 58.1506 48.9676C56.4719 48.2332 55.4228 46.502 55.4228 44.4561C55.4228 43.5643 55.685 43.4594 57.1539 43.6692C58.0457 43.8266 61.1932 44.1938 64.0785 44.5086L64.0785 44.5086ZM51.8031 46.1348C52.0129 46.8167 52.1703 48.1807 52.2228 49.0725C52.2752 50.6463 52.0129 50.9086 49.2851 52.3774C47.6064 53.2692 44.826 54.8954 43.0949 55.9971C41.3637 57.0987 38.6359 58.7249 37.0621 59.5643C32.8129 61.9249 25.626 66.2266 22.7932 68.0626C20.1703 69.7413 18.2817 70.0561 16.5506 69.1643C15.0817 68.3249 15.2916 67.7479 17.4949 66.5938C20.3276 65.1774 46.4523 47.8135 48.4982 45.9774C50.4916 44.2463 51.2785 44.2987 51.8031 46.1348L51.8031 46.1348ZM64.0785 53.4791L66.7015 53.5316L64.6031 54.0037C61.0883 54.7381 59.0949 54.5807 59.0949 53.6365C59.0949 53.007 59.4096 52.8496 60.3014 53.1119C60.9309 53.2693 62.6621 53.4267 64.0785 53.4791L64.0785 53.4791ZM53.8489 54.9479C53.5866 55.525 52.7998 56.1545 52.1702 56.3643C51.4883 56.5742 49.9145 57.466 48.603 58.3578C46.0325 60.0889 35.4883 66.5414 35.1735 66.5414C35.0686 66.5414 32.9178 67.8004 30.3473 69.3217C24.7341 72.6791 23.9473 73.0463 23.9473 72.102C23.9473 71.6824 28.144 68.9545 33.285 66.0168C38.3735 63.0791 43.1997 60.1938 43.9866 59.6692C44.7735 59.0922 45.5604 58.6725 45.7702 58.6725C45.9801 58.6725 46.5571 58.3053 47.0293 57.8857C48.026 56.9938 53.3768 53.9512 54.0063 53.9512C54.2161 53.9512 54.1637 54.4233 53.8489 54.9479L53.8489 54.9479ZM87.4228 56.0496C86.4786 56.6791 78.6621 56.6791 77.1933 56.0496C76.5113 55.7873 78.3474 55.5775 82.1769 55.5775C86.2687 55.525 87.9474 55.6824 87.4228 56.0496L87.4228 56.0496ZM109.456 58.2004C109.456 58.62 108.197 58.6725 105.469 58.5152C100.065 58.0955 99.908 57.6234 105.154 57.6234C107.934 57.6234 109.456 57.8332 109.456 58.2004L109.456 58.2004ZM69.6391 58.9873C75.1998 59.407 79.9211 59.8791 80.1309 59.984C80.2883 60.1414 84.3277 60.4562 89.049 60.7709C93.7703 61.0857 99.1211 61.5578 100.957 61.8726C102.741 62.1348 107.829 62.607 112.236 62.8693C116.642 63.1316 124.092 63.7086 128.865 64.1808C146.911 65.807 149.377 66.0168 154.833 66.3841L160.498 66.6988L160.183 76.7185C159.974 82.2267 159.606 99.3808 159.292 114.804C158.977 130.227 158.662 143.709 158.61 144.705L158.452 146.541L154.518 146.384C150.111 146.227 137.783 145.282 133.849 144.758C131.331 144.443 131.226 144.391 131.383 142.869C131.646 140.141 132.59 137.938 133.534 137.623C134.793 137.256 134.951 135.525 136 107.04C137.049 79.184 136.839 77.1906 132.433 72.889C129.81 70.3185 127.974 69.5316 124.144 69.4791C118.898 69.4267 115.331 71.9447 112.708 77.5578L111.344 80.4431L110.977 107.722C110.715 122.725 110.715 135.158 110.924 135.368C111.134 135.525 111.764 135.787 112.341 135.892C113.18 136.05 113.495 136.679 113.862 139.355C114.124 141.138 114.177 142.764 114.019 142.922C113.862 143.079 110.347 143.027 106.203 142.764L98.7014 142.345L98.7014 139.25C98.7539 136.259 99.2785 135.263 101.219 134.581C101.954 134.371 102.478 126.45 103.16 105.361C103.947 80.6004 103.842 76.9808 101.954 73.7808C96.026 63.6562 82.4916 65.4398 79.2916 76.7709C78.767 78.6595 78.3473 85.5841 77.9277 100.902C77.5604 112.705 77.1932 124.719 77.0883 127.499C76.8785 132.273 76.9309 132.64 77.8227 132.64C79.7113 132.64 80.5506 133.846 80.9178 137.204L81.285 140.509L77.4031 140.509C75.2522 140.509 69.5867 140.246 64.7604 139.879L55.9473 139.25L55.9473 133.689C55.9473 130.646 56.2096 123.355 56.4719 117.479C57.1014 105.204 58.5703 65.0201 58.5703 60.8759C58.5703 59.407 58.7801 58.148 59.0424 58.148C59.3047 58.148 64.0785 58.5152 69.6391 58.9873L69.6391 58.9873ZM54.426 74.7775C53.6916 86.3185 52.9047 89.5185 52.8522 80.8627C52.7998 75.0398 52.7998 74.9349 51.1735 73.0988C50.1768 71.9971 49.0752 71.2627 48.3407 71.2627C46.6096 71.2627 44.0916 73.5709 43.6194 75.5644C42.9375 78.607 42.5178 125.296 43.1473 125.296C44.2489 125.296 44.826 135.577 43.8817 137.414C43.3571 138.305 43.5145 138.41 44.8784 138.41C45.7702 138.41 47.0817 137.833 47.9735 137.099C48.8653 136.364 49.8096 135.787 50.1243 135.787C51.1735 135.787 51.7506 133.269 51.7506 128.915L51.7506 124.666L49.3899 124.876C46.5571 125.086 46.1899 124.141 48.9702 123.564C50.0194 123.355 51.1211 122.882 51.3309 122.515C51.5407 122.2 51.803 119.158 51.8555 115.853C51.908 110.764 52.0129 111.394 52.3276 120.05C52.5375 125.82 52.485 131.853 52.2227 133.951C51.9604 135.945 51.6981 138.148 51.6457 138.83C51.4883 139.827 49.2325 141.086 37.4817 146.909C29.7702 150.686 23.3178 153.728 23.2128 153.571C23.1079 153.466 23.2128 151.473 23.4227 149.164C23.685 146.856 24.1571 137.886 24.4194 129.23C24.7342 120.574 25.2587 110.187 25.521 106.148C25.8358 102.109 26.2555 93.7676 26.5178 87.5775C26.885 76.5086 26.9374 76.3512 28.1965 75.3545C28.8784 74.7775 33.7047 71.8398 38.8981 68.7971C44.0916 65.807 49.0752 62.7643 49.9145 62.1348C50.8063 61.4529 52.2227 60.5611 53.0621 60.0889L54.6358 59.3021L54.7932 62.2398C54.8981 63.9185 54.7407 69.5316 54.426 74.7775L54.426 74.7775ZM95.2917 72.1545C97.6523 73.7808 98.9113 75.6693 99.5408 78.5021C100.17 81.5972 99.5408 115.433 98.8064 116.168C98.4917 116.483 91.9867 115.958 84.0654 114.961L81.4949 114.646L81.9146 97.4398C82.1244 87.9972 82.4916 79.3939 82.7015 78.3447C83.2261 75.9841 85.0621 73.2037 86.8458 72.1021C88.6818 71.0004 93.613 71.0004 95.2917 72.1545L95.2917 72.1545ZM127.239 73.6234C129.81 74.9348 132.38 78.3447 132.747 81.0201C133.062 83.2758 132.17 118.528 131.751 118.895C131.541 119.105 117.744 118.004 115.908 117.636L114.701 117.427L114.701 101.007C114.701 91.4069 114.964 83.2758 115.279 81.4397C115.961 77.6627 117.744 75.1447 120.682 73.8332C123.305 72.6266 125.298 72.5742 127.239 73.6234L127.239 73.6234ZM49.1276 96.9676C49.1276 115.905 49.0227 119.525 48.3932 119.525C47.9735 119.525 47.5014 119.158 47.344 118.686C46.9243 117.584 46.9243 75.1971 47.3965 74.7775C47.5538 74.5676 48.026 74.4102 48.4457 74.4102C49.0227 74.4102 49.1276 78.502 49.1276 96.9676L49.1276 96.9676ZM93.3507 124.194C95.9212 124.456 98.2294 124.876 98.5441 125.191C98.8589 125.505 98.9113 126.712 98.5966 128.496C98.1769 131.171 98.072 131.328 96.4457 131.486C94.7671 131.643 94.7671 131.696 94.7671 134.528L94.7671 137.361L89.8359 137.361L84.9048 137.361L84.4851 133.899C84.1703 130.699 84.0129 130.332 82.7015 129.86C81.1802 129.283 80.6031 127.866 80.6031 124.614L80.6031 123.04L84.6949 123.407C86.8982 123.617 90.8326 123.932 93.3507 124.194L93.3507 124.194ZM124.616 126.869C128.76 127.132 131.279 127.551 131.541 127.971C131.96 128.653 131.593 131.591 130.911 133.532C130.649 134.266 130.02 134.738 129.442 134.738C128.551 134.738 128.288 135.21 128.026 137.361C127.816 138.83 127.554 140.089 127.344 140.194C127.187 140.299 125.036 140.246 122.57 140.036L118.111 139.722L117.849 136.05C117.587 132.535 117.534 132.377 116.17 132.22C114.964 132.063 114.754 131.8 114.597 129.597C114.439 128.233 114.439 126.974 114.544 126.712C114.806 126.24 116.485 126.24 124.616 126.869L124.616 126.869ZM75.0949 144.443C81.1802 144.863 89.6786 145.44 93.9802 145.755C98.3343 146.069 104.472 146.542 107.62 146.804C110.82 147.119 117.587 147.591 122.675 147.853C127.816 148.168 132.275 148.483 132.643 148.64C133.01 148.745 138.833 149.217 145.6 149.689C152.367 150.109 157.98 150.581 158.085 150.633C158.138 150.738 157.98 157.768 157.718 166.266C157.456 174.764 157.089 190.607 156.879 201.519C156.616 216.364 156.407 221.453 155.882 221.61C155.567 221.768 151.843 221.61 147.698 221.296C143.554 220.981 135.528 220.509 129.915 220.246C124.302 219.984 116.38 219.512 112.341 219.197C108.302 218.935 100.17 218.41 94.2425 218.148C83.7507 217.623 69.6916 216.837 58.5703 216.155L53.0621 215.787L53.2195 206.345C53.4293 195.905 54.6883 159.656 55.2129 149.532L55.5801 143.079L59.8293 143.394C62.19 143.551 69.0621 144.024 75.0949 144.443L75.0949 144.443ZM51.226 166.476C50.9112 176.863 50.3342 188.456 49.9145 192.181C49.4424 195.958 49.0752 202.935 49.0227 207.761L48.9702 216.469L44.1965 218.305C38.5309 220.508 30.7145 223.604 24.262 226.227L19.5932 228.115L19.9604 224.023C20.2752 219.827 20.9571 203.145 21.8489 175.709C22.426 158.24 22.4784 157.977 25.626 156.771C29.4555 155.25 47.1866 146.646 49.0227 145.44L50.9637 144.128L51.3309 145.859C51.5407 146.804 51.4883 156.089 51.226 166.476L51.226 166.476ZM71.9474 220.771C78.0326 221.086 87.79 221.663 93.7179 222.082C99.6458 222.45 107.41 222.922 111.029 223.132C119.738 223.499 151.056 225.492 153.993 225.859L156.249 226.122L155.934 231.682C155.777 234.777 155.357 249.204 155.043 263.787C154.728 278.371 154.308 290.437 154.151 290.594C153.784 290.961 143.816 290.541 128.079 289.545C123.2 289.282 117.062 288.915 114.439 288.81C109.088 288.6 109.665 289.23 109.875 283.459C109.98 280.889 109.77 281.046 114.806 279.263C118.374 278.004 121.679 275.276 124.249 271.341L126.505 267.932L131.226 268.246C139.147 268.771 138.308 267.512 138.151 278.633L138.046 288.181L139.62 288.181L141.193 288.181L141.561 279.787C141.77 275.171 142.295 263.577 142.767 254.082C143.869 230.895 143.816 229.899 142.505 229.532C140.406 229.007 140.039 230.214 139.672 238.974C139.462 243.538 139.2 248.627 139.043 250.358L138.728 253.453L135.213 253.086C133.325 252.928 130.492 252.771 128.97 252.771C126.82 252.771 126.138 252.561 125.875 251.827C124.774 248.522 122.78 244.85 121.102 243.118C119.056 240.968 114.702 238.607 112.761 238.607C112.079 238.607 111.502 238.45 111.502 238.187C111.449 237.977 111.292 235.354 111.082 232.312L110.767 226.804L109.193 226.804L107.62 226.804L107.62 233.623L107.62 240.391L111.502 241.859C117.272 243.958 122.046 249.204 122.046 253.453C122.046 255.499 121.469 255.184 119.843 252.299C118.006 249.099 115.279 246.686 111.869 245.164C104.997 242.174 101.692 242.174 95.5015 245.164C91.1999 247.263 87.9474 250.463 87.0031 253.715C86.0064 257.073 86.2162 262.423 87.4753 265.099C88.8917 268.089 92.4589 271.394 96.2359 273.125C98.754 274.279 99.9605 274.489 103.685 274.489C110.715 274.489 115.856 271.918 119.633 266.463C120.787 264.836 121.154 263.525 121.416 260.587L121.784 256.758L129.915 256.915C134.374 256.968 138.203 257.177 138.413 257.282C138.938 257.597 138.938 260.955 138.466 263.263L138.151 264.994L134.688 264.627C132.8 264.469 129.547 264.154 127.554 263.997L123.882 263.63L122.361 266.882C119.947 272.128 114.702 275.958 108.249 277.164L106.308 277.532L106.308 283.092L106.308 288.6L103.108 288.233C101.324 288.076 99.331 287.918 98.6491 287.918C97.4425 287.918 97.4425 287.761 97.2851 282.515L97.1277 277.164L95.2917 276.273C89.9933 273.597 86.2162 269.505 84.2228 264.154L83.0687 261.164L78.2949 261.164C75.672 261.164 72.2621 261.007 70.7933 260.85C68.0654 260.482 68.0129 260.43 68.0129 258.804C68.0129 256.233 68.59 253.925 69.272 253.663C69.5867 253.558 72.3146 253.61 75.3572 253.82C78.3998 253.977 81.1802 254.03 81.5474 253.925C81.9146 253.768 82.9113 252.351 83.7507 250.725C85.272 247.63 88.7343 244.01 91.5671 242.594C92.4589 242.122 94.3999 241.44 95.9212 241.02C98.7015 240.338 98.7015 240.286 99.1212 237.82C99.331 236.456 99.4359 233.413 99.3835 231.105L99.2261 226.804L97.6523 226.804L96.0786 226.804L95.7113 231.735C95.554 234.41 95.1868 236.823 94.9245 237.033C94.7146 237.243 93.3507 237.82 91.8818 238.292C88.1048 239.499 83.8031 243.118 81.6523 246.895L79.8162 250.043L74.5703 249.781C71.6851 249.623 69.2195 249.414 69.1146 249.309C68.8523 249.099 68.9572 241.387 69.3769 231.735C69.6916 224.338 69.6916 224.076 68.6424 223.813C66.5441 223.236 66.2818 224.023 65.8097 231.892C65.4425 238.554 63.8162 279.42 63.8162 281.781C63.8162 282.41 64.2359 282.673 65.3375 282.673C66.8588 282.673 66.9113 282.62 67.1736 279.368C67.331 277.584 67.5933 273.597 67.8031 270.45L68.1179 264.836L74.308 264.836L80.4982 264.836L81.2851 267.197C82.3867 270.397 85.272 273.755 89.6785 277.059C93.6654 280.05 94.2425 280.994 94.2425 284.823L94.2425 287.394L91.7769 287.394C90.3605 287.394 81.7048 287.027 72.472 286.607C63.2392 286.187 54.426 285.82 52.8523 285.82L50.0195 285.82L50.3867 280.155C50.5965 277.059 50.9637 266.725 51.226 257.177C51.9605 232.05 52.2752 223.341 52.59 221.4L52.8523 219.669L56.8916 219.932C59.0949 220.141 65.9146 220.509 71.9474 220.771L71.9474 220.771ZM48.708 221.4C48.9178 222.135 48.2883 240.705 47.7637 248.994C47.5014 253.4 47.3965 253.82 46.7145 252.876C46.2949 252.299 45.508 250.358 44.9834 248.574C44.4063 246.791 43.3047 244.377 42.4653 243.223C41.1014 241.23 40.9965 240.6 40.8391 235.354C40.6293 229.007 40.3145 228.535 37.6391 229.899C36.7998 230.371 35.3309 230.738 34.4391 230.738C33.5473 230.738 32.8653 231 32.8129 231.368C32.8129 231.735 32.7604 234.41 32.708 237.295C32.603 242.332 32.5506 242.646 30.8719 244.85C29.9276 246.161 28.7735 248.469 28.3538 249.991C27.8817 251.564 27.1998 253.453 26.7801 254.24C26.3604 255.027 26.0456 256.076 26.0456 256.548C26.0456 257.755 25.4686 259.066 24.9965 259.066C24.7342 259.066 24.6293 258.541 24.7342 257.859C25.9407 250.777 26.4653 236.404 25.5735 235.04C24.8391 233.833 23.2653 234.568 22.7932 236.246C22.426 237.505 21.4292 273.755 21.3243 287.551L21.3243 291.118L23.0555 290.961L24.7342 290.804L24.8915 281.991C24.9965 273.964 25.1014 273.178 25.9407 273.335C26.4653 273.44 27.7243 275.276 29.0358 277.951C30.9243 281.833 31.2391 282.987 31.5014 286.922L31.7637 291.381L29.2981 292.22C27.9342 292.64 24.5243 293.794 21.6915 294.738C18.8587 295.682 16.4981 296.364 16.3932 296.26C16.1833 296.05 16.4456 290.122 17.862 261.427C18.3342 251.879 18.8587 241.44 19.0161 238.187L19.3309 232.259L21.0096 231.525C21.9014 231.105 26.6752 229.217 31.5539 227.328C36.485 225.387 42.1506 223.184 44.144 222.345C48.4981 220.561 48.4457 220.614 48.708 221.4L48.708 221.4ZM36.5375 234.148C36.5375 234.83 36.3277 235.565 36.0129 235.722C35.6982 235.932 35.4883 235.302 35.4883 234.148C35.4883 232.994 35.6982 232.365 36.0129 232.574C36.3277 232.732 36.5375 233.466 36.5375 234.148L36.5375 234.148ZM38.8981 245.217C41.1014 248.417 42.5703 252.194 42.2031 253.4C42.0457 253.768 41.4162 253.191 40.7342 252.194C39.0555 249.833 37.0096 248.05 35.908 248.05C35.4358 248.05 34.3867 248.312 33.5998 248.574L32.1834 249.151L33.1801 247.682C35.0686 244.85 36.0129 242.542 36.0654 240.706C36.1703 239.079 36.1703 239.027 36.3801 240.391C36.5375 241.178 37.6391 243.381 38.8981 245.217L38.8981 245.217ZM110.295 248.312C112.603 249.256 116.013 252.299 117.115 254.45C117.534 255.237 117.849 257.282 117.849 259.066C117.849 263.63 115.803 266.515 110.505 269.295C107.725 270.817 101.167 270.712 97.2327 269.138C93.9278 267.774 91.4098 265.781 91.7245 264.732C92.0918 263.682 102.216 260.64 103.318 261.269C105.521 262.423 108.407 260.01 108.407 256.968C108.407 256.128 108.092 255.919 106.57 255.919C105.102 255.919 104.21 255.446 102.374 253.768C100.643 252.194 99.8033 251.722 98.9639 251.984C97.7049 252.404 97.6 253.925 98.7541 255.656C99.8033 257.282 99.3836 258.541 97.8098 258.541C96.7606 258.594 93.1409 259.696 90.3606 260.902C89.4688 261.269 89.4163 261.112 89.7835 258.489C90.7278 251.197 96.8131 246.633 104.787 247.21C106.728 247.368 109.193 247.84 110.295 248.312L110.295 248.312ZM36.6424 252.614C39.9473 256.496 38.8456 272.706 35.226 272.706C32.5505 272.706 31.8686 261.217 34.1768 254.292C35.121 251.46 35.4358 251.25 36.6424 252.614L36.6424 252.614ZM47.449 259.433L47.2916 263.525L44.826 263.682C41.8883 263.892 41.4687 263.158 42.0457 258.909C42.4654 255.761 42.885 255.394 45.6129 255.394L47.6064 255.394L47.449 259.433L47.449 259.433ZM28.6686 264.522C28.6686 267.617 27.8293 269.034 25.9408 269.034C24.944 269.034 24.8916 268.771 25.1014 266.201C25.3637 263.053 26.1506 261.689 27.6719 261.689C28.5112 261.689 28.6686 262.109 28.6686 264.522L28.6686 264.522ZM46.9244 275.958L46.767 286.083L43.8817 287.027C42.308 287.499 40.5768 288.076 40.1047 288.233C39.2654 288.496 39.1604 288.129 39.1604 285.138C39.1604 282.253 39.4227 281.256 41.2063 277.899C42.308 275.748 43.5145 272.706 43.8293 271.132C44.4588 268.142 45.6129 265.886 46.5047 265.886C46.8719 265.886 46.9768 269.506 46.9244 275.958L46.9244 275.958ZM33.0752 275.591C34.2817 276.483 36.3276 276.64 36.7998 275.853C36.9571 275.538 37.3243 275.328 37.5866 275.328C37.8489 275.328 37.5866 276.43 36.9571 277.742C36.0653 279.787 35.908 280.994 36.0653 285.243C36.2227 289.387 36.1178 290.279 35.4883 290.437C34.8063 290.541 34.7014 289.65 34.6489 285.191C34.5965 279.683 34.2293 278.214 32.1834 275.958C30.9768 274.646 31.5539 274.437 33.0752 275.591L33.0752 275.591ZM67.226 290.279C84.59 291.119 97.7572 291.853 116.538 292.902C123.777 293.322 134.951 293.951 141.456 294.266C147.961 294.581 153.416 295.001 153.679 295.21C153.888 295.42 153.836 304.548 153.574 315.512C152.577 353.02 151.895 378.41 151.79 380.771L151.685 383.132L148.328 383.027C146.439 382.974 137.574 382.659 128.656 382.345C101.377 381.4 77.9801 380.719 61.9801 380.351L46.7669 379.984L46.9243 371.328C46.9768 366.555 47.2915 357.846 47.5538 351.919C48.6555 329.099 49.1276 316.561 49.4424 303.919C49.5997 296.679 49.8096 290.489 49.9669 290.122C50.1768 289.335 48.7079 289.335 67.226 290.279L67.226 290.279ZM46.085 297.466C46.0325 301.295 45.8751 305.125 45.7178 306.017L45.4555 307.591L41.521 307.643C39.3702 307.643 37.4817 307.8 37.3243 307.958C37.1669 308.115 36.7997 313.204 36.5374 319.184C36.2227 325.217 35.6456 335.184 35.226 341.374C34.3866 353.23 34.1768 369.23 34.8587 369.23C35.0686 369.23 36.6424 368.863 38.3735 368.443C43.7768 367.131 43.4096 366.764 43.2522 374.056L43.0948 380.508L40.7342 380.928C36.4325 381.663 27.9341 383.446 23.9473 384.495C17.4948 386.069 12.3538 387.118 11.9866 386.856C11.7768 386.751 11.7768 384.076 11.9866 380.928C12.1964 377.833 12.721 367.236 13.1932 357.427C15.1341 315.722 16.0784 301.4 16.7604 300.666C17.1276 300.299 20.2227 299.092 23.685 297.938C27.1473 296.784 33.3899 294.633 37.5866 293.217C41.7833 291.8 45.4555 290.594 45.7178 290.594C46.0325 290.541 46.1899 293.112 46.085 297.466L46.085 297.466ZM44.4588 330.253C44.3014 341.846 43.9342 351.499 43.7244 351.761C43.2522 352.233 43.567 315.092 44.0391 313.361C44.1965 312.784 44.3539 311.525 44.3539 310.528C44.4063 309.532 44.5113 308.85 44.5637 308.954C44.6687 309.059 44.6162 318.659 44.4588 330.253L44.4588 330.253ZM40.367 326.056C40.6293 355.695 40.2096 365.19 38.6358 364.246C38.4784 364.141 38.5309 358.581 38.6883 351.814C38.8981 345.099 39.0555 333.296 39.108 325.532C39.1604 316.614 39.3703 311.525 39.685 311.525C39.9998 311.525 40.2621 316.823 40.367 326.056L40.367 326.056ZM36.2751 460.246C35.9604 467.643 35.803 468.378 34.8588 468.692C34.2817 468.85 33.7571 468.902 33.6522 468.797C33.5473 468.745 33.7047 467.433 33.9145 465.964C34.1768 464.496 34.4915 455.42 34.6489 445.768C34.8588 436.115 35.1735 426.463 35.3833 424.312C35.9079 418.279 36.7473 450.332 36.2751 460.246L36.2751 460.246ZM39.6993 445.663C39.5086 446.765 39.3178 445.978 39.3178 443.984C39.3178 441.938 39.5086 441.099 39.6993 441.991C39.8901 442.935 39.8901 444.614 39.6993 445.663L39.6993 445.663ZM39.6921 465.86C39.51 466.542 39.3279 466.122 39.3279 464.968C39.2368 463.814 39.4189 463.289 39.6921 463.761C39.8743 464.286 39.8743 465.23 39.6921 465.86L39.6921 465.86Z" id="Shape" fill="currentColor" fill-rule="evenodd" stroke="none" />
          <path d="M2.21498 6.92459C2.0576 10.7541 1.69038 21.5606 1.37562 30.9508C1.06086 40.3409 0.588719 53.8754 0.326418 61.0622C-0.250637 75.0163 -0.303101 75.0163 2.21498 75.0163C3.31664 75.0163 3.3691 74.754 3.68387 65.6786C3.8937 60.5901 4.26092 52.2491 4.57569 47.2131C4.83799 42.177 5.25767 29.4819 5.41504 18.9902L5.7298 0L4.156 0L2.52974 0L2.21498 6.92459L2.21498 6.92459Z" transform="translate(68.7357 61.295467)" id="Shape" fill="currentColor" fill-rule="evenodd" stroke="none" />
          <path d="M2.10156 0.629514C1.4196 1.73114 -0.468945 70.0328 0.108111 72.236C0.42287 73.3901 2.36386 74.2295 3.04584 73.5475C3.67534 72.918 5.51142 9.54754 5.14421 2.93769C4.93438 0.262295 4.82945 0 3.7278 0C3.04584 0 2.31141 0.314741 2.10156 0.629514L2.10156 0.629514Z" transform="translate(142.18686 67.065956)" id="Shape" fill="currentColor" fill-rule="evenodd" stroke="none" />
          <path d="M3.69962 0.426463C2.70289 0.898575 1.75863 1.79039 1.44388 2.62975C0.394695 5.41008 -0.129895 20.938 0.0274838 44.3348C0.1324 57.2921 0.342237 67.8364 0.604532 67.8364C1.44388 67.8364 7.58158 64.7938 8.5783 63.8495C9.52257 62.9577 9.62748 62.3282 9.47011 58.1839C9.31273 54.1446 9.15535 53.5151 8.26355 53.3053C7.00453 52.938 7.00453 52.8331 8.31601 51.4692C9.31273 50.42 9.36519 49.5282 9.47011 36.6757C9.7324 0.164167 9.88978 2.05268 6.84716 0.478909C5.6406 -0.150607 5.16847 -0.150607 3.69962 0.426463L3.69962 0.426463ZM6.11274 25.6068C6.21766 48.1642 6.1652 48.8987 4.53897 48.9511C4.01438 48.9511 3.96192 3.62645 4.48651 3.10186C5.79799 1.79038 5.95536 4.0986 6.11274 25.6068L6.11274 25.6068ZM5.16845 54.1971C5.16845 54.4594 4.8537 54.7217 4.43402 54.7217C4.01435 54.7217 3.48976 54.4594 3.33238 54.1971C3.17501 53.8823 3.48976 53.6725 4.06681 53.6725C4.69632 53.6725 5.16845 53.8823 5.16845 54.1971L5.16845 54.1971ZM5.90291 57.9741C6.06029 58.6561 6.21766 59.8626 6.21766 60.6495C6.21766 61.8036 6.00783 62.1184 5.32586 61.961C4.27668 61.7512 3.85701 60.02 4.32914 58.079C4.74881 56.5052 5.48324 56.4528 5.90291 57.9741L5.90291 57.9741Z" transform="translate(32.418144 76.34442)" id="Shape" fill="currentColor" fill-rule="evenodd" stroke="none" />
          <path d="M0.314753 1.53997C0.157378 2.43178 0 17.4351 0 34.8515L0 66.5369L1.46885 66.5369L2.88524 66.5369L2.83278 33.3302C2.83278 0.333417 2.83278 0.176046 1.73115 0.0186748C0.891805 -0.0862499 0.577048 0.228492 0.314753 1.53997L0.314753 1.53997Z" transform="translate(27.619396 77.6441)" id="Shape" fill="currentColor" fill-rule="evenodd" stroke="none" />
          <path d="M3.04259 0.0524623C1.94096 0.209833 1.8885 0.472129 1.57375 13.1672C1.36392 20.3017 0.996708 32.9443 0.734416 41.3378C0.472123 49.6787 0.209831 58.8066 0.104915 61.5345L0 66.5181L1.52129 66.5181C2.93767 66.5181 3.09505 66.3083 3.46226 64.4198C4.35406 59.4886 5.40323 0.891795 4.61635 0.209833C4.35406 1.60092e-05 3.61963 -0.0524623 3.04259 0.0524623L3.04259 0.0524623Z" transform="translate(66.753914 147.17104)" id="Shape" fill="currentColor" fill-rule="evenodd" stroke="none" />
          <path d="M0.472127 11.9082C0.209832 18.5181 0 33.0492 0 44.3279L0 64.787L1.62623 64.9444L3.25246 65.1017L3.61966 46.3214C3.77705 35.9869 4.0918 21.3509 4.30164 13.7443L4.61639 0L2.78033 0L0.891808 0L0.472127 11.9082L0.472127 11.9082Z" transform="translate(141.19339 152.57417)" id="Shape" fill="currentColor" fill-rule="evenodd" stroke="none" />
          <path d="M8.86556 0.264409C6.34753 0.841478 3.67212 2.4677 2.67541 4.04147C1.04918 6.50705 0.734429 10.2841 0.367219 29.694L0 49.4186L7.02949 49.7333C10.9114 49.9432 15.3705 50.153 16.9442 50.2055L19.8295 50.3104L20.1442 42.4415C20.354 38.0874 20.459 28.4349 20.4065 20.9333C20.354 5.19558 20.1442 4.25132 15.8426 1.73326C13.0098 0.00211322 11.4885 -0.312629 8.86556 0.264409L8.86556 0.264409ZM14.3737 5.4054C16.2098 6.92673 16.2622 7.0841 16.6295 11.8579C16.7868 14.5333 16.7868 23.3989 16.577 31.53L16.2622 46.271L9.96717 46.2186L3.67211 46.1661L4.03933 28.5923C4.40654 10.9661 4.72129 7.60869 6.34752 5.77262C8.44587 3.41196 11.8032 3.30704 14.3737 5.4054L14.3737 5.4054Z" transform="translate(78.34736 160.23122)" id="Shape" fill="currentColor" fill-rule="evenodd" stroke="none" />
          <path d="M8.30207 0.499118C5.0496 1.65322 2.84632 3.27946 1.53484 5.64011L0.223361 7.89584L0.0659821 28.1974C-0.0913888 44.8269 0.0135278 48.5515 0.590573 48.5515C2.16435 48.5515 17.0627 50.1777 17.9021 50.44C18.5841 50.6498 18.8464 50.2826 19.0562 48.9711C19.5283 46.0334 20.4201 23.5286 20.4201 15.345C20.4201 6.427 19.8431 4.64338 16.3808 2.28273C14.5972 1.07618 13.6529 0.65652 10.9775 0.0270075C10.5578 -0.0779167 9.35125 0.131932 8.30207 0.499118L8.30207 0.499118ZM14.1775 5.37782C17.325 8.05321 17.3775 8.47287 16.4857 25.5745C16.066 34.0204 15.6988 42.099 15.6988 43.463L15.6988 46.0335L10.6103 45.6662C7.77746 45.4564 5.04959 45.1941 4.525 45.0367C3.58074 44.7744 3.52828 43.8826 3.73811 26.886C3.94795 7.10895 4.0004 6.95158 7.20041 5.11552C9.87583 3.54176 12.0791 3.64665 14.1775 5.37782L14.1775 5.37782Z" transform="translate(111.06832 163.3014)" id="Shape" fill="currentColor" fill-rule="evenodd" stroke="none" />
          <path d="M1.00802 7.44917C0.850644 11.5934 0.588349 25.2852 0.43097 37.9802C0.273594 50.6228 0.0637569 61.2195 0.0112985 61.5342C-0.146081 62.3736 1.37524 62.531 2.42442 61.7965C3.42114 61.0621 3.36868 62.3211 4.31295 22.3999C4.6277 10.9114 4.73262 1.20655 4.57524 0.786883C4.36541 0.367218 3.57852 0 2.79163 0L1.32278 0L1.00802 7.44917L1.00802 7.44917Z" transform="translate(23.778635 159.39386)" id="Shape" fill="currentColor" fill-rule="evenodd" stroke="none" />
          <path d="M6.34753 0.42964C5.29835 0.691935 3.8295 1.42634 3.04262 2.05586C0.996721 3.68207 0.734426 6.30502 0.314753 30.1739L0 50.3182L2.25574 49.9509C3.51475 49.7411 5.19344 49.1641 6.08524 48.6395C7.55409 47.8001 7.659 47.4854 8.02622 43.8132C9.23277 29.5968 9.7049 0.272237 8.70818 0.00994173C8.44589 -0.0425045 7.34425 0.114866 6.34753 0.42964L6.34753 0.42964ZM5.19344 25.1903C5.08852 36.2591 4.87868 45.5444 4.66885 45.7542C4.40655 45.964 4.0918 46.0165 3.93442 45.8067C3.46229 45.3345 3.35738 7.0919 3.82951 5.93783C4.03934 5.46569 4.45901 5.04602 4.77376 5.04602C5.14098 5.04602 5.29835 11.1837 5.19344 25.1903L5.19344 25.1903Z" transform="translate(39.63256 163.26595)" id="Shape" fill="currentColor" fill-rule="evenodd" stroke="none" />
          <path d="M5.03938 0.50711C2.52134 1.08415 1.83937 2.02841 1.26232 5.80548C0.842651 8.58582 -0.25899 49.1893 0.0557642 49.7139C0.213143 49.9762 6.35085 48.7172 7.03282 48.245C7.76725 47.8254 7.81971 46.1467 8.39676 17.6613C8.81643 -2.16833 9.18365 -0.43715 5.03938 0.50711L5.03938 0.50711ZM4.46233 31.7204C4.25249 39.222 4.04266 43.5761 3.9902 41.4253C3.88528 39.2745 3.78037 35.6023 3.67545 33.2941C3.57053 30.9859 3.67545 23.5367 3.83282 16.7695C4.20004 4.59893 4.20004 4.54649 4.51479 11.2613C4.67217 14.9859 4.67217 24.2187 4.46233 31.7204L4.46233 31.7204Z" transform="translate(29.452194 168.32939)" id="Shape" fill="currentColor" fill-rule="evenodd" stroke="none" />
          <path d="M2.67538 3.51473C2.67538 5.5082 2.41309 13.6918 2.1508 21.7705C1.88851 29.8492 1.41638 45.6394 1.10163 56.9181C0.839333 68.1443 0.472124 78.3739 0.262293 79.5804L0 81.8362L1.78359 81.8362L3.56718 81.8362L3.88193 78.0066C4.09177 75.9607 4.45898 66.7804 4.77373 57.705C5.08848 48.6295 5.56061 35.1476 5.8229 27.8033C6.13766 20.459 6.34749 11.1738 6.34749 7.18687L6.34749 0L4.51144 0L2.67538 0L2.67538 3.51473L2.67538 3.51473Z" transform="translate(60.616173 294.21356)" id="Shape" fill="currentColor" fill-rule="evenodd" stroke="none" />
          <path d="M2.51804 0.400262C1.99345 0.715035 1.62623 8.21663 0.944273 30.4592C0.472128 46.7215 0.0524623 64.2953 0 69.4887L0 78.9313L1.4164 79.0887C2.67542 79.2461 2.83279 79.0363 3.09508 77.5149C3.61967 74.1051 6.08526 1.02978 5.66559 0.347784C5.35083 -0.124327 3.30493 -0.124327 2.51804 0.400262L2.51804 0.400262Z" transform="translate(135.42296 298.95435)" id="Shape" fill="currentColor" fill-rule="evenodd" stroke="none" />
          <path d="M2.72787 4.24916C2.72787 6.55737 2.51804 13.0098 2.20328 18.518C1.94098 24.0787 1.46886 34.8328 1.1541 42.4918C0.839348 50.1508 0.472128 57.3376 0.314758 58.4917L0 60.6425L7.92132 61.377L15.7902 62.1639L16.0525 59.0163C16.2099 57.2852 16.682 51.8294 17.1541 46.9508C17.5738 42.0196 18.1508 35.0951 18.4656 31.4754C18.7804 27.8557 19.2525 22.2951 19.5148 19.1475C19.7771 15.9475 20.1443 10.7541 20.3541 7.50162L20.7213 1.62621L19.4623 1.36392C18.1508 1.10163 5.29837 0 3.67214 0C2.83279 0 2.72787 0.577036 2.72787 4.24916L2.72787 4.24916ZM15.7377 4.98361C16.5771 5.29835 16.5771 11.2262 15.5804 21.7705C15.1607 26.3869 14.4787 34.9901 14.0066 40.918C13.5869 46.8459 13.0623 53.036 12.905 54.6622L12.5377 57.7049L8.65577 57.7049C5.77053 57.7049 4.72134 57.495 4.51151 56.9704C4.35413 56.5508 4.61643 48.1049 5.08856 38.1901C5.50823 28.2754 6.08528 16.577 6.24265 12.1705L6.55741 4.14428L10.8066 4.45902C13.1673 4.66887 15.3705 4.87869 15.7377 4.98361L15.7377 4.98361Z" transform="translate(72.62929 305.75458)" id="Shape" fill="currentColor" fill-rule="evenodd" stroke="none" />
          <path d="M1.04918 1.42347C0.891814 2.31528 0.577055 16.1644 0.367221 32.1644L0 61.3315L5.98036 61.2791C9.28529 61.2791 13.1673 61.0692 14.5837 60.9118L17.2066 60.5446L17.5739 53.9873C17.7837 50.3676 18.3083 39.7709 18.7804 30.3808C19.2525 20.9906 19.7771 10.7087 19.9345 7.50872L20.2493 1.63329L18.2034 1.37099C17.1017 1.16118 14.0591 0.898883 11.4361 0.741513C8.86562 0.584111 5.50822 0.321817 4.03937 0.164478C1.41641 -0.150294 1.36394 -0.150294 1.04918 1.42347L1.04918 1.42347ZM15.7378 12.7022C15.2657 24.1906 13.6919 56.8726 13.6394 56.9775C13.587 56.9775 11.2787 57.1349 8.55086 57.2398L3.56723 57.3972L3.56723 51.1021C3.6197 38.3021 4.5115 6.45956 4.87871 5.46283C5.24593 4.4661 5.6656 4.41365 10.6492 4.57102L16.0525 4.72839L15.7378 12.7022L15.7378 12.7022Z" transform="translate(107.19985 307.8982)" id="Shape" fill="currentColor" fill-rule="evenodd" stroke="none" />
          <path d="M3.32476 0.478422C3.16738 0.68824 2.80017 7.50795 2.48542 15.5342C1.90837 30.9573 1.33132 44.9114 0.334599 64.6361C0.0198434 71.246 -0.085073 77.1739 0.0723037 77.9083C0.334599 78.8526 0.754271 79.2198 1.64607 79.2198C3.32476 79.2198 3.37722 78.7477 3.79689 64.7935C3.95427 58.4459 4.32148 50.6295 4.58378 47.4819C4.84607 44.2819 5.21329 34.6294 5.37066 25.9736C5.5805 17.3178 5.94771 8.24236 6.21001 5.7768C6.4723 3.31121 6.68214 1.00302 6.68214 0.635762C6.68214 -0.0986494 3.74444 -0.256021 3.32476 0.478422L3.32476 0.478422Z" transform="translate(18.838905 303.12546)" id="Shape" fill="currentColor" fill-rule="evenodd" stroke="none" />
          <path d="M4.7213 0.577038C3.51475 0.786887 2.30819 1.15408 1.99344 1.31148C1.73114 1.46885 1.52131 7.92132 1.52131 16.5246C1.52131 24.7083 1.31147 36.0919 0.996717 41.8099C0.681964 47.528 0.314753 54.1378 0.209833 56.551L0 60.8526L1.94098 60.5379C2.99016 60.3805 4.66884 60.0133 5.71802 59.751L7.659 59.2789L7.9213 52.3018C8.07867 48.5247 8.49835 38.7673 8.86556 30.6886C9.23277 22.6099 9.59998 12.3804 9.7049 7.97377L9.91474 0L8.44589 0.0524464C7.659 0.104893 5.98032 0.314742 4.7213 0.577038L4.7213 0.577038ZM5.19341 30.0066C5.14096 45.4821 4.93112 55.5018 4.61637 55.8166C4.24916 56.1838 4.09178 47.528 4.09178 31.4755C4.09178 8.4459 4.24916 3.67212 5.03604 4.45901C5.19341 4.61638 5.24588 16.1049 5.19341 30.0066L5.19341 30.0066Z" transform="translate(24.576824 310.4758)" id="Shape" fill="currentColor" fill-rule="evenodd" stroke="none" />
          <path d="M2.67538 1.941C2.67538 6.19018 1.15409 45.01 0.891795 47.7379C0.734417 49.3116 0.472124 53.7707 0.314747 57.5477L0 64.5248L1.83605 64.5248L3.61964 64.5248L3.93439 60.1707C4.45898 53.4559 6.08519 12.223 6.34748 0.891813C6.34748 0.20985 5.92781 0 4.51143 0C2.72785 0 2.67538 0.0524464 2.67538 1.941L2.67538 1.941Z" transform="translate(57.993237 389.68918)" id="Shape" fill="currentColor" fill-rule="evenodd" stroke="none" />
          <path d="M0.734438 0.5479C0.524589 0.91512 0.262295 7.05281 0.157386 14.1873L0 27.1971L2.09836 27.1971L4.24918 27.1971L4.19671 15.2364C4.09181 1.64953 3.93442 0.233127 2.30821 0.0233095C1.73115 -0.0816151 0.996732 0.18068 0.734438 0.5479L0.734438 0.5479Z" transform="translate(134.58348 392.91837)" id="Shape" fill="currentColor" fill-rule="evenodd" stroke="none" />
          <path d="M4.87871 0.5479C4.66887 1.17741 4.14428 9.99052 2.99018 33.4922C2.67542 39.1053 1.99345 51.4856 1.4164 61.0331C0.839349 70.5282 0.314757 80.7577 0.209838 83.7479L0 89.1512L1.62624 88.9938L3.25247 88.8364L3.35739 83.8528C3.51477 78.4495 4.2492 67.0135 5.14101 57.8856C5.4033 54.6856 5.87544 45.4004 6.19019 37.1643C6.45249 28.9282 6.92462 19.5905 7.18692 16.443C7.50167 13.243 7.65905 8.31183 7.60659 5.42658C7.44921 0.442975 7.39675 0.18068 6.24265 0.0233094C5.61314 -0.081615 4.98363 0.18068 4.87871 0.5479L4.87871 0.5479Z" transform="translate(14.137444 393.44293)" id="Shape" fill="currentColor" fill-rule="evenodd" stroke="none" />
          <path d="M2.15083 7.65899C1.57377 14.4787 0.0524623 35.8294 0 37.5081C0 37.9278 0.68197 38.1901 1.78361 38.1901L3.56722 38.1901L3.88198 34.8852C4.03935 33.1016 4.45902 27.8557 4.77378 23.2393C5.56067 10.9639 6.19017 5.03604 6.6623 4.66883C6.87214 4.45901 9.39018 4.40653 12.223 4.51146L17.3115 4.7213L17.3115 13.4295C17.3115 18.2557 17.4689 25.1803 17.6787 28.8524L17.9935 35.5671L19.7771 35.5671L21.5082 35.5671L21.4558 25.1803C21.4033 19.5147 21.2459 11.7508 21.0361 8.02621L20.7213 1.20655L15.2131 0.83933C12.1705 0.68196 8.18362 0.367219 6.29509 0.262295L2.8328 0L2.15083 7.65899L2.15083 7.65899Z" transform="translate(69.062096 414.44968)" id="Shape" fill="currentColor" fill-rule="evenodd" stroke="none" />
          <path d="M0 13.272L0 26.4915L1.20656 26.1768C1.83606 26.0194 2.67541 25.862 3.04262 25.862C3.51475 25.862 3.67213 23.344 3.67213 15.108L3.67213 4.35405L9.44262 4.35405L15.1607 4.35405L15.318 9.96712L15.4754 15.6326L17.3115 15.6326L19.1475 15.6326L19.3049 8.60318C19.3574 4.72127 19.2524 1.36391 19.0426 1.15409C18.8328 0.944247 14.4262 0.577031 9.3377 0.419662L0 0L0 13.272L0 13.272Z" transform="translate(104.73424 415.7612)" id="Shape" fill="currentColor" fill-rule="evenodd" stroke="none" />
          <path d="M2.04591 0.839334C1.88853 1.25903 1.73115 6.76725 1.73115 13.0099C1.73115 19.2525 1.46885 27.6984 1.20656 31.7378C0.944263 35.7772 0.524591 43.1215 0.367214 48.0526L0 57.0231L2.04591 57.3379C3.14755 57.5477 4.93115 57.7051 5.98034 57.7051L7.92132 57.7051L8.23608 49.9412C8.39346 45.6919 8.81313 39.1345 9.07542 35.41C10.0721 23.2919 10.8066 3.98689 10.4394 1.941L10.0721 0L6.24263 0C3.2 0 2.3082 0.157371 2.04591 0.839334L2.04591 0.839334ZM7.082 4.72132C7.13446 4.87869 6.87216 8.9705 6.55741 13.9017C6.24265 18.7804 5.82298 29.4296 5.61314 37.5083C5.45576 45.5871 5.08855 52.4068 4.82625 52.7215C3.77707 53.8231 4.56396 8.65576 5.71806 5.08854C5.98035 4.24917 6.97708 4.03935 7.082 4.72132L7.082 4.72132Z" transform="translate(20.117752 416.9673)" id="Shape" fill="currentColor" fill-rule="evenodd" stroke="none" />
        </g>
      </g>
    </g>
    <path d="M1.2805 0L1.2805 5.46135C16.9025 6.45434 18.6952 6.95082 18.6952 25.0726L18.6952 106.993C18.6952 123.874 16.9025 125.611 0 126.852L0 132.314L56.0856 132.314L56.0856 126.852C36.8782 125.611 35.0855 124.618 35.0855 107.241L35.0855 74.7213L50.9637 78.6932C53.0124 78.9415 57.3661 78.9415 60.4393 78.6932C80.9272 76.2108 101.159 63.3021 101.159 36.9883C101.159 23.8314 96.0371 14.3981 88.098 8.44028C79.6467 2.23418 67.354 0 52.7564 0L1.2805 0ZM35.0855 18.8665C35.0855 12.4122 35.8538 10.178 37.3904 8.68851C38.927 7.19906 43.7929 6.20609 49.6832 6.20609C67.8661 6.20609 82.2077 15.8876 82.2077 37.733C82.2077 63.5504 65.5613 70.7494 50.9636 70.7494C43.7929 70.7494 37.9026 69.26 35.0855 68.267L35.0855 18.8665Z" transform="translate(638.60443 230.76534)" id="P" fill="currentColor" stroke="none" />
    <path d="M127.224 35.747C126.123 24.0796 125.021 9.43323 125.021 0L120.34 0C116.76 3.97187 115.108 5.2131 109.049 5.2131L19.5518 5.2131C13.2181 5.2131 10.4643 4.71661 6.88443 0L2.75377 0C2.20302 11.1709 1.10151 24.3278 0 36.2435L6.33367 36.2435C9.08744 27.555 10.7397 21.8454 13.2181 18.37C16.2472 13.4051 20.6533 11.9157 39.6543 11.9157L54.8 11.9157L54.8 112.702C54.8 128.838 52.8724 131.072 32.2191 132.065L32.2191 137.527L95.8312 137.527L95.8312 132.065C74.0764 131.072 72.4242 128.59 72.4242 112.702L72.4242 11.9157L89.2222 11.9157C106.846 11.9157 110.151 13.4051 114.006 18.6182C116.484 21.8454 118.412 26.8103 120.615 36.2435L127.224 35.747Z" transform="translate(0 225.55244)" id="T" fill="currentColor" fill-rule="evenodd" stroke="none" />
    <path d="M145.842 0L91.5695 0L91.5695 5.46135C108.289 6.70257 110.089 7.94379 110.089 24.8243L110.089 57.8407L35.7532 57.8407L35.7532 24.8243C35.7532 7.94379 37.5538 6.70257 53.5013 5.46135L53.5013 0L0 0L0 5.46135C17.4908 6.70257 19.0341 7.69555 19.0341 24.8243L19.0341 107.489C19.0341 124.618 17.4908 125.611 0.257217 126.852L0.257217 132.314L54.7874 132.314L54.7874 126.852C37.2966 125.611 35.7532 124.37 35.7532 107.489L35.7532 66.5293L110.089 66.5293L110.089 107.489C110.089 124.618 108.289 125.611 90.0262 126.852L90.0262 132.314L145.585 132.314L145.585 126.852C128.352 125.611 126.551 124.618 126.551 107.489L126.551 24.8243C126.551 7.94379 128.352 6.70257 145.842 5.46135L145.842 0Z" transform="translate(145.59418 230.76538)" id="H" fill="currentColor" fill-rule="evenodd" stroke="none" />
    <path d="M99.739 99.5457C96.9824 107.489 92.9728 114.689 89.715 118.66C85.2042 123.874 79.691 125.611 63.1514 125.611C52.8767 125.611 45.6093 125.611 41.3491 122.632C37.8407 120.398 36.5877 115.93 36.5877 106.496L36.5877 67.5222L56.8863 67.5222C74.9296 67.5222 76.1826 69.0117 78.9392 83.4098L84.703 83.4098L84.703 44.4356L78.9392 44.4356C76.4332 58.089 75.6814 60.0749 56.6357 60.0749L36.5877 60.0749L36.5877 13.1569C36.5877 7.19907 36.8383 6.70257 42.8527 6.70257L59.643 6.70257C74.9296 6.70257 80.4428 7.9438 83.1994 12.6604C85.7054 17.1288 87.7102 21.3489 89.4644 30.0375L95.4788 29.2927C94.727 19.1147 93.9752 5.21311 93.7246 0L2.50601 0L2.50601 5.46135C18.5444 6.95082 20.2987 7.44731 20.2987 25.8173L20.2987 106.993C20.2987 123.874 18.5444 125.363 0 126.852L0 132.314L98.486 132.314C100.24 125.859 104.5 106.745 105.503 100.29L99.739 99.5457Z" transform="translate(310.179 230.76534)" id="E" fill="currentColor" fill-rule="evenodd" stroke="none" />
    <path d="M136.409 135.541L136.409 130.079C122.946 128.838 119.898 127.1 113.547 109.475C100.084 73.9763 85.8591 35.0022 72.904 0L67.0615 1.73769L23.6239 108.979C16.2573 127.1 13.4631 128.093 0 130.079L0 135.541L45.4697 135.541L45.4697 130.079C29.4664 128.59 27.6883 126.604 32.5147 113.447C35.0549 104.758 38.3572 96.3182 41.9134 86.6367L87.1292 86.6367C91.9556 99.7936 96.2739 110.965 98.8141 119.157C101.608 126.852 99.5762 128.342 86.1131 130.079L86.1131 135.541L136.409 135.541ZM84.335 78.1964L44.9617 78.1964C51.3122 61.0677 58.1708 42.946 65.0294 25.0725L65.5374 25.0725L84.335 78.1964Z" transform="translate(730.57904 227.53822)" id="A" fill="currentColor" stroke="none" />
    <path d="M136.41 135.541L136.41 130.079C122.947 128.838 119.899 127.1 113.548 109.475C100.085 73.9763 85.8596 35.0022 72.9045 0L67.062 1.73769L23.6241 108.979C16.2574 127.1 13.4632 128.093 0 130.079L0 135.541L45.47 135.541L45.47 130.079C29.4666 128.59 27.6885 126.604 32.5149 113.447C35.0551 104.758 38.3574 96.3182 41.9137 86.6367L87.1297 86.6367C91.9562 99.7936 96.2746 110.965 98.8148 119.157C101.609 126.852 99.5769 128.342 86.1137 130.079L86.1137 135.541L136.41 135.541ZM84.3355 78.1964L44.962 78.1964C51.3126 61.0677 58.1712 42.946 65.0298 25.0725L65.5379 25.0725L84.3355 78.1964Z" transform="translate(991.23285 227.53822)" id="A" fill="currentColor" stroke="none" />
    <path d="M1.77799 0L1.77799 5.46135C18.2879 6.70257 20.0659 7.44731 20.0659 25.0726L20.0659 107.241C20.0659 124.618 18.2879 125.859 0 126.852L0 132.314L49.2757 132.314C74.9295 132.314 95.5034 127.101 111.251 115.433C127.253 103.518 136.905 85.1475 136.905 61.0679C136.905 41.9532 129.539 27.0585 119.379 17.1288C106.425 5.21311 86.8674 0 60.1976 0L1.77799 0ZM36.5757 20.6042C36.5757 12.4122 37.3377 10.178 39.1157 9.18503C41.4017 7.44731 46.9896 6.45434 56.1335 6.45434C70.1034 6.45434 82.2953 8.93678 91.9473 14.3981C109.727 23.8314 118.109 42.4497 118.109 63.7986C118.109 95.8221 100.075 125.115 59.1815 125.115C43.9416 125.115 36.5757 121.639 36.5757 105.752L36.5757 20.6042Z" transform="translate(1139.807 230.76534)" id="D" fill="currentColor" stroke="none" />
    <path d="M56.2262 132.314L56.2262 126.852C38.3599 125.611 36.7835 124.618 36.7835 106.993L36.7835 25.0726C36.7835 7.9438 38.3599 6.70257 56.2262 5.46135L56.2262 0L0 0L0 5.46135C17.8663 6.70257 19.7054 7.9438 19.7054 25.0726L19.7054 106.993C19.7054 124.618 17.8663 125.611 0 126.852L0 132.314L56.2262 132.314Z" transform="translate(1295.9504 230.76534)" id="I" fill="currentColor" fill-rule="evenodd" stroke="none" />
    <path d="M158.255 0L105.136 0L105.136 5.46132C120.549 6.20607 126.054 8.68848 127.43 18.1217C128.255 23.8313 128.806 33.0162 128.806 51.8826L128.806 103.765L128.255 103.765L32.4767 0L0 0L0 5.46132C11.009 6.20607 15.6879 7.94375 20.3667 12.9086C24.4951 17.8734 24.7704 18.1217 24.7704 33.5127L24.7704 78.4445C24.7704 97.311 24.4951 107.241 23.6695 113.447C22.2933 123.873 16.5136 126.107 3.57794 126.852L3.57794 132.313L56.9718 132.313L56.9718 126.852C41.8344 126.107 36.3299 123.873 35.229 113.198C34.6785 107.241 33.8528 97.311 33.8528 78.4445L33.8528 26.8102L34.4033 26.8102L131.558 134.051L137.888 134.051L137.888 51.8826C137.888 33.0162 138.164 23.8313 138.989 17.377C140.09 8.68848 145.595 5.95782 158.255 5.46132L158.255 0Z" transform="translate(1362.729 230.77213)" id="N" fill="currentColor" fill-rule="evenodd" stroke="none" />
    <path d="M96.014 99.7939C92.9416 108.979 88.845 115.433 85.2605 119.405C80.3958 124.618 73.4827 125.611 61.449 125.611C52.2316 125.611 44.8066 125.115 40.71 122.881C36.8694 120.646 35.8452 116.674 35.8452 105.504L35.8452 25.0726C35.8452 7.44731 37.6375 6.45434 54.536 5.46135L54.536 0L0.768113 0L0.768113 5.46135C17.9226 6.70257 19.2028 7.69555 19.2028 25.0726L19.2028 106.745C19.2028 124.122 17.4105 125.611 0 126.852L0 132.314L94.4778 132.314C96.5261 125.859 100.879 106.745 101.903 100.539L96.014 99.7939Z" transform="translate(880.1453 230.76534)" id="L" fill="currentColor" fill-rule="evenodd" stroke="none" />
  </g>
</svg>